<?xml version="1.0" encoding="UTF-8" standalone="no"?>
<!DOCTYPE svg PUBLIC "-//W3C//DTD SVG 1.1//EN"
 "http://www.w3.org/Graphics/SVG/1.1/DTD/svg11.dtd">
<!-- Generated by graphviz version 14.1.2 (0)
 -->
<!-- Title: src/app/Application.cpp Pages: 1 -->
<svg width="1272pt" height="142pt"
 viewBox="0.00 0.00 1272.00 142.00" xmlns="http://www.w3.org/2000/svg" xmlns:xlink="http://www.w3.org/1999/xlink">
<g id="graph0" class="graph" transform="scale(1 1) rotate(0) translate(4 138.25)">
<title>src/app/Application.cpp</title>
<!-- Node1 -->
<g id="Node000001" class="node">
<title>Node1</title>
<g id="a_Node000001"><a xlink:title=" ">
<polygon fill="#999999" stroke="#666666" points="815.75,-134.25 686.5,-134.25 686.5,-113.5 815.75,-113.5 815.75,-134.25"/>
<text xml:space="preserve" text-anchor="middle" x="751.12" y="-120.75" font-family="Helvetica,sans-Serif" font-size="10.00">src/app/Application.cpp</text>
</a>
</g>
</g>
<!-- Node2 -->
<g id="Node000002" class="node">
<title>Node2</title>
<g id="a_Node000002"><a xlink:href="Application_8hpp.html" target="_top" xlink:title=" ">
<polygon fill="white" stroke="#666666" points="218,-77.5 126.25,-77.5 126.25,-56.75 218,-56.75 218,-77.5"/>
<text xml:space="preserve" text-anchor="middle" x="172.12" y="-64" font-family="Helvetica,sans-Serif" font-size="10.00">Application.hpp</text>
</a>
</g>
</g>
<!-- Node1&#45;&gt;Node2 -->
<g id="edge1_Node000001_Node000002" class="edge">
<title>Node1&#45;&gt;Node2</title>
<g id="a_edge1_Node000001_Node000002"><a xlink:title=" ">
<path fill="none" stroke="#63b8ff" d="M686.41,-118.99C589.4,-112.8 400.31,-99.25 229.52,-77.71"/>
<polygon fill="#63b8ff" stroke="#63b8ff" points="230.16,-74.26 219.8,-76.47 229.28,-81.21 230.16,-74.26"/>
</a>
</g>
</g>
<!-- Node5 -->
<g id="Node000005" class="node">
<title>Node5</title>
<g id="a_Node000005"><a xlink:href="SingleInstance_8hpp.html" target="_top" xlink:title=" ">
<polygon fill="white" stroke="#666666" points="108.25,-77.5 0,-77.5 0,-56.75 108.25,-56.75 108.25,-77.5"/>
<text xml:space="preserve" text-anchor="middle" x="54.12" y="-64" font-family="Helvetica,sans-Serif" font-size="10.00">SingleInstance.hpp</text>
</a>
</g>
</g>
<!-- Node1&#45;&gt;Node5 -->
<g id="edge4_Node000001_Node000005" class="edge">
<title>Node1&#45;&gt;Node5</title>
<g id="a_edge4_Node000001_Node000005"><a xlink:title=" ">
<path fill="none" stroke="#63b8ff" d="M686.18,-119.86C573.23,-114.27 333.07,-100.79 120.13,-77.76"/>
<polygon fill="#63b8ff" stroke="#63b8ff" points="120.55,-74.28 110.23,-76.68 119.79,-81.24 120.55,-74.28"/>
</a>
</g>
</g>
<!-- Node8 -->
<g id="Node000008" class="node">
<title>Node8</title>
<g id="a_Node000008"><a xlink:href="Constants_8hpp.html" target="_top" xlink:title=" ">
<polygon fill="white" stroke="#666666" points="815.38,-77.5 686.88,-77.5 686.88,-56.75 815.38,-56.75 815.38,-77.5"/>
<text xml:space="preserve" text-anchor="middle" x="751.12" y="-64" font-family="Helvetica,sans-Serif" font-size="10.00">mo/core/Constants.hpp</text>
</a>
</g>
</g>
<!-- Node1&#45;&gt;Node8 -->
<g id="edge7_Node000001_Node000008" class="edge">
<title>Node1&#45;&gt;Node8</title>
<g id="a_edge7_Node000001_Node000008"><a xlink:title=" ">
<path fill="none" stroke="#63b8ff" d="M751.12,-113.09C751.12,-106.47 751.12,-97.47 751.12,-89.27"/>
<polygon fill="#63b8ff" stroke="#63b8ff" points="754.63,-89.34 751.13,-79.34 747.63,-89.34 754.63,-89.34"/>
</a>
</g>
</g>
<!-- Node9 -->
<g id="Node000009" class="node">
<title>Node9</title>
<g id="a_Node000009"><a xlink:href="Logger_8hpp.html" target="_top" xlink:title=" ">
<polygon fill="white" stroke="#666666" points="486.12,-77.5 374.12,-77.5 374.12,-56.75 486.12,-56.75 486.12,-77.5"/>
<text xml:space="preserve" text-anchor="middle" x="430.12" y="-64" font-family="Helvetica,sans-Serif" font-size="10.00">mo/core/Logger.hpp</text>
</a>
</g>
</g>
<!-- Node1&#45;&gt;Node9 -->
<g id="edge8_Node000001_Node000009" class="edge">
<title>Node1&#45;&gt;Node9</title>
<g id="a_edge8_Node000001_Node000009"><a xlink:title=" ">
<path fill="none" stroke="#63b8ff" d="M693.37,-113.02C638.45,-103.66 555.86,-89.57 497.87,-79.68"/>
<polygon fill="#63b8ff" stroke="#63b8ff" points="498.55,-76.25 488.1,-78.01 497.37,-83.15 498.55,-76.25"/>
</a>
</g>
</g>
<!-- Node11 -->
<g id="Node000011" class="node">
<title>Node11</title>
<g id="a_Node000011"><a xlink:href="Settings_8hpp.html" target="_top" xlink:title=" ">
<polygon fill="white" stroke="#666666" points="355.88,-77.5 236.38,-77.5 236.38,-56.75 355.88,-56.75 355.88,-77.5"/>
<text xml:space="preserve" text-anchor="middle" x="296.12" y="-64" font-family="Helvetica,sans-Serif" font-size="10.00">mo/core/Settings.hpp</text>
</a>
</g>
</g>
<!-- Node1&#45;&gt;Node11 -->
<g id="edge10_Node000001_Node000011" class="edge">
<title>Node1&#45;&gt;Node11</title>
<g id="a_edge10_Node000001_Node000011"><a xlink:title=" ">
<path fill="none" stroke="#63b8ff" d="M686.2,-115.6C611.78,-107.19 485.83,-92.7 367.4,-77.77"/>
<polygon fill="#63b8ff" stroke="#63b8ff" points="368.19,-74.34 357.83,-76.56 367.31,-81.29 368.19,-74.34"/>
</a>
</g>
</g>
<!-- Node13 -->
<g id="Node000013" class="node">
<title>Node13</title>
<g id="a_Node000013"><a xlink:href="MainWindow_8hpp.html" target="_top" xlink:title=" ">
<polygon fill="white" stroke="#666666" points="668.38,-77.5 503.88,-77.5 503.88,-56.75 668.38,-56.75 668.38,-77.5"/>
<text xml:space="preserve" text-anchor="middle" x="586.12" y="-64" font-family="Helvetica,sans-Serif" font-size="10.00">mainwindow/MainWindow.hpp</text>
</a>
</g>
</g>
<!-- Node1&#45;&gt;Node13 -->
<g id="edge15_Node000001_Node000013" class="edge">
<title>Node1&#45;&gt;Node13</title>
<g id="a_edge15_Node000001_Node000013"><a xlink:title=" ">
<path fill="none" stroke="#63b8ff" d="M721.63,-113.09C695.08,-104.28 655.83,-91.25 626.4,-81.49"/>
<polygon fill="#63b8ff" stroke="#63b8ff" points="627.68,-78.22 617.08,-78.4 625.47,-84.87 627.68,-78.22"/>
</a>
</g>
</g>
<!-- Node15 -->
<g id="Node000015" class="node">
<title>Node15</title>
<g id="a_Node000015"><a xlink:title=" ">
<polygon fill="#e0e0e0" stroke="#999999" points="909.12,-77.5 833.12,-77.5 833.12,-56.75 909.12,-56.75 909.12,-77.5"/>
<text xml:space="preserve" text-anchor="middle" x="871.12" y="-64" font-family="Helvetica,sans-Serif" font-size="10.00">QLibraryInfo</text>
</a>
</g>
</g>
<!-- Node1&#45;&gt;Node15 -->
<g id="edge19_Node000001_Node000015" class="edge">
<title>Node1&#45;&gt;Node15</title>
<g id="a_edge19_Node000001_Node000015"><a xlink:title=" ">
<path fill="none" stroke="#63b8ff" d="M772.58,-113.09C791.18,-104.6 818.35,-92.2 839.45,-82.58"/>
<polygon fill="#63b8ff" stroke="#63b8ff" points="840.84,-85.79 848.48,-78.46 837.93,-79.42 840.84,-85.79"/>
</a>
</g>
</g>
<!-- Node16 -->
<g id="Node000016" class="node">
<title>Node16</title>
<g id="a_Node000016"><a xlink:title=" ">
<polygon fill="#e0e0e0" stroke="#999999" points="982.62,-77.5 927.62,-77.5 927.62,-56.75 982.62,-56.75 982.62,-77.5"/>
<text xml:space="preserve" text-anchor="middle" x="955.12" y="-64" font-family="Helvetica,sans-Serif" font-size="10.00">QLocale</text>
</a>
</g>
</g>
<!-- Node1&#45;&gt;Node16 -->
<g id="edge20_Node000001_Node000016" class="edge">
<title>Node1&#45;&gt;Node16</title>
<g id="a_edge20_Node000001_Node000016"><a xlink:title=" ">
<path fill="none" stroke="#63b8ff" d="M787.6,-113.09C823.84,-103.36 879.24,-88.49 916.29,-78.55"/>
<polygon fill="#63b8ff" stroke="#63b8ff" points="916.95,-82 925.7,-76.02 915.13,-75.23 916.95,-82"/>
</a>
</g>
</g>
<!-- Node17 -->
<g id="Node000017" class="node">
<title>Node17</title>
<g id="a_Node000017"><a xlink:title=" ">
<polygon fill="#e0e0e0" stroke="#999999" points="1063.75,-77.5 1000.5,-77.5 1000.5,-56.75 1063.75,-56.75 1063.75,-77.5"/>
<text xml:space="preserve" text-anchor="middle" x="1032.12" y="-64" font-family="Helvetica,sans-Serif" font-size="10.00">QSettings</text>
</a>
</g>
</g>
<!-- Node1&#45;&gt;Node17 -->
<g id="edge21_Node000001_Node000017" class="edge">
<title>Node1&#45;&gt;Node17</title>
<g id="a_edge21_Node000001_Node000017"><a xlink:title=" ">
<path fill="none" stroke="#63b8ff" d="M807.27,-113.03C853.71,-104.72 921.68,-92.18 989.41,-78.01"/>
<polygon fill="#63b8ff" stroke="#63b8ff" points="989.73,-81.52 998.8,-76.04 988.29,-74.67 989.73,-81.52"/>
</a>
</g>
</g>
<!-- Node18 -->
<g id="Node000018" class="node">
<title>Node18</title>
<g id="a_Node000018"><a xlink:title=" ">
<polygon fill="#e0e0e0" stroke="#999999" points="1174.75,-77.5 1081.5,-77.5 1081.5,-56.75 1174.75,-56.75 1174.75,-77.5"/>
<text xml:space="preserve" text-anchor="middle" x="1128.12" y="-64" font-family="Helvetica,sans-Serif" font-size="10.00">QStandardPaths</text>
</a>
</g>
</g>
<!-- Node1&#45;&gt;Node18 -->
<g id="edge22_Node000001_Node000018" class="edge">
<title>Node1&#45;&gt;Node18</title>
<g id="a_edge22_Node000001_Node000018"><a xlink:title=" ">
<path fill="none" stroke="#63b8ff" d="M815.96,-114.3C878.57,-105.89 976.35,-92.42 1069.94,-77.97"/>
<polygon fill="#63b8ff" stroke="#63b8ff" points="1070.19,-81.47 1079.54,-76.48 1069.12,-74.55 1070.19,-81.47"/>
</a>
</g>
</g>
<!-- Node19 -->
<g id="Node000019" class="node">
<title>Node19</title>
<g id="a_Node000019"><a xlink:title=" ">
<polygon fill="#e0e0e0" stroke="#999999" points="1263.88,-77.5 1192.38,-77.5 1192.38,-56.75 1263.88,-56.75 1263.88,-77.5"/>
<text xml:space="preserve" text-anchor="middle" x="1228.12" y="-64" font-family="Helvetica,sans-Serif" font-size="10.00">QTranslator</text>
</a>
</g>
</g>
<!-- Node1&#45;&gt;Node19 -->
<g id="edge23_Node000001_Node000019" class="edge">
<title>Node1&#45;&gt;Node19</title>
<g id="a_edge23_Node000001_Node000019"><a xlink:title=" ">
<path fill="none" stroke="#63b8ff" d="M815.96,-118.23C898.55,-111.83 1045.89,-98.82 1180.82,-77.89"/>
<polygon fill="#63b8ff" stroke="#63b8ff" points="1181.33,-81.36 1190.67,-76.35 1180.25,-74.44 1181.33,-81.36"/>
</a>
</g>
</g>
<!-- Node3 -->
<g id="Node000003" class="node">
<title>Node3</title>
<g id="a_Node000003"><a xlink:title=" ">
<polygon fill="#e0e0e0" stroke="#999999" points="205.25,-20.75 127,-20.75 127,0 205.25,0 205.25,-20.75"/>
<text xml:space="preserve" text-anchor="middle" x="166.12" y="-7.25" font-family="Helvetica,sans-Serif" font-size="10.00">QApplication</text>
</a>
</g>
</g>
<!-- Node2&#45;&gt;Node3 -->
<g id="edge2_Node000002_Node000003" class="edge">
<title>Node2&#45;&gt;Node3</title>
<g id="a_edge2_Node000002_Node000003"><a xlink:title=" ">
<path fill="none" stroke="#63b8ff" d="M171.05,-56.34C170.33,-49.72 169.34,-40.72 168.44,-32.52"/>
<polygon fill="#63b8ff" stroke="#63b8ff" points="171.92,-32.14 167.35,-22.58 164.96,-32.9 171.92,-32.14"/>
</a>
</g>
</g>
<!-- Node4 -->
<g id="Node000004" class="node">
<title>Node4</title>
<g id="a_Node000004"><a xlink:title=" ">
<polygon fill="#e0e0e0" stroke="#999999" points="353.75,-20.75 296.5,-20.75 296.5,0 353.75,0 353.75,-20.75"/>
<text xml:space="preserve" text-anchor="middle" x="325.12" y="-7.25" font-family="Helvetica,sans-Serif" font-size="10.00">memory</text>
</a>
</g>
</g>
<!-- Node2&#45;&gt;Node4 -->
<g id="edge3_Node000002_Node000004" class="edge">
<title>Node2&#45;&gt;Node4</title>
<g id="a_edge3_Node000002_Node000004"><a xlink:title=" ">
<path fill="none" stroke="#63b8ff" d="M199.48,-56.34C223.88,-47.61 259.85,-34.73 287.06,-25"/>
<polygon fill="#63b8ff" stroke="#63b8ff" points="288.09,-28.35 296.33,-21.68 285.73,-21.75 288.09,-28.35"/>
</a>
</g>
</g>
<!-- Node6 -->
<g id="Node000006" class="node">
<title>Node6</title>
<g id="a_Node000006"><a xlink:title=" ">
<polygon fill="#e0e0e0" stroke="#999999" points="278.62,-20.75 223.62,-20.75 223.62,0 278.62,0 278.62,-20.75"/>
<text xml:space="preserve" text-anchor="middle" x="251.12" y="-7.25" font-family="Helvetica,sans-Serif" font-size="10.00">QObject</text>
</a>
</g>
</g>
<!-- Node5&#45;&gt;Node6 -->
<g id="edge5_Node000005_Node000006" class="edge">
<title>Node5&#45;&gt;Node6</title>
<g id="a_edge5_Node000005_Node000006"><a xlink:title=" ">
<path fill="none" stroke="#63b8ff" d="M89.34,-56.34C123.9,-46.73 176.47,-32.12 212.23,-22.18"/>
<polygon fill="#63b8ff" stroke="#63b8ff" points="213.05,-25.59 221.75,-19.54 211.18,-18.84 213.05,-25.59"/>
</a>
</g>
</g>
<!-- Node7 -->
<g id="Node000007" class="node">
<title>Node7</title>
<g id="a_Node000007"><a xlink:title=" ">
<polygon fill="#e0e0e0" stroke="#999999" points="103,-20.75 5.25,-20.75 5.25,0 103,0 103,-20.75"/>
<text xml:space="preserve" text-anchor="middle" x="54.12" y="-7.25" font-family="Helvetica,sans-Serif" font-size="10.00">QSharedMemory</text>
</a>
</g>
</g>
<!-- Node5&#45;&gt;Node7 -->
<g id="edge6_Node000005_Node000007" class="edge">
<title>Node5&#45;&gt;Node7</title>
<g id="a_edge6_Node000005_Node000007"><a xlink:title=" ">
<path fill="none" stroke="#63b8ff" d="M54.12,-56.34C54.12,-49.72 54.12,-40.72 54.12,-32.52"/>
<polygon fill="#63b8ff" stroke="#63b8ff" points="57.63,-32.59 54.13,-22.59 50.63,-32.59 57.63,-32.59"/>
</a>
</g>
</g>
<!-- Node10 -->
<g id="Node000010" class="node">
<title>Node10</title>
<g id="a_Node000010"><a xlink:title=" ">
<polygon fill="#e0e0e0" stroke="#999999" points="428.12,-20.75 376.12,-20.75 376.12,0 428.12,0 428.12,-20.75"/>
<text xml:space="preserve" text-anchor="middle" x="402.12" y="-7.25" font-family="Helvetica,sans-Serif" font-size="10.00">QString</text>
</a>
</g>
</g>
<!-- Node9&#45;&gt;Node10 -->
<g id="edge9_Node000009_Node000010" class="edge">
<title>Node9&#45;&gt;Node10</title>
<g id="a_edge9_Node000009_Node000010"><a xlink:title=" ">
<path fill="none" stroke="#63b8ff" d="M425.12,-56.34C421.54,-49.33 416.59,-39.66 412.2,-31.08"/>
<polygon fill="#63b8ff" stroke="#63b8ff" points="415.45,-29.74 407.78,-22.43 409.21,-32.92 415.45,-29.74"/>
</a>
</g>
</g>
<!-- Node11&#45;&gt;Node4 -->
<g id="edge14_Node000011_Node000004" class="edge">
<title>Node11&#45;&gt;Node4</title>
<g id="a_edge14_Node000011_Node000004"><a xlink:title=" ">
<path fill="none" stroke="#63b8ff" d="M301.31,-56.34C305.02,-49.33 310.14,-39.66 314.69,-31.08"/>
<polygon fill="#63b8ff" stroke="#63b8ff" points="317.69,-32.89 319.28,-22.42 311.5,-29.61 317.69,-32.89"/>
</a>
</g>
</g>
<!-- Node11&#45;&gt;Node6 -->
<g id="edge11_Node000011_Node000006" class="edge">
<title>Node11&#45;&gt;Node6</title>
<g id="a_edge11_Node000011_Node000006"><a xlink:title=" ">
<path fill="none" stroke="#63b8ff" d="M288.08,-56.34C282.06,-49.02 273.66,-38.79 266.38,-29.94"/>
<polygon fill="#63b8ff" stroke="#63b8ff" points="269.12,-27.75 260.06,-22.25 263.71,-32.2 269.12,-27.75"/>
</a>
</g>
</g>
<!-- Node11&#45;&gt;Node10 -->
<g id="edge12_Node000011_Node000010" class="edge">
<title>Node11&#45;&gt;Node10</title>
<g id="a_edge12_Node000011_Node000010"><a xlink:title=" ">
<path fill="none" stroke="#63b8ff" d="M315.08,-56.34C331.2,-48.01 354.63,-35.91 373.12,-26.36"/>
<polygon fill="#63b8ff" stroke="#63b8ff" points="374.71,-29.47 381.99,-21.77 371.5,-23.25 374.71,-29.47"/>
</a>
</g>
</g>
<!-- Node12 -->
<g id="Node000012" class="node">
<title>Node12</title>
<g id="a_Node000012"><a xlink:title=" ">
<polygon fill="#e0e0e0" stroke="#999999" points="521.75,-20.75 452.5,-20.75 452.5,0 521.75,0 521.75,-20.75"/>
<text xml:space="preserve" text-anchor="middle" x="487.12" y="-7.25" font-family="Helvetica,sans-Serif" font-size="10.00">QStringList</text>
</a>
</g>
</g>
<!-- Node11&#45;&gt;Node12 -->
<g id="edge13_Node000011_Node000012" class="edge">
<title>Node11&#45;&gt;Node12</title>
<g id="a_edge13_Node000011_Node000012"><a xlink:title=" ">
<path fill="none" stroke="#63b8ff" d="M330.27,-56.34C361.55,-47.37 408.04,-34.04 442.3,-24.23"/>
<polygon fill="#63b8ff" stroke="#63b8ff" points="442.85,-27.71 451.5,-21.59 440.92,-20.98 442.85,-27.71"/>
</a>
</g>
</g>
<!-- Node13&#45;&gt;Node4 -->
<g id="edge18_Node000013_Node000004" class="edge">
<title>Node13&#45;&gt;Node4</title>
<g id="a_edge18_Node000013_Node000004"><a xlink:title=" ">
<path fill="none" stroke="#63b8ff" d="M537.8,-56.33C493.4,-47.28 425.77,-33.37 367.12,-20.75 366.46,-20.61 365.8,-20.46 365.12,-20.32"/>
<polygon fill="#63b8ff" stroke="#63b8ff" points="366.03,-16.93 355.51,-18.21 364.53,-23.77 366.03,-16.93"/>
</a>
</g>
</g>
<!-- Node13&#45;&gt;Node12 -->
<g id="edge17_Node000013_Node000012" class="edge">
<title>Node13&#45;&gt;Node12</title>
<g id="a_edge17_Node000013_Node000012"><a xlink:title=" ">
<path fill="none" stroke="#63b8ff" d="M568.43,-56.34C553.5,-48.08 531.89,-36.13 514.7,-26.63"/>
<polygon fill="#63b8ff" stroke="#63b8ff" points="516.44,-23.59 506,-21.81 513.05,-29.71 516.44,-23.59"/>
</a>
</g>
</g>
<!-- Node14 -->
<g id="Node000014" class="node">
<title>Node14</title>
<g id="a_Node000014"><a xlink:title=" ">
<polygon fill="#e0e0e0" stroke="#999999" points="629.38,-20.75 542.88,-20.75 542.88,0 629.38,0 629.38,-20.75"/>
<text xml:space="preserve" text-anchor="middle" x="586.12" y="-7.25" font-family="Helvetica,sans-Serif" font-size="10.00">QMainWindow</text>
</a>
</g>
</g>
<!-- Node13&#45;&gt;Node14 -->
<g id="edge16_Node000013_Node000014" class="edge">
<title>Node13&#45;&gt;Node14</title>
<g id="a_edge16_Node000013_Node000014"><a xlink:title=" ">
<path fill="none" stroke="#63b8ff" d="M586.12,-56.34C586.12,-49.72 586.12,-40.72 586.12,-32.52"/>
<polygon fill="#63b8ff" stroke="#63b8ff" points="589.63,-32.59 586.13,-22.59 582.63,-32.59 589.63,-32.59"/>
</a>
</g>
</g>
</g>
</svg>
