<?xml version="1.0" encoding="UTF-8" standalone="no"?>
<!DOCTYPE svg PUBLIC "-//W3C//DTD SVG 1.1//EN"
 "http://www.w3.org/Graphics/SVG/1.1/DTD/svg11.dtd">
<!-- Generated by graphviz version 14.1.2 (0)
 -->
<!-- Title: mo::ui::LineNumberArea Pages: 1 -->
<svg width="257pt" height="162pt"
 viewBox="0.00 0.00 257.00 162.00" xmlns="http://www.w3.org/2000/svg" xmlns:xlink="http://www.w3.org/1999/xlink">
<g id="graph0" class="graph" transform="scale(1 1) rotate(0) translate(4 158)">
<title>mo::ui::LineNumberArea</title>
<!-- Node1 -->
<g id="Node000001" class="node">
<title>Node1</title>
<g id="a_Node000001"><a xlink:title=" ">
<polygon fill="#999999" stroke="#666666" points="248.5,-96.25 114,-96.25 114,-75.5 248.5,-75.5 248.5,-96.25"/>
<text xml:space="preserve" text-anchor="middle" x="181.25" y="-82.75" font-family="Helvetica,sans-Serif" font-size="10.00">mo::ui::LineNumberArea</text>
</a>
</g>
</g>
<!-- Node3 -->
<g id="Node000003" class="node">
<title>Node3</title>
<g id="a_Node000003"><a xlink:href="classmo_1_1ui_1_1CodeEditor.html" target="_top" xlink:title=" ">
<polygon fill="white" stroke="#666666" points="129.25,-20.75 23.25,-20.75 23.25,0 129.25,0 129.25,-20.75"/>
<text xml:space="preserve" text-anchor="middle" x="76.25" y="-7.25" font-family="Helvetica,sans-Serif" font-size="10.00">mo::ui::CodeEditor</text>
</a>
</g>
</g>
<!-- Node1&#45;&gt;Node3 -->
<g id="edge4_Node000003_Node000001" class="edge">
<title>Node1&#45;&gt;Node3</title>
<g id="a_edge4_Node000003_Node000001"><a xlink:title=" ">
<path fill="none" stroke="#9a32cd" stroke-dasharray="5,2" d="M104.81,-72.38C90.31,-68.46 78.2,-63.54 73.5,-57.5 65.42,-47.11 68.82,-31.11 72.31,-20.94"/>
<polygon fill="#9a32cd" stroke="#9a32cd" points="103.69,-75.71 114.24,-74.7 105.36,-68.91 103.69,-75.71"/>
</a>
</g>
<text xml:space="preserve" text-anchor="start" x="76.5" y="-45" font-family="Helvetica,sans-Serif" font-size="10.00" fill="grey">lineNumberArea_</text>
</g>
<!-- Node2 -->
<g id="Node000002" class="node">
<title>Node2</title>
<g id="a_Node000002"><a xlink:title=" ">
<polygon fill="white" stroke="#666666" points="210.25,-154 152.25,-154 152.25,-133.25 210.25,-133.25 210.25,-154"/>
<text xml:space="preserve" text-anchor="middle" x="181.25" y="-140.5" font-family="Helvetica,sans-Serif" font-size="10.00">QWidget</text>
</a>
</g>
</g>
<!-- Node2&#45;&gt;Node1 -->
<g id="edge1_Node000001_Node000002" class="edge">
<title>Node2&#45;&gt;Node1</title>
<g id="a_edge1_Node000001_Node000002"><a xlink:title=" ">
<path fill="none" stroke="#63b8ff" d="M181.25,-121.68C181.25,-113.02 181.25,-103.4 181.25,-96.47"/>
<polygon fill="#63b8ff" stroke="#63b8ff" points="177.75,-121.4 181.25,-131.4 184.75,-121.4 177.75,-121.4"/>
</a>
</g>
</g>
<!-- Node3&#45;&gt;Node1 -->
<g id="edge2_Node000001_Node000003" class="edge">
<title>Node3&#45;&gt;Node1</title>
<g id="a_edge2_Node000001_Node000003"><a xlink:title=" ">
<path fill="none" stroke="#9a32cd" stroke-dasharray="5,2" d="M139.95,-21.15C150.45,-25.18 160.44,-30.83 168.25,-38.75 177.83,-48.47 180.47,-64.66 181.13,-75.05"/>
<polygon fill="#9a32cd" stroke="#9a32cd" points="141.36,-17.93 130.77,-18.11 139.16,-24.58 141.36,-17.93"/>
</a>
</g>
<text xml:space="preserve" text-anchor="start" x="181.03" y="-45" font-family="Helvetica,sans-Serif" font-size="10.00" fill="grey">editor_</text>
</g>
<!-- Node4 -->
<g id="Node000004" class="node">
<title>Node4</title>
<g id="a_Node000004"><a xlink:title=" ">
<polygon fill="white" stroke="#666666" points="86.5,-96.25 0,-96.25 0,-75.5 86.5,-75.5 86.5,-96.25"/>
<text xml:space="preserve" text-anchor="middle" x="43.25" y="-82.75" font-family="Helvetica,sans-Serif" font-size="10.00">QPlainTextEdit</text>
</a>
</g>
</g>
<!-- Node4&#45;&gt;Node3 -->
<g id="edge3_Node000003_Node000004" class="edge">
<title>Node4&#45;&gt;Node3</title>
<g id="a_edge3_Node000003_Node000004"><a xlink:title=" ">
<path fill="none" stroke="#63b8ff" d="M48.13,-63.9C50.38,-55.83 53.43,-46.65 57.25,-38.75 60.27,-32.5 64.64,-26.1 68.42,-21.05"/>
<polygon fill="#63b8ff" stroke="#63b8ff" points="44.75,-62.98 45.68,-73.54 51.53,-64.71 44.75,-62.98"/>
</a>
</g>
</g>
</g>
</svg>
