<?xml version="1.0" encoding="UTF-8" standalone="no"?>
<!DOCTYPE svg PUBLIC "-//W3C//DTD SVG 1.1//EN"
 "http://www.w3.org/Graphics/SVG/1.1/DTD/svg11.dtd">
<!-- Generated by graphviz version 14.1.2 (0)
 -->
<!-- Title: mo::ui::MainWindow Pages: 1 -->
<svg width="250pt" height="162pt"
 viewBox="0.00 0.00 250.00 162.00" xmlns="http://www.w3.org/2000/svg" xmlns:xlink="http://www.w3.org/1999/xlink">
<g id="graph0" class="graph" transform="scale(1 1) rotate(0) translate(4 158)">
<title>mo::ui::MainWindow</title>
<!-- Node1 -->
<g id="Node000001" class="node">
<title>Node1</title>
<g id="a_Node000001"><a xlink:title=" ">
<polygon fill="#999999" stroke="#666666" points="117.12,-20.75 1.38,-20.75 1.38,0 117.12,0 117.12,-20.75"/>
<text xml:space="preserve" text-anchor="middle" x="59.25" y="-7.25" font-family="Helvetica,sans-Serif" font-size="10.00">mo::ui::MainWindow</text>
</a>
</g>
</g>
<!-- Node2 -->
<g id="Node000002" class="node">
<title>Node2</title>
<g id="a_Node000002"><a xlink:title=" ">
<polygon fill="white" stroke="#666666" points="86.5,-96.25 0,-96.25 0,-75.5 86.5,-75.5 86.5,-96.25"/>
<text xml:space="preserve" text-anchor="middle" x="43.25" y="-82.75" font-family="Helvetica,sans-Serif" font-size="10.00">QMainWindow</text>
</a>
</g>
</g>
<!-- Node2&#45;&gt;Node1 -->
<g id="edge1_Node000001_Node000002" class="edge">
<title>Node2&#45;&gt;Node1</title>
<g id="a_edge1_Node000001_Node000002"><a xlink:title=" ">
<path fill="none" stroke="#63b8ff" d="M47.75,-64.19C50.81,-50.13 54.73,-32.16 57.11,-21.22"/>
<polygon fill="#63b8ff" stroke="#63b8ff" points="44.37,-63.27 45.66,-73.79 51.21,-64.76 44.37,-63.27"/>
</a>
</g>
</g>
<!-- Node3 -->
<g id="Node000003" class="node">
<title>Node3</title>
<g id="a_Node000003"><a xlink:href="classmo_1_1ui_1_1FindReplaceDock.html" target="_top" xlink:title=" ">
<polygon fill="white" stroke="#666666" points="241.62,-96.25 104.88,-96.25 104.88,-75.5 241.62,-75.5 241.62,-96.25"/>
<text xml:space="preserve" text-anchor="middle" x="173.25" y="-82.75" font-family="Helvetica,sans-Serif" font-size="10.00">mo::ui::FindReplaceDock</text>
</a>
</g>
</g>
<!-- Node3&#45;&gt;Node1 -->
<g id="edge2_Node000001_Node000003" class="edge">
<title>Node3&#45;&gt;Node1</title>
<g id="a_edge2_Node000001_Node000003"><a xlink:title=" ">
<path fill="none" stroke="#9a32cd" stroke-dasharray="5,2" d="M148.8,-69.11C126.27,-54.59 93.54,-33.48 74.52,-21.22"/>
<polygon fill="#9a32cd" stroke="#9a32cd" points="146.77,-71.97 157.07,-74.45 150.57,-66.09 146.77,-71.97"/>
</a>
</g>
<text xml:space="preserve" text-anchor="start" x="132.81" y="-45" font-family="Helvetica,sans-Serif" font-size="10.00" fill="grey">findDock_</text>
</g>
<!-- Node4 -->
<g id="Node000004" class="node">
<title>Node4</title>
<g id="a_Node000004"><a xlink:title=" ">
<polygon fill="white" stroke="#666666" points="214.62,-154 131.88,-154 131.88,-133.25 214.62,-133.25 214.62,-154"/>
<text xml:space="preserve" text-anchor="middle" x="173.25" y="-140.5" font-family="Helvetica,sans-Serif" font-size="10.00">QDockWidget</text>
</a>
</g>
</g>
<!-- Node4&#45;&gt;Node3 -->
<g id="edge3_Node000003_Node000004" class="edge">
<title>Node4&#45;&gt;Node3</title>
<g id="a_edge3_Node000003_Node000004"><a xlink:title=" ">
<path fill="none" stroke="#63b8ff" d="M173.25,-121.68C173.25,-113.02 173.25,-103.4 173.25,-96.47"/>
<polygon fill="#63b8ff" stroke="#63b8ff" points="169.75,-121.4 173.25,-131.4 176.75,-121.4 169.75,-121.4"/>
</a>
</g>
</g>
</g>
</svg>
