<?xml version="1.0" encoding="UTF-8" standalone="no"?>
<!DOCTYPE svg PUBLIC "-//W3C//DTD SVG 1.1//EN"
 "http://www.w3.org/Graphics/SVG/1.1/DTD/svg11.dtd">
<!-- Generated by graphviz version 14.1.2 (0)
 -->
<!-- Title: mo::ui::CodeEditor Pages: 1 -->
<svg width="218pt" height="162pt"
 viewBox="0.00 0.00 218.00 162.00" xmlns="http://www.w3.org/2000/svg" xmlns:xlink="http://www.w3.org/1999/xlink">
<g id="graph0" class="graph" transform="scale(1 1) rotate(0) translate(4 158)">
<title>mo::ui::CodeEditor</title>
<!-- Node1 -->
<g id="Node000001" class="node">
<title>Node1</title>
<g id="a_Node000001"><a xlink:title=" ">
<polygon fill="#999999" stroke="#666666" points="183.25,-96.25 77.25,-96.25 77.25,-75.5 183.25,-75.5 183.25,-96.25"/>
<text xml:space="preserve" text-anchor="middle" x="130.25" y="-82.75" font-family="Helvetica,sans-Serif" font-size="10.00">mo::ui::CodeEditor</text>
</a>
</g>
</g>
<!-- Node3 -->
<g id="Node000003" class="node">
<title>Node3</title>
<g id="a_Node000003"><a xlink:href="classmo_1_1ui_1_1LineNumberArea.html" target="_top" xlink:title=" ">
<polygon fill="white" stroke="#666666" points="134.5,-20.75 0,-20.75 0,0 134.5,0 134.5,-20.75"/>
<text xml:space="preserve" text-anchor="middle" x="67.25" y="-7.25" font-family="Helvetica,sans-Serif" font-size="10.00">mo::ui::LineNumberArea</text>
</a>
</g>
</g>
<!-- Node1&#45;&gt;Node3 -->
<g id="edge4_Node000003_Node000001" class="edge">
<title>Node1&#45;&gt;Node3</title>
<g id="a_edge4_Node000003_Node000001"><a xlink:title=" ">
<path fill="none" stroke="#9a32cd" stroke-dasharray="5,2" d="M76.76,-69.58C71.97,-66.3 67.72,-62.33 64.5,-57.5 57.29,-46.69 60.31,-31.09 63.49,-21.09"/>
<polygon fill="#9a32cd" stroke="#9a32cd" points="74.76,-72.47 85.19,-74.32 78.19,-66.37 74.76,-72.47"/>
</a>
</g>
<text xml:space="preserve" text-anchor="start" x="67.5" y="-45" font-family="Helvetica,sans-Serif" font-size="10.00" fill="grey">editor_</text>
</g>
<!-- Node2 -->
<g id="Node000002" class="node">
<title>Node2</title>
<g id="a_Node000002"><a xlink:title=" ">
<polygon fill="white" stroke="#666666" points="173.5,-154 87,-154 87,-133.25 173.5,-133.25 173.5,-154"/>
<text xml:space="preserve" text-anchor="middle" x="130.25" y="-140.5" font-family="Helvetica,sans-Serif" font-size="10.00">QPlainTextEdit</text>
</a>
</g>
</g>
<!-- Node2&#45;&gt;Node1 -->
<g id="edge1_Node000001_Node000002" class="edge">
<title>Node2&#45;&gt;Node1</title>
<g id="a_edge1_Node000001_Node000002"><a xlink:title=" ">
<path fill="none" stroke="#63b8ff" d="M130.25,-121.68C130.25,-113.02 130.25,-103.4 130.25,-96.47"/>
<polygon fill="#63b8ff" stroke="#63b8ff" points="126.75,-121.4 130.25,-131.4 133.75,-121.4 126.75,-121.4"/>
</a>
</g>
</g>
<!-- Node3&#45;&gt;Node1 -->
<g id="edge2_Node000001_Node000003" class="edge">
<title>Node3&#45;&gt;Node1</title>
<g id="a_edge2_Node000001_Node000003"><a xlink:title=" ">
<path fill="none" stroke="#9a32cd" stroke-dasharray="5,2" d="M95.77,-27.46C100.29,-30.81 104.66,-34.6 108.25,-38.75 117.66,-49.62 123.97,-65.2 127.33,-75.18"/>
<polygon fill="#9a32cd" stroke="#9a32cd" points="97.97,-24.72 87.71,-22.08 94.08,-30.54 97.97,-24.72"/>
</a>
</g>
<text xml:space="preserve" text-anchor="start" x="122.56" y="-45" font-family="Helvetica,sans-Serif" font-size="10.00" fill="grey">lineNumberArea_</text>
</g>
<!-- Node4 -->
<g id="Node000004" class="node">
<title>Node4</title>
<g id="a_Node000004"><a xlink:title=" ">
<polygon fill="white" stroke="#666666" points="59.25,-96.25 1.25,-96.25 1.25,-75.5 59.25,-75.5 59.25,-96.25"/>
<text xml:space="preserve" text-anchor="middle" x="30.25" y="-82.75" font-family="Helvetica,sans-Serif" font-size="10.00">QWidget</text>
</a>
</g>
</g>
<!-- Node4&#45;&gt;Node3 -->
<g id="edge3_Node000003_Node000004" class="edge">
<title>Node4&#45;&gt;Node3</title>
<g id="a_edge3_Node000003_Node000004"><a xlink:title=" ">
<path fill="none" stroke="#63b8ff" d="M35.19,-64.36C37.61,-56.12 40.94,-46.71 45.25,-38.75 48.67,-32.42 53.61,-26.11 57.95,-21.15"/>
<polygon fill="#63b8ff" stroke="#63b8ff" points="31.86,-63.25 32.68,-73.82 38.63,-65.05 31.86,-63.25"/>
</a>
</g>
</g>
</g>
</svg>
