<?xml version="1.0" encoding="UTF-8" standalone="no"?>
<!DOCTYPE svg PUBLIC "-//W3C//DTD SVG 1.1//EN"
 "http://www.w3.org/Graphics/SVG/1.1/DTD/svg11.dtd">
<!-- Generated by graphviz version 14.1.2 (0)
 -->
<!-- Title: src/ui/editor/CodeEditor.cpp Pages: 1 -->
<svg width="1976pt" height="168pt"
 viewBox="0.00 0.00 1976.00 168.00" xmlns="http://www.w3.org/2000/svg" xmlns:xlink="http://www.w3.org/1999/xlink">
<g id="graph0" class="graph" transform="scale(1 1) rotate(0) translate(4 163.75)">
<title>src/ui/editor/CodeEditor.cpp</title>
<!-- Node1 -->
<g id="Node000001" class="node">
<title>Node1</title>
<g id="a_Node000001"><a xlink:title=" ">
<polygon fill="#999999" stroke="#666666" points="994.62,-159.75 845.12,-159.75 845.12,-139 994.62,-139 994.62,-159.75"/>
<text xml:space="preserve" text-anchor="middle" x="919.88" y="-146.25" font-family="Helvetica,sans-Serif" font-size="10.00">src/ui/editor/CodeEditor.cpp</text>
</a>
</g>
</g>
<!-- Node2 -->
<g id="Node000002" class="node">
<title>Node2</title>
<g id="a_Node000002"><a xlink:href="CodeEditor_8hpp.html" target="_top" xlink:title=" ">
<polygon fill="white" stroke="#666666" points="189.62,-96.62 100.12,-96.62 100.12,-75.88 189.62,-75.88 189.62,-96.62"/>
<text xml:space="preserve" text-anchor="middle" x="144.88" y="-83.12" font-family="Helvetica,sans-Serif" font-size="10.00">CodeEditor.hpp</text>
</a>
</g>
</g>
<!-- Node1&#45;&gt;Node2 -->
<g id="edge1_Node000001_Node000002" class="edge">
<title>Node1&#45;&gt;Node2</title>
<g id="a_edge1_Node000001_Node000002"><a xlink:title=" ">
<path fill="none" stroke="#63b8ff" d="M844.76,-149.08C712.96,-149.11 431.91,-143.8 198.88,-103 194.46,-102.23 189.88,-101.22 185.36,-100.1"/>
<polygon fill="#63b8ff" stroke="#63b8ff" points="186.33,-96.74 175.77,-97.5 184.51,-103.49 186.33,-96.74"/>
</a>
</g>
</g>
<!-- Node5 -->
<g id="Node000005" class="node">
<title>Node5</title>
<g id="a_Node000005"><a xlink:title=" ">
<polygon fill="#e0e0e0" stroke="#999999" points="115.75,-33.5 0,-33.5 0,0 115.75,0 115.75,-33.5"/>
<text xml:space="preserve" text-anchor="start" x="8" y="-20" font-family="Helvetica,sans-Serif" font-size="10.00">KSyntaxHighlighting</text>
<text xml:space="preserve" text-anchor="middle" x="57.88" y="-7.25" font-family="Helvetica,sans-Serif" font-size="10.00">/Theme</text>
</a>
</g>
</g>
<!-- Node1&#45;&gt;Node5 -->
<g id="edge28_Node000001_Node000005" class="edge">
<title>Node1&#45;&gt;Node5</title>
<g id="a_edge28_Node000001_Node000005"><a xlink:title=" ">
<path fill="none" stroke="#63b8ff" d="M844.93,-148.85C652.35,-149.43 151.01,-146.67 90.88,-103 72.48,-89.64 64.34,-64.53 60.73,-45.01"/>
<polygon fill="#63b8ff" stroke="#63b8ff" points="64.21,-44.6 59.25,-35.23 57.29,-45.64 64.21,-44.6"/>
</a>
</g>
</g>
<!-- Node6 -->
<g id="Node000006" class="node">
<title>Node6</title>
<g id="a_Node000006"><a xlink:href="Logger_8hpp.html" target="_top" xlink:title=" ">
<polygon fill="white" stroke="#666666" points="319.88,-96.62 207.88,-96.62 207.88,-75.88 319.88,-75.88 319.88,-96.62"/>
<text xml:space="preserve" text-anchor="middle" x="263.88" y="-83.12" font-family="Helvetica,sans-Serif" font-size="10.00">mo/core/Logger.hpp</text>
</a>
</g>
</g>
<!-- Node1&#45;&gt;Node6 -->
<g id="edge5_Node000001_Node000006" class="edge">
<title>Node1&#45;&gt;Node6</title>
<g id="a_edge5_Node000001_Node000006"><a xlink:title=" ">
<path fill="none" stroke="#63b8ff" d="M844.79,-146.48C732.1,-142.77 512.84,-132.16 328.88,-103 323.14,-102.09 317.17,-100.94 311.28,-99.67"/>
<polygon fill="#63b8ff" stroke="#63b8ff" points="312.11,-96.27 301.58,-97.46 310.55,-103.09 312.11,-96.27"/>
</a>
</g>
</g>
<!-- Node7 -->
<g id="Node000007" class="node">
<title>Node7</title>
<g id="a_Node000007"><a xlink:href="Settings_8hpp.html" target="_top" xlink:title=" ">
<polygon fill="white" stroke="#666666" points="457.62,-96.62 338.12,-96.62 338.12,-75.88 457.62,-75.88 457.62,-96.62"/>
<text xml:space="preserve" text-anchor="middle" x="397.88" y="-83.12" font-family="Helvetica,sans-Serif" font-size="10.00">mo/core/Settings.hpp</text>
</a>
</g>
</g>
<!-- Node1&#45;&gt;Node7 -->
<g id="edge7_Node000001_Node000007" class="edge">
<title>Node1&#45;&gt;Node7</title>
<g id="a_edge7_Node000001_Node000007"><a xlink:title=" ">
<path fill="none" stroke="#63b8ff" d="M844.95,-143.74C754.81,-137.51 599.09,-124.63 466.88,-103 460.81,-102.01 454.49,-100.8 448.23,-99.51"/>
<polygon fill="#63b8ff" stroke="#63b8ff" points="449.11,-96.12 438.6,-97.42 447.63,-102.96 449.11,-96.12"/>
</a>
</g>
</g>
<!-- Node11 -->
<g id="Node000011" class="node">
<title>Node11</title>
<g id="a_Node000011"><a xlink:title=" ">
<polygon fill="#e0e0e0" stroke="#999999" points="516.25,-96.62 475.5,-96.62 475.5,-75.88 516.25,-75.88 516.25,-96.62"/>
<text xml:space="preserve" text-anchor="middle" x="495.88" y="-83.12" font-family="Helvetica,sans-Serif" font-size="10.00">QFile</text>
</a>
</g>
</g>
<!-- Node1&#45;&gt;Node11 -->
<g id="edge12_Node000001_Node000011" class="edge">
<title>Node1&#45;&gt;Node11</title>
<g id="a_edge12_Node000001_Node000011"><a xlink:title=" ">
<path fill="none" stroke="#63b8ff" d="M844.95,-148.21C764.17,-146.1 632.66,-137.05 524.88,-103 523.73,-102.64 522.57,-102.23 521.42,-101.78"/>
<polygon fill="#63b8ff" stroke="#63b8ff" points="523.25,-98.78 512.71,-97.7 520.28,-105.12 523.25,-98.78"/>
</a>
</g>
</g>
<!-- Node12 -->
<g id="Node000012" class="node">
<title>Node12</title>
<g id="a_Node000012"><a xlink:title=" ">
<polygon fill="#e0e0e0" stroke="#999999" points="593.62,-96.62 534.12,-96.62 534.12,-75.88 593.62,-75.88 593.62,-96.62"/>
<text xml:space="preserve" text-anchor="middle" x="563.88" y="-83.12" font-family="Helvetica,sans-Serif" font-size="10.00">QFileInfo</text>
</a>
</g>
</g>
<!-- Node1&#45;&gt;Node12 -->
<g id="edge13_Node000001_Node000012" class="edge">
<title>Node1&#45;&gt;Node12</title>
<g id="a_edge13_Node000001_Node000012"><a xlink:title=" ">
<path fill="none" stroke="#63b8ff" d="M844.87,-142.78C779.98,-136.73 684.07,-124.86 602.88,-103 600.62,-102.39 598.31,-101.69 596.01,-100.93"/>
<polygon fill="#63b8ff" stroke="#63b8ff" points="597.43,-97.72 586.84,-97.55 595.02,-104.29 597.43,-97.72"/>
</a>
</g>
</g>
<!-- Node13 -->
<g id="Node000013" class="node">
<title>Node13</title>
<g id="a_Node000013"><a xlink:title=" ">
<polygon fill="#e0e0e0" stroke="#999999" points="656.12,-96.62 611.62,-96.62 611.62,-75.88 656.12,-75.88 656.12,-96.62"/>
<text xml:space="preserve" text-anchor="middle" x="633.88" y="-83.12" font-family="Helvetica,sans-Serif" font-size="10.00">QFont</text>
</a>
</g>
</g>
<!-- Node1&#45;&gt;Node13 -->
<g id="edge14_Node000001_Node000013" class="edge">
<title>Node1&#45;&gt;Node13</title>
<g id="a_edge14_Node000001_Node000013"><a xlink:title=" ">
<path fill="none" stroke="#63b8ff" d="M844.79,-140.9C793.22,-134.35 723.72,-122.7 664.88,-103 663.7,-102.61 662.52,-102.18 661.33,-101.72"/>
<polygon fill="#63b8ff" stroke="#63b8ff" points="662.8,-98.54 652.25,-97.63 659.93,-104.92 662.8,-98.54"/>
</a>
</g>
</g>
<!-- Node14 -->
<g id="Node000014" class="node">
<title>Node14</title>
<g id="a_Node000014"><a xlink:title=" ">
<polygon fill="#e0e0e0" stroke="#999999" points="743.5,-96.62 674.25,-96.62 674.25,-75.88 743.5,-75.88 743.5,-96.62"/>
<text xml:space="preserve" text-anchor="middle" x="708.88" y="-83.12" font-family="Helvetica,sans-Serif" font-size="10.00">QKeyEvent</text>
</a>
</g>
</g>
<!-- Node1&#45;&gt;Node14 -->
<g id="edge15_Node000001_Node000014" class="edge">
<title>Node1&#45;&gt;Node14</title>
<g id="a_edge15_Node000001_Node000014"><a xlink:title=" ">
<path fill="none" stroke="#63b8ff" d="M879.53,-138.53C845.32,-129.94 795.07,-116.71 751.88,-103 749.77,-102.33 747.62,-101.62 745.45,-100.89"/>
<polygon fill="#63b8ff" stroke="#63b8ff" points="746.69,-97.62 736.1,-97.61 744.38,-104.22 746.69,-97.62"/>
</a>
</g>
</g>
<!-- Node15 -->
<g id="Node000015" class="node">
<title>Node15</title>
<g id="a_Node000015"><a xlink:title=" ">
<polygon fill="#e0e0e0" stroke="#999999" points="836.5,-96.62 761.25,-96.62 761.25,-75.88 836.5,-75.88 836.5,-96.62"/>
<text xml:space="preserve" text-anchor="middle" x="798.88" y="-83.12" font-family="Helvetica,sans-Serif" font-size="10.00">QPaintEvent</text>
</a>
</g>
</g>
<!-- Node1&#45;&gt;Node15 -->
<g id="edge16_Node000001_Node000015" class="edge">
<title>Node1&#45;&gt;Node15</title>
<g id="a_edge16_Node000001_Node000015"><a xlink:title=" ">
<path fill="none" stroke="#63b8ff" d="M900.43,-138.55C880.94,-128.71 850.68,-113.42 828.26,-102.09"/>
<polygon fill="#63b8ff" stroke="#63b8ff" points="830.12,-99.11 819.62,-97.73 826.97,-105.36 830.12,-99.11"/>
</a>
</g>
</g>
<!-- Node16 -->
<g id="Node000016" class="node">
<title>Node16</title>
<g id="a_Node000016"><a xlink:title=" ">
<polygon fill="#e0e0e0" stroke="#999999" points="911.5,-96.62 854.25,-96.62 854.25,-75.88 911.5,-75.88 911.5,-96.62"/>
<text xml:space="preserve" text-anchor="middle" x="882.88" y="-83.12" font-family="Helvetica,sans-Serif" font-size="10.00">QPainter</text>
</a>
</g>
</g>
<!-- Node1&#45;&gt;Node16 -->
<g id="edge17_Node000001_Node000016" class="edge">
<title>Node1&#45;&gt;Node16</title>
<g id="a_edge17_Node000001_Node000016"><a xlink:title=" ">
<path fill="none" stroke="#63b8ff" d="M913.93,-138.55C908.72,-129.95 901,-117.19 894.56,-106.55"/>
<polygon fill="#63b8ff" stroke="#63b8ff" points="897.64,-104.88 889.47,-98.14 891.65,-108.51 897.64,-104.88"/>
</a>
</g>
</g>
<!-- Node17 -->
<g id="Node000017" class="node">
<title>Node17</title>
<g id="a_Node000017"><a xlink:title=" ">
<polygon fill="#e0e0e0" stroke="#999999" points="986.5,-96.62 929.25,-96.62 929.25,-75.88 986.5,-75.88 986.5,-96.62"/>
<text xml:space="preserve" text-anchor="middle" x="957.88" y="-83.12" font-family="Helvetica,sans-Serif" font-size="10.00">QPalette</text>
</a>
</g>
</g>
<!-- Node1&#45;&gt;Node17 -->
<g id="edge18_Node000001_Node000017" class="edge">
<title>Node1&#45;&gt;Node17</title>
<g id="a_edge18_Node000001_Node000017"><a xlink:title=" ">
<path fill="none" stroke="#63b8ff" d="M925.98,-138.55C931.33,-129.95 939.26,-117.19 945.88,-106.55"/>
<polygon fill="#63b8ff" stroke="#63b8ff" points="948.8,-108.47 951.11,-98.13 942.86,-104.78 948.8,-108.47"/>
</a>
</g>
</g>
<!-- Node18 -->
<g id="Node000018" class="node">
<title>Node18</title>
<g id="a_Node000018"><a xlink:title=" ">
<polygon fill="#e0e0e0" stroke="#999999" points="1087.62,-96.62 1004.12,-96.62 1004.12,-75.88 1087.62,-75.88 1087.62,-96.62"/>
<text xml:space="preserve" text-anchor="middle" x="1045.88" y="-83.12" font-family="Helvetica,sans-Serif" font-size="10.00">QResizeEvent</text>
</a>
</g>
</g>
<!-- Node1&#45;&gt;Node18 -->
<g id="edge19_Node000001_Node000018" class="edge">
<title>Node1&#45;&gt;Node18</title>
<g id="a_edge19_Node000001_Node000018"><a xlink:title=" ">
<path fill="none" stroke="#63b8ff" d="M940.12,-138.55C960.51,-128.66 992.21,-113.28 1015.59,-101.94"/>
<polygon fill="#63b8ff" stroke="#63b8ff" points="1016.85,-105.22 1024.32,-97.71 1013.79,-98.92 1016.85,-105.22"/>
</a>
</g>
</g>
<!-- Node19 -->
<g id="Node000019" class="node">
<title>Node19</title>
<g id="a_Node000019"><a xlink:title=" ">
<polygon fill="#e0e0e0" stroke="#999999" points="1170.25,-96.62 1105.5,-96.62 1105.5,-75.88 1170.25,-75.88 1170.25,-96.62"/>
<text xml:space="preserve" text-anchor="middle" x="1137.88" y="-83.12" font-family="Helvetica,sans-Serif" font-size="10.00">QSaveFile</text>
</a>
</g>
</g>
<!-- Node1&#45;&gt;Node19 -->
<g id="edge20_Node000001_Node000019" class="edge">
<title>Node1&#45;&gt;Node19</title>
<g id="a_edge20_Node000001_Node000019"><a xlink:title=" ">
<path fill="none" stroke="#63b8ff" d="M963.92,-138.58C999.98,-130.21 1052.15,-117.27 1096.88,-103 1098.95,-102.34 1101.06,-101.63 1103.19,-100.89"/>
<polygon fill="#63b8ff" stroke="#63b8ff" points="1104.14,-104.27 1112.34,-97.56 1101.74,-97.7 1104.14,-104.27"/>
</a>
</g>
</g>
<!-- Node20 -->
<g id="Node000020" class="node">
<title>Node20</title>
<g id="a_Node000020"><a xlink:title=" ">
<polygon fill="#e0e0e0" stroke="#999999" points="1287.88,-96.62 1187.88,-96.62 1187.88,-75.88 1287.88,-75.88 1287.88,-96.62"/>
<text xml:space="preserve" text-anchor="middle" x="1237.88" y="-83.12" font-family="Helvetica,sans-Serif" font-size="10.00">QStringConverter</text>
</a>
</g>
</g>
<!-- Node1&#45;&gt;Node20 -->
<g id="edge21_Node000001_Node000020" class="edge">
<title>Node1&#45;&gt;Node20</title>
<g id="a_edge21_Node000001_Node000020"><a xlink:title=" ">
<path fill="none" stroke="#63b8ff" d="M985.38,-138.52C1037.93,-130.23 1113.46,-117.43 1178.88,-103 1183.18,-102.05 1187.64,-100.99 1192.09,-99.89"/>
<polygon fill="#63b8ff" stroke="#63b8ff" points="1192.77,-103.33 1201.59,-97.46 1191.04,-96.55 1192.77,-103.33"/>
</a>
</g>
</g>
<!-- Node21 -->
<g id="Node000021" class="node">
<title>Node21</title>
<g id="a_Node000021"><a xlink:title=" ">
<polygon fill="#e0e0e0" stroke="#999999" points="1376.25,-96.62 1305.5,-96.62 1305.5,-75.88 1376.25,-75.88 1376.25,-96.62"/>
<text xml:space="preserve" text-anchor="middle" x="1340.88" y="-83.12" font-family="Helvetica,sans-Serif" font-size="10.00">QTextBlock</text>
</a>
</g>
</g>
<!-- Node1&#45;&gt;Node21 -->
<g id="edge22_Node000001_Node000021" class="edge">
<title>Node1&#45;&gt;Node21</title>
<g id="a_edge22_Node000001_Node000021"><a xlink:title=" ">
<path fill="none" stroke="#63b8ff" d="M994.77,-144.31C1071.48,-139 1193.74,-127.34 1296.88,-103 1299.81,-102.31 1302.82,-101.48 1305.82,-100.58"/>
<polygon fill="#63b8ff" stroke="#63b8ff" points="1306.66,-103.99 1315.06,-97.54 1304.47,-97.34 1306.66,-103.99"/>
</a>
</g>
</g>
<!-- Node22 -->
<g id="Node000022" class="node">
<title>Node22</title>
<g id="a_Node000022"><a xlink:title=" ">
<polygon fill="#e0e0e0" stroke="#999999" points="1469.5,-96.62 1394.25,-96.62 1394.25,-75.88 1469.5,-75.88 1469.5,-96.62"/>
<text xml:space="preserve" text-anchor="middle" x="1431.88" y="-83.12" font-family="Helvetica,sans-Serif" font-size="10.00">QTextCursor</text>
</a>
</g>
</g>
<!-- Node1&#45;&gt;Node22 -->
<g id="edge23_Node000001_Node000022" class="edge">
<title>Node1&#45;&gt;Node22</title>
<g id="a_edge23_Node000001_Node000022"><a xlink:title=" ">
<path fill="none" stroke="#63b8ff" d="M994.76,-146.27C1087.32,-142.47 1249.23,-131.96 1384.88,-103 1388.3,-102.27 1391.82,-101.37 1395.33,-100.38"/>
<polygon fill="#63b8ff" stroke="#63b8ff" points="1396.35,-103.73 1404.86,-97.43 1394.28,-97.04 1396.35,-103.73"/>
</a>
</g>
</g>
<!-- Node23 -->
<g id="Node000023" class="node">
<title>Node23</title>
<g id="a_Node000023"><a xlink:title=" ">
<polygon fill="#e0e0e0" stroke="#999999" points="1566.38,-96.62 1487.38,-96.62 1487.38,-75.88 1566.38,-75.88 1566.38,-96.62"/>
<text xml:space="preserve" text-anchor="middle" x="1526.88" y="-83.12" font-family="Helvetica,sans-Serif" font-size="10.00">QTextStream</text>
</a>
</g>
</g>
<!-- Node1&#45;&gt;Node23 -->
<g id="edge24_Node000001_Node000023" class="edge">
<title>Node1&#45;&gt;Node23</title>
<g id="a_edge24_Node000001_Node000023"><a xlink:title=" ">
<path fill="none" stroke="#63b8ff" d="M994.8,-147.88C1102.8,-145.91 1308.03,-137.46 1478.88,-103 1482.49,-102.27 1486.2,-101.36 1489.9,-100.34"/>
<polygon fill="#63b8ff" stroke="#63b8ff" points="1490.76,-103.74 1499.32,-97.49 1488.73,-97.04 1490.76,-103.74"/>
</a>
</g>
</g>
<!-- Node24 -->
<g id="Node000024" class="node">
<title>Node24</title>
<g id="a_Node000024"><a xlink:title=" ">
<polygon fill="#e0e0e0" stroke="#999999" points="1699.75,-103 1584,-103 1584,-69.5 1699.75,-69.5 1699.75,-103"/>
<text xml:space="preserve" text-anchor="start" x="1592" y="-89.5" font-family="Helvetica,sans-Serif" font-size="10.00">KSyntaxHighlighting</text>
<text xml:space="preserve" text-anchor="middle" x="1641.88" y="-76.75" font-family="Helvetica,sans-Serif" font-size="10.00">/Definition</text>
</a>
</g>
</g>
<!-- Node1&#45;&gt;Node24 -->
<g id="edge25_Node000001_Node000024" class="edge">
<title>Node1&#45;&gt;Node24</title>
<g id="a_edge25_Node000001_Node000024"><a xlink:title=" ">
<path fill="none" stroke="#63b8ff" d="M995.09,-147.2C1115.39,-144.44 1358.61,-135.23 1572.54,-103.37"/>
<polygon fill="#63b8ff" stroke="#63b8ff" points="1572.81,-106.87 1582.18,-101.92 1571.77,-99.95 1572.81,-106.87"/>
</a>
</g>
</g>
<!-- Node25 -->
<g id="Node000025" class="node">
<title>Node25</title>
<g id="a_Node000025"><a xlink:title=" ">
<polygon fill="#e0e0e0" stroke="#999999" points="1833.75,-103 1718,-103 1718,-69.5 1833.75,-69.5 1833.75,-103"/>
<text xml:space="preserve" text-anchor="start" x="1726" y="-89.5" font-family="Helvetica,sans-Serif" font-size="10.00">KSyntaxHighlighting</text>
<text xml:space="preserve" text-anchor="middle" x="1775.88" y="-76.75" font-family="Helvetica,sans-Serif" font-size="10.00">/Repository</text>
</a>
</g>
</g>
<!-- Node1&#45;&gt;Node25 -->
<g id="edge26_Node000001_Node000025" class="edge">
<title>Node1&#45;&gt;Node25</title>
<g id="a_edge26_Node000001_Node000025"><a xlink:title=" ">
<path fill="none" stroke="#63b8ff" d="M995.1,-148.38C1134.01,-147.43 1440.16,-140.95 1706.47,-103.18"/>
<polygon fill="#63b8ff" stroke="#63b8ff" points="1706.63,-106.7 1716.03,-101.81 1705.63,-99.77 1706.63,-106.7"/>
</a>
</g>
</g>
<!-- Node26 -->
<g id="Node000026" class="node">
<title>Node26</title>
<g id="a_Node000026"><a xlink:title=" ">
<polygon fill="#e0e0e0" stroke="#999999" points="1967.75,-103 1852,-103 1852,-69.5 1967.75,-69.5 1967.75,-103"/>
<text xml:space="preserve" text-anchor="start" x="1860" y="-89.5" font-family="Helvetica,sans-Serif" font-size="10.00">KSyntaxHighlighting</text>
<text xml:space="preserve" text-anchor="middle" x="1909.88" y="-76.75" font-family="Helvetica,sans-Serif" font-size="10.00">/SyntaxHighlighter</text>
</a>
</g>
</g>
<!-- Node1&#45;&gt;Node26 -->
<g id="edge27_Node000001_Node000026" class="edge">
<title>Node1&#45;&gt;Node26</title>
<g id="a_edge27_Node000001_Node000026"><a xlink:title=" ">
<path fill="none" stroke="#63b8ff" d="M995.09,-146.44C1180.93,-141.39 1659.19,-126.61 1840.29,-103.15"/>
<polygon fill="#63b8ff" stroke="#63b8ff" points="1840.59,-106.64 1850.03,-101.83 1839.65,-99.7 1840.59,-106.64"/>
</a>
</g>
</g>
<!-- Node3 -->
<g id="Node000003" class="node">
<title>Node3</title>
<g id="a_Node000003"><a xlink:title=" ">
<polygon fill="#e0e0e0" stroke="#999999" points="220.12,-27.12 133.62,-27.12 133.62,-6.38 220.12,-6.38 220.12,-27.12"/>
<text xml:space="preserve" text-anchor="middle" x="176.88" y="-13.62" font-family="Helvetica,sans-Serif" font-size="10.00">QPlainTextEdit</text>
</a>
</g>
</g>
<!-- Node2&#45;&gt;Node3 -->
<g id="edge2_Node000002_Node000003" class="edge">
<title>Node2&#45;&gt;Node3</title>
<g id="a_edge2_Node000002_Node000003"><a xlink:title=" ">
<path fill="none" stroke="#63b8ff" d="M149.46,-75.58C154.12,-65.75 161.47,-50.25 167.39,-37.77"/>
<polygon fill="#63b8ff" stroke="#63b8ff" points="170.53,-39.31 171.65,-28.77 164.2,-36.31 170.53,-39.31"/>
</a>
</g>
</g>
<!-- Node4 -->
<g id="Node000004" class="node">
<title>Node4</title>
<g id="a_Node000004"><a xlink:title=" ">
<polygon fill="#e0e0e0" stroke="#999999" points="289.88,-27.12 237.88,-27.12 237.88,-6.38 289.88,-6.38 289.88,-27.12"/>
<text xml:space="preserve" text-anchor="middle" x="263.88" y="-13.62" font-family="Helvetica,sans-Serif" font-size="10.00">QString</text>
</a>
</g>
</g>
<!-- Node2&#45;&gt;Node4 -->
<g id="edge3_Node000002_Node000004" class="edge">
<title>Node2&#45;&gt;Node4</title>
<g id="a_edge3_Node000002_Node000004"><a xlink:title=" ">
<path fill="none" stroke="#63b8ff" d="M162.18,-75.43C181.74,-64.34 213.85,-46.13 236.75,-33.13"/>
<polygon fill="#63b8ff" stroke="#63b8ff" points="238.26,-36.3 245.23,-28.32 234.81,-30.21 238.26,-36.3"/>
</a>
</g>
</g>
<!-- Node2&#45;&gt;Node5 -->
<g id="edge4_Node000002_Node000005" class="edge">
<title>Node2&#45;&gt;Node5</title>
<g id="a_edge4_Node000002_Node000005"><a xlink:title=" ">
<path fill="none" stroke="#63b8ff" d="M132.41,-75.58C120.71,-66.5 102.75,-52.56 87.39,-40.65"/>
<polygon fill="#63b8ff" stroke="#63b8ff" points="89.96,-38.21 79.91,-34.85 85.67,-43.74 89.96,-38.21"/>
</a>
</g>
</g>
<!-- Node6&#45;&gt;Node4 -->
<g id="edge6_Node000006_Node000004" class="edge">
<title>Node6&#45;&gt;Node4</title>
<g id="a_edge6_Node000006_Node000004"><a xlink:title=" ">
<path fill="none" stroke="#63b8ff" d="M263.88,-75.58C263.88,-65.96 263.88,-50.88 263.88,-38.54"/>
<polygon fill="#63b8ff" stroke="#63b8ff" points="267.38,-38.92 263.88,-28.92 260.38,-38.92 267.38,-38.92"/>
</a>
</g>
</g>
<!-- Node7&#45;&gt;Node4 -->
<g id="edge9_Node000007_Node000004" class="edge">
<title>Node7&#45;&gt;Node4</title>
<g id="a_edge9_Node000007_Node000004"><a xlink:title=" ">
<path fill="none" stroke="#63b8ff" d="M378.39,-75.43C356.06,-64.19 319.23,-45.63 293.38,-32.61"/>
<polygon fill="#63b8ff" stroke="#63b8ff" points="295.24,-29.63 284.73,-28.26 292.09,-35.88 295.24,-29.63"/>
</a>
</g>
</g>
<!-- Node8 -->
<g id="Node000008" class="node">
<title>Node8</title>
<g id="a_Node000008"><a xlink:title=" ">
<polygon fill="#e0e0e0" stroke="#999999" points="363.38,-27.12 308.38,-27.12 308.38,-6.38 363.38,-6.38 363.38,-27.12"/>
<text xml:space="preserve" text-anchor="middle" x="335.88" y="-13.62" font-family="Helvetica,sans-Serif" font-size="10.00">QObject</text>
</a>
</g>
</g>
<!-- Node7&#45;&gt;Node8 -->
<g id="edge8_Node000007_Node000008" class="edge">
<title>Node7&#45;&gt;Node8</title>
<g id="a_edge8_Node000007_Node000008"><a xlink:title=" ">
<path fill="none" stroke="#63b8ff" d="M388.99,-75.58C379.51,-65.25 364.26,-48.65 352.53,-35.88"/>
<polygon fill="#63b8ff" stroke="#63b8ff" points="355.11,-33.51 345.77,-28.52 349.95,-38.25 355.11,-33.51"/>
</a>
</g>
</g>
<!-- Node9 -->
<g id="Node000009" class="node">
<title>Node9</title>
<g id="a_Node000009"><a xlink:title=" ">
<polygon fill="#e0e0e0" stroke="#999999" points="450.5,-27.12 381.25,-27.12 381.25,-6.38 450.5,-6.38 450.5,-27.12"/>
<text xml:space="preserve" text-anchor="middle" x="415.88" y="-13.62" font-family="Helvetica,sans-Serif" font-size="10.00">QStringList</text>
</a>
</g>
</g>
<!-- Node7&#45;&gt;Node9 -->
<g id="edge10_Node000007_Node000009" class="edge">
<title>Node7&#45;&gt;Node9</title>
<g id="a_edge10_Node000007_Node000009"><a xlink:title=" ">
<path fill="none" stroke="#63b8ff" d="M400.45,-75.58C403.05,-65.85 407.12,-50.57 410.43,-38.15"/>
<polygon fill="#63b8ff" stroke="#63b8ff" points="413.72,-39.43 412.91,-28.87 406.95,-37.63 413.72,-39.43"/>
</a>
</g>
</g>
<!-- Node10 -->
<g id="Node000010" class="node">
<title>Node10</title>
<g id="a_Node000010"><a xlink:title=" ">
<polygon fill="#e0e0e0" stroke="#999999" points="525.5,-27.12 468.25,-27.12 468.25,-6.38 525.5,-6.38 525.5,-27.12"/>
<text xml:space="preserve" text-anchor="middle" x="496.88" y="-13.62" font-family="Helvetica,sans-Serif" font-size="10.00">memory</text>
</a>
</g>
</g>
<!-- Node7&#45;&gt;Node10 -->
<g id="edge11_Node000007_Node000010" class="edge">
<title>Node7&#45;&gt;Node10</title>
<g id="a_edge11_Node000007_Node000010"><a xlink:title=" ">
<path fill="none" stroke="#63b8ff" d="M412.06,-75.58C427.92,-64.76 453.88,-47.07 472.91,-34.09"/>
<polygon fill="#63b8ff" stroke="#63b8ff" points="474.85,-37 481.14,-28.48 470.91,-31.22 474.85,-37"/>
</a>
</g>
</g>
</g>
</svg>
