<?xml version="1.0" encoding="UTF-8" standalone="no"?>
<!DOCTYPE svg PUBLIC "-//W3C//DTD SVG 1.1//EN"
 "http://www.w3.org/Graphics/SVG/1.1/DTD/svg11.dtd">
<!-- Generated by graphviz version 14.1.2 (0)
 -->
<!-- Title: src/ui/editor/CodeEditor.hpp Pages: 1 -->
<svg width="298pt" height="98pt"
 viewBox="0.00 0.00 298.00 98.00" xmlns="http://www.w3.org/2000/svg" xmlns:xlink="http://www.w3.org/1999/xlink">

<svg id="main" version="1.1" xmlns="http://www.w3.org/2000/svg" xmlns:xlink="http://www.w3.org/1999/xlink" xml:space="preserve">

<style type="text/css"><![CDATA[
.node, .edge {opacity: 0.7;}
.node.selected, .edge.selected {opacity: 1;}
.edge:hover path { stroke: red; }
.edge:hover polygon { stroke: red; fill: red; }
]]></style>
<script type="application/ecmascript" xlink:href="svg.min.js"/>
<svg id="graph" class="graph">
<g id="graph0" class="graph" transform="scale(1 1) rotate(0) translate(4 94.25)">
<title>src/ui/editor/CodeEditor.hpp</title>
<!-- Node1 -->
<g id="Node000001" class="node">
<title>Node1</title>
<g id="a_Node000001"><a xlink:title=" ">
<polygon fill="#999999" stroke="#666666" points="205.38,-90.25 55.12,-90.25 55.12,-69.5 205.38,-69.5 205.38,-90.25"/>
<text xml:space="preserve" text-anchor="middle" x="130.25" y="-76.75" font-family="Helvetica,sans-Serif" font-size="10.00">src/ui/editor/CodeEditor.hpp</text>
</a>
</g>
</g>
<!-- Node2 -->
<g id="Node000002" class="node">
<title>Node2</title>
<g id="a_Node000002"><a xlink:title=" ">
<polygon fill="#e0e0e0" stroke="#999999" points="86.5,-27.12 0,-27.12 0,-6.38 86.5,-6.38 86.5,-27.12"/>
<text xml:space="preserve" text-anchor="middle" x="43.25" y="-13.62" font-family="Helvetica,sans-Serif" font-size="10.00">QPlainTextEdit</text>
</a>
</g>
</g>
<!-- Node1&#45;&gt;Node2 -->
<g id="edge1_Node000001_Node000002" class="edge">
<title>Node1&#45;&gt;Node2</title>
<g id="a_edge1_Node000001_Node000002"><a xlink:title=" ">
<path fill="none" stroke="#63b8ff" d="M116.27,-69.05C102.83,-59.61 82.26,-45.16 66.37,-34"/>
<polygon fill="#63b8ff" stroke="#63b8ff" points="68.63,-31.3 58.43,-28.42 64.6,-37.03 68.63,-31.3"/>
</a>
</g>
</g>
<!-- Node3 -->
<g id="Node000003" class="node">
<title>Node3</title>
<g id="a_Node000003"><a xlink:title=" ">
<polygon fill="#e0e0e0" stroke="#999999" points="156.25,-27.12 104.25,-27.12 104.25,-6.38 156.25,-6.38 156.25,-27.12"/>
<text xml:space="preserve" text-anchor="middle" x="130.25" y="-13.62" font-family="Helvetica,sans-Serif" font-size="10.00">QString</text>
</a>
</g>
</g>
<!-- Node1&#45;&gt;Node3 -->
<g id="edge2_Node000001_Node000003" class="edge">
<title>Node1&#45;&gt;Node3</title>
<g id="a_edge2_Node000001_Node000003"><a xlink:title=" ">
<path fill="none" stroke="#63b8ff" d="M130.25,-69.05C130.25,-60.9 130.25,-49.01 130.25,-38.73"/>
<polygon fill="#63b8ff" stroke="#63b8ff" points="133.75,-38.86 130.25,-28.86 126.75,-38.86 133.75,-38.86"/>
</a>
</g>
</g>
<!-- Node4 -->
<g id="Node000004" class="node">
<title>Node4</title>
<g id="a_Node000004"><a xlink:title=" ">
<polygon fill="#e0e0e0" stroke="#999999" points="290.12,-33.5 174.38,-33.5 174.38,0 290.12,0 290.12,-33.5"/>
<text xml:space="preserve" text-anchor="start" x="182.38" y="-20" font-family="Helvetica,sans-Serif" font-size="10.00">KSyntaxHighlighting</text>
<text xml:space="preserve" text-anchor="middle" x="232.25" y="-7.25" font-family="Helvetica,sans-Serif" font-size="10.00">/Theme</text>
</a>
</g>
</g>
<!-- Node1&#45;&gt;Node4 -->
<g id="edge3_Node000001_Node000004" class="edge">
<title>Node1&#45;&gt;Node4</title>
<g id="a_edge3_Node000001_Node000004"><a xlink:title=" ">
<path fill="none" stroke="#63b8ff" d="M146.64,-69.05C159.82,-61.16 178.84,-49.76 195.61,-39.71"/>
<polygon fill="#63b8ff" stroke="#63b8ff" points="197.08,-42.91 203.86,-34.76 193.48,-36.9 197.08,-42.91"/>
</a>
</g>
</g>
</g>
</svg>
</svg>

<style type='text/css'>
<![CDATA[
[data-mouse-over-selected='false'] { opacity: 0.7; }
[data-mouse-over-selected='true']  { opacity: 1.0; }
]]>
</style>
<script type="application/ecmascript"><![CDATA[
document.addEventListener('DOMContentLoaded', (event) => {
  highlightEdges();
  highlightAdjacentNodes();
});
]]></script>
</svg>
