<?xml version="1.0" encoding="UTF-8" standalone="no"?>
<!DOCTYPE svg PUBLIC "-//W3C//DTD SVG 1.1//EN"
 "http://www.w3.org/Graphics/SVG/1.1/DTD/svg11.dtd">
<!-- Generated by graphviz version 14.1.2 (0)
 -->
<!-- Title: src/ui/editor/CodeEditor.hpp Pages: 1 -->
<svg width="529pt" height="98pt"
 viewBox="0.00 0.00 529.00 98.00" xmlns="http://www.w3.org/2000/svg" xmlns:xlink="http://www.w3.org/1999/xlink">
<g id="graph0" class="graph" transform="scale(1 1) rotate(0) translate(4 94.25)">
<title>src/ui/editor/CodeEditor.hpp</title>
<!-- Node1 -->
<g id="Node000001" class="node">
<title>Node1</title>
<g id="a_Node000001"><a xlink:title=" ">
<polygon fill="#999999" stroke="#666666" points="310.5,-90.25 160.25,-90.25 160.25,-69.5 310.5,-69.5 310.5,-90.25"/>
<text xml:space="preserve" text-anchor="middle" x="235.38" y="-76.75" font-family="Helvetica,sans-Serif" font-size="10.00">src/ui/editor/CodeEditor.hpp</text>
</a>
</g>
</g>
<!-- Node2 -->
<g id="Node000002" class="node">
<title>Node2</title>
<g id="a_Node000002"><a xlink:href="FindReplaceDock_8cpp.html" target="_top" xlink:title=" ">
<polygon fill="white" stroke="#666666" points="142.75,-33.5 0,-33.5 0,0 142.75,0 142.75,-33.5"/>
<text xml:space="preserve" text-anchor="start" x="8" y="-20" font-family="Helvetica,sans-Serif" font-size="10.00">src/ui/dialogs/FindReplace</text>
<text xml:space="preserve" text-anchor="middle" x="71.38" y="-7.25" font-family="Helvetica,sans-Serif" font-size="10.00">Dock.cpp</text>
</a>
</g>
</g>
<!-- Node1&#45;&gt;Node2 -->
<g id="edge1_Node000001_Node000002" class="edge">
<title>Node1&#45;&gt;Node2</title>
<g id="a_edge1_Node000001_Node000002"><a xlink:title=" ">
<path fill="none" stroke="#63b8ff" d="M198.27,-65.04C173.53,-55.82 140.9,-43.66 114.93,-33.98"/>
<polygon fill="#63b8ff" stroke="#63b8ff" points="197.01,-68.31 207.61,-68.53 199.46,-61.75 197.01,-68.31"/>
</a>
</g>
</g>
<!-- Node3 -->
<g id="Node000003" class="node">
<title>Node3</title>
<g id="a_Node000003"><a xlink:href="CodeEditor_8cpp.html" target="_top" xlink:title=" ">
<polygon fill="white" stroke="#666666" points="310.12,-27.12 160.62,-27.12 160.62,-6.38 310.12,-6.38 310.12,-27.12"/>
<text xml:space="preserve" text-anchor="middle" x="235.38" y="-13.62" font-family="Helvetica,sans-Serif" font-size="10.00">src/ui/editor/CodeEditor.cpp</text>
</a>
</g>
</g>
<!-- Node1&#45;&gt;Node3 -->
<g id="edge2_Node000001_Node000003" class="edge">
<title>Node1&#45;&gt;Node3</title>
<g id="a_edge2_Node000001_Node000003"><a xlink:title=" ">
<path fill="none" stroke="#63b8ff" d="M235.38,-57.61C235.38,-47.3 235.38,-35.43 235.38,-27.34"/>
<polygon fill="#63b8ff" stroke="#63b8ff" points="231.88,-57.54 235.38,-67.54 238.88,-57.54 231.88,-57.54"/>
</a>
</g>
</g>
<!-- Node4 -->
<g id="Node000004" class="node">
<title>Node4</title>
<g id="a_Node000004"><a xlink:href="MainWindow_8cpp.html" target="_top" xlink:title=" ">
<polygon fill="white" stroke="#666666" points="520.88,-27.12 327.88,-27.12 327.88,-6.38 520.88,-6.38 520.88,-27.12"/>
<text xml:space="preserve" text-anchor="middle" x="424.38" y="-13.62" font-family="Helvetica,sans-Serif" font-size="10.00">src/ui/mainwindow/MainWindow.cpp</text>
</a>
</g>
</g>
<!-- Node1&#45;&gt;Node4 -->
<g id="edge3_Node000001_Node000004" class="edge">
<title>Node1&#45;&gt;Node4</title>
<g id="a_edge3_Node000001_Node000004"><a xlink:title=" ">
<path fill="none" stroke="#63b8ff" d="M276.68,-65.52C312.09,-54.06 362.29,-37.83 394.08,-27.55"/>
<polygon fill="#63b8ff" stroke="#63b8ff" points="275.62,-62.18 267.18,-68.59 277.77,-68.84 275.62,-62.18"/>
</a>
</g>
</g>
</g>
</svg>
