<?xml version="1.0" encoding="UTF-8" standalone="no"?>
<!DOCTYPE svg PUBLIC "-//W3C//DTD SVG 1.1//EN"
 "http://www.w3.org/Graphics/SVG/1.1/DTD/svg11.dtd">
<!-- Generated by graphviz version 14.1.2 (0)
 -->
<!-- Title: src/core/include/mo/core/Constants.hpp Pages: 1 -->
<svg width="814pt" height="111pt"
 viewBox="0.00 0.00 814.00 111.00" xmlns="http://www.w3.org/2000/svg" xmlns:xlink="http://www.w3.org/1999/xlink">
<g id="graph0" class="graph" transform="scale(1 1) rotate(0) translate(4 107)">
<title>src/core/include/mo/core/Constants.hpp</title>
<!-- Node1 -->
<g id="Node000001" class="node">
<title>Node1</title>
<g id="a_Node000001"><a xlink:title=" ">
<polygon fill="#999999" stroke="#666666" points="435,-103 322.25,-103 322.25,-69.5 435,-69.5 435,-103"/>
<text xml:space="preserve" text-anchor="start" x="330.25" y="-89.5" font-family="Helvetica,sans-Serif" font-size="10.00">src/core/include/mo</text>
<text xml:space="preserve" text-anchor="middle" x="378.62" y="-76.75" font-family="Helvetica,sans-Serif" font-size="10.00">/core/Constants.hpp</text>
</a>
</g>
</g>
<!-- Node2 -->
<g id="Node000002" class="node">
<title>Node2</title>
<g id="a_Node000002"><a xlink:href="Application_8cpp.html" target="_top" xlink:title=" ">
<polygon fill="white" stroke="#666666" points="129.25,-27.12 0,-27.12 0,-6.38 129.25,-6.38 129.25,-27.12"/>
<text xml:space="preserve" text-anchor="middle" x="64.62" y="-13.62" font-family="Helvetica,sans-Serif" font-size="10.00">src/app/Application.cpp</text>
</a>
</g>
</g>
<!-- Node1&#45;&gt;Node2 -->
<g id="edge1_Node000001_Node000002" class="edge">
<title>Node1&#45;&gt;Node2</title>
<g id="a_edge1_Node000001_Node000002"><a xlink:title=" ">
<path fill="none" stroke="#63b8ff" d="M310.77,-70.66C250.17,-57.64 163.06,-38.91 110.36,-27.58"/>
<polygon fill="#63b8ff" stroke="#63b8ff" points="309.77,-74.03 320.28,-72.71 311.24,-67.18 309.77,-74.03"/>
</a>
</g>
</g>
<!-- Node3 -->
<g id="Node000003" class="node">
<title>Node3</title>
<g id="a_Node000003"><a xlink:href="SingleInstance_8cpp.html" target="_top" xlink:title=" ">
<polygon fill="white" stroke="#666666" points="293.5,-27.12 147.75,-27.12 147.75,-6.38 293.5,-6.38 293.5,-27.12"/>
<text xml:space="preserve" text-anchor="middle" x="220.62" y="-13.62" font-family="Helvetica,sans-Serif" font-size="10.00">src/app/SingleInstance.cpp</text>
</a>
</g>
</g>
<!-- Node1&#45;&gt;Node3 -->
<g id="edge2_Node000001_Node000003" class="edge">
<title>Node1&#45;&gt;Node3</title>
<g id="a_edge2_Node000001_Node000003"><a xlink:title=" ">
<path fill="none" stroke="#63b8ff" d="M330.47,-64.68C301.58,-52.33 266.16,-37.2 243.5,-27.52"/>
<polygon fill="#63b8ff" stroke="#63b8ff" points="328.82,-67.78 339.39,-68.49 331.57,-61.34 328.82,-67.78"/>
</a>
</g>
</g>
<!-- Node4 -->
<g id="Node000004" class="node">
<title>Node4</title>
<g id="a_Node000004"><a xlink:href="Settings_8cpp.html" target="_top" xlink:title=" ">
<polygon fill="white" stroke="#666666" points="445.88,-27.12 311.38,-27.12 311.38,-6.38 445.88,-6.38 445.88,-27.12"/>
<text xml:space="preserve" text-anchor="middle" x="378.62" y="-13.62" font-family="Helvetica,sans-Serif" font-size="10.00">src/core/src/Settings.cpp</text>
</a>
</g>
</g>
<!-- Node1&#45;&gt;Node4 -->
<g id="edge3_Node000001_Node000004" class="edge">
<title>Node1&#45;&gt;Node4</title>
<g id="a_edge3_Node000001_Node000004"><a xlink:title=" ">
<path fill="none" stroke="#63b8ff" d="M378.62,-57.78C378.62,-47.08 378.62,-35.51 378.62,-27.57"/>
<polygon fill="#63b8ff" stroke="#63b8ff" points="375.13,-57.74 378.63,-67.74 382.13,-57.74 375.13,-57.74"/>
</a>
</g>
</g>
<!-- Node5 -->
<g id="Node000005" class="node">
<title>Node5</title>
<g id="a_Node000005"><a xlink:href="SessionManager_8cpp.html" target="_top" xlink:title=" ">
<polygon fill="white" stroke="#666666" points="595.38,-33.5 463.88,-33.5 463.88,0 595.38,0 595.38,-33.5"/>
<text xml:space="preserve" text-anchor="start" x="471.88" y="-20" font-family="Helvetica,sans-Serif" font-size="10.00">src/services/src/Session</text>
<text xml:space="preserve" text-anchor="middle" x="529.62" y="-7.25" font-family="Helvetica,sans-Serif" font-size="10.00">Manager.cpp</text>
</a>
</g>
</g>
<!-- Node1&#45;&gt;Node5 -->
<g id="edge4_Node000001_Node000005" class="edge">
<title>Node1&#45;&gt;Node5</title>
<g id="a_edge4_Node000001_Node000005"><a xlink:title=" ">
<path fill="none" stroke="#63b8ff" d="M425.23,-64.42C447.21,-54.59 473.03,-43.05 493.49,-33.9"/>
<polygon fill="#63b8ff" stroke="#63b8ff" points="423.88,-61.19 416.18,-68.46 426.73,-67.58 423.88,-61.19"/>
</a>
</g>
</g>
<!-- Node6 -->
<g id="Node000006" class="node">
<title>Node6</title>
<g id="a_Node000006"><a xlink:href="MainWindow_8cpp.html" target="_top" xlink:title=" ">
<polygon fill="white" stroke="#666666" points="806.12,-27.12 613.12,-27.12 613.12,-6.38 806.12,-6.38 806.12,-27.12"/>
<text xml:space="preserve" text-anchor="middle" x="709.62" y="-13.62" font-family="Helvetica,sans-Serif" font-size="10.00">src/ui/mainwindow/MainWindow.cpp</text>
</a>
</g>
</g>
<!-- Node1&#45;&gt;Node6 -->
<g id="edge5_Node000001_Node000006" class="edge">
<title>Node1&#45;&gt;Node6</title>
<g id="a_edge5_Node000001_Node000006"><a xlink:title=" ">
<path fill="none" stroke="#63b8ff" d="M446.33,-71.44C510.32,-58.39 604.73,-39.14 661.4,-27.58"/>
<polygon fill="#63b8ff" stroke="#63b8ff" points="445.73,-67.99 436.63,-73.42 447.13,-74.85 445.73,-67.99"/>
</a>
</g>
</g>
</g>
</svg>
