<?xml version="1.0" encoding="UTF-8" standalone="no"?>
<!DOCTYPE svg PUBLIC "-//W3C//DTD SVG 1.1//EN"
 "http://www.w3.org/Graphics/SVG/1.1/DTD/svg11.dtd">
<!-- Generated by graphviz version 14.1.2 (0)
 -->
<!-- Title: src/models/src/Document.cpp Pages: 1 -->
<svg width="505pt" height="142pt"
 viewBox="0.00 0.00 505.00 142.00" xmlns="http://www.w3.org/2000/svg" xmlns:xlink="http://www.w3.org/1999/xlink">
<g id="graph0" class="graph" transform="scale(1 1) rotate(0) translate(4 138.25)">
<title>src/models/src/Document.cpp</title>
<!-- Node1 -->
<g id="Node000001" class="node">
<title>Node1</title>
<g id="a_Node000001"><a xlink:title=" ">
<polygon fill="#999999" stroke="#666666" points="331.5,-134.25 171.5,-134.25 171.5,-113.5 331.5,-113.5 331.5,-134.25"/>
<text xml:space="preserve" text-anchor="middle" x="251.5" y="-120.75" font-family="Helvetica,sans-Serif" font-size="10.00">src/models/src/Document.cpp</text>
</a>
</g>
</g>
<!-- Node2 -->
<g id="Node000002" class="node">
<title>Node2</title>
<g id="a_Node000002"><a xlink:href="Document_8hpp.html" target="_top" xlink:title=" ">
<polygon fill="white" stroke="#666666" points="145,-77.5 0,-77.5 0,-56.75 145,-56.75 145,-77.5"/>
<text xml:space="preserve" text-anchor="middle" x="72.5" y="-64" font-family="Helvetica,sans-Serif" font-size="10.00">mo/models/Document.hpp</text>
</a>
</g>
</g>
<!-- Node1&#45;&gt;Node2 -->
<g id="edge1_Node000001_Node000002" class="edge">
<title>Node1&#45;&gt;Node2</title>
<g id="a_edge1_Node000001_Node000002"><a xlink:title=" ">
<path fill="none" stroke="#63b8ff" d="M219.5,-113.09C190.44,-104.2 147.37,-91.02 115.35,-81.23"/>
<polygon fill="#63b8ff" stroke="#63b8ff" points="116.56,-77.94 105.97,-78.36 114.51,-84.64 116.56,-77.94"/>
</a>
</g>
</g>
<!-- Node5 -->
<g id="Node000005" class="node">
<title>Node5</title>
<g id="a_Node000005"><a xlink:title=" ">
<polygon fill="#e0e0e0" stroke="#999999" points="203.88,-77.5 163.12,-77.5 163.12,-56.75 203.88,-56.75 203.88,-77.5"/>
<text xml:space="preserve" text-anchor="middle" x="183.5" y="-64" font-family="Helvetica,sans-Serif" font-size="10.00">QFile</text>
</a>
</g>
</g>
<!-- Node1&#45;&gt;Node5 -->
<g id="edge4_Node000001_Node000005" class="edge">
<title>Node1&#45;&gt;Node5</title>
<g id="a_edge4_Node000001_Node000005"><a xlink:title=" ">
<path fill="none" stroke="#63b8ff" d="M239.34,-113.09C229.67,-105.3 215.92,-94.22 204.48,-85.01"/>
<polygon fill="#63b8ff" stroke="#63b8ff" points="206.71,-82.32 196.73,-78.78 202.32,-87.78 206.71,-82.32"/>
</a>
</g>
</g>
<!-- Node6 -->
<g id="Node000006" class="node">
<title>Node6</title>
<g id="a_Node000006"><a xlink:title=" ">
<polygon fill="#e0e0e0" stroke="#999999" points="281.25,-77.5 221.75,-77.5 221.75,-56.75 281.25,-56.75 281.25,-77.5"/>
<text xml:space="preserve" text-anchor="middle" x="251.5" y="-64" font-family="Helvetica,sans-Serif" font-size="10.00">QFileInfo</text>
</a>
</g>
</g>
<!-- Node1&#45;&gt;Node6 -->
<g id="edge5_Node000001_Node000006" class="edge">
<title>Node1&#45;&gt;Node6</title>
<g id="a_edge5_Node000001_Node000006"><a xlink:title=" ">
<path fill="none" stroke="#63b8ff" d="M251.5,-113.09C251.5,-106.47 251.5,-97.47 251.5,-89.27"/>
<polygon fill="#63b8ff" stroke="#63b8ff" points="255,-89.34 251.5,-79.34 248,-89.34 255,-89.34"/>
</a>
</g>
</g>
<!-- Node7 -->
<g id="Node000007" class="node">
<title>Node7</title>
<g id="a_Node000007"><a xlink:title=" ">
<polygon fill="#e0e0e0" stroke="#999999" points="399.5,-77.5 299.5,-77.5 299.5,-56.75 399.5,-56.75 399.5,-77.5"/>
<text xml:space="preserve" text-anchor="middle" x="349.5" y="-64" font-family="Helvetica,sans-Serif" font-size="10.00">QStringConverter</text>
</a>
</g>
</g>
<!-- Node1&#45;&gt;Node7 -->
<g id="edge6_Node000001_Node000007" class="edge">
<title>Node1&#45;&gt;Node7</title>
<g id="a_edge6_Node000001_Node000007"><a xlink:title=" ">
<path fill="none" stroke="#63b8ff" d="M269.02,-113.09C283.79,-104.83 305.18,-92.88 322.2,-83.38"/>
<polygon fill="#63b8ff" stroke="#63b8ff" points="323.79,-86.5 330.81,-78.57 320.37,-80.39 323.79,-86.5"/>
</a>
</g>
</g>
<!-- Node8 -->
<g id="Node000008" class="node">
<title>Node8</title>
<g id="a_Node000008"><a xlink:title=" ">
<polygon fill="#e0e0e0" stroke="#999999" points="497,-77.5 418,-77.5 418,-56.75 497,-56.75 497,-77.5"/>
<text xml:space="preserve" text-anchor="middle" x="457.5" y="-64" font-family="Helvetica,sans-Serif" font-size="10.00">QTextStream</text>
</a>
</g>
</g>
<!-- Node1&#45;&gt;Node8 -->
<g id="edge7_Node000001_Node000008" class="edge">
<title>Node1&#45;&gt;Node8</title>
<g id="a_edge7_Node000001_Node000008"><a xlink:title=" ">
<path fill="none" stroke="#63b8ff" d="M288.33,-113.09C322.2,-104.08 372.64,-90.68 409.63,-80.85"/>
<polygon fill="#63b8ff" stroke="#63b8ff" points="410.42,-84.26 419.18,-78.31 408.62,-77.5 410.42,-84.26"/>
</a>
</g>
</g>
<!-- Node3 -->
<g id="Node000003" class="node">
<title>Node3</title>
<g id="a_Node000003"><a xlink:title=" ">
<polygon fill="#e0e0e0" stroke="#999999" points="64,-20.75 9,-20.75 9,0 64,0 64,-20.75"/>
<text xml:space="preserve" text-anchor="middle" x="36.5" y="-7.25" font-family="Helvetica,sans-Serif" font-size="10.00">QObject</text>
</a>
</g>
</g>
<!-- Node2&#45;&gt;Node3 -->
<g id="edge2_Node000002_Node000003" class="edge">
<title>Node2&#45;&gt;Node3</title>
<g id="a_edge2_Node000002_Node000003"><a xlink:title=" ">
<path fill="none" stroke="#63b8ff" d="M66.06,-56.34C61.35,-49.17 54.81,-39.23 49.08,-30.51"/>
<polygon fill="#63b8ff" stroke="#63b8ff" points="52.13,-28.78 43.71,-22.34 46.28,-32.62 52.13,-28.78"/>
</a>
</g>
</g>
<!-- Node4 -->
<g id="Node000004" class="node">
<title>Node4</title>
<g id="a_Node000004"><a xlink:title=" ">
<polygon fill="#e0e0e0" stroke="#999999" points="134.5,-20.75 82.5,-20.75 82.5,0 134.5,0 134.5,-20.75"/>
<text xml:space="preserve" text-anchor="middle" x="108.5" y="-7.25" font-family="Helvetica,sans-Serif" font-size="10.00">QString</text>
</a>
</g>
</g>
<!-- Node2&#45;&gt;Node4 -->
<g id="edge3_Node000002_Node000004" class="edge">
<title>Node2&#45;&gt;Node4</title>
<g id="a_edge3_Node000002_Node000004"><a xlink:title=" ">
<path fill="none" stroke="#63b8ff" d="M78.94,-56.34C83.65,-49.17 90.19,-39.23 95.92,-30.51"/>
<polygon fill="#63b8ff" stroke="#63b8ff" points="98.72,-32.62 101.29,-22.34 92.87,-28.78 98.72,-32.62"/>
</a>
</g>
</g>
</g>
</svg>
