<?xml version="1.0" encoding="UTF-8" standalone="no"?>
<!DOCTYPE svg PUBLIC "-//W3C//DTD SVG 1.1//EN"
 "http://www.w3.org/Graphics/SVG/1.1/DTD/svg11.dtd">
<!-- Generated by graphviz version 14.1.2 (0)
 -->
<!-- Title: src/services/src/EncodingDetector.cpp Pages: 1 -->
<svg width="324pt" height="155pt"
 viewBox="0.00 0.00 324.00 155.00" xmlns="http://www.w3.org/2000/svg" xmlns:xlink="http://www.w3.org/1999/xlink">
<g id="graph0" class="graph" transform="scale(1 1) rotate(0) translate(4 151)">
<title>src/services/src/EncodingDetector.cpp</title>
<!-- Node1 -->
<g id="Node000001" class="node">
<title>Node1</title>
<g id="a_Node000001"><a xlink:title=" ">
<polygon fill="#999999" stroke="#666666" points="244.5,-147 106.25,-147 106.25,-113.5 244.5,-113.5 244.5,-147"/>
<text xml:space="preserve" text-anchor="start" x="114.25" y="-133.5" font-family="Helvetica,sans-Serif" font-size="10.00">src/services/src/Encoding</text>
<text xml:space="preserve" text-anchor="middle" x="175.38" y="-120.75" font-family="Helvetica,sans-Serif" font-size="10.00">Detector.cpp</text>
</a>
</g>
</g>
<!-- Node2 -->
<g id="Node000002" class="node">
<title>Node2</title>
<g id="a_Node000002"><a xlink:href="EncodingDetector_8hpp.html" target="_top" xlink:title=" ">
<polygon fill="white" stroke="#666666" points="184.75,-77.5 0,-77.5 0,-56.75 184.75,-56.75 184.75,-77.5"/>
<text xml:space="preserve" text-anchor="middle" x="92.38" y="-64" font-family="Helvetica,sans-Serif" font-size="10.00">mo/services/EncodingDetector.hpp</text>
</a>
</g>
</g>
<!-- Node1&#45;&gt;Node2 -->
<g id="edge1_Node000001_Node000002" class="edge">
<title>Node1&#45;&gt;Node2</title>
<g id="a_edge1_Node000001_Node000002"><a xlink:title=" ">
<path fill="none" stroke="#63b8ff" d="M153.57,-113.19C141.59,-104.37 126.77,-93.45 114.71,-84.57"/>
<polygon fill="#63b8ff" stroke="#63b8ff" points="117.09,-81.98 106.96,-78.86 112.93,-87.61 117.09,-81.98"/>
</a>
</g>
</g>
<!-- Node5 -->
<g id="Node000005" class="node">
<title>Node5</title>
<g id="a_Node000005"><a xlink:title=" ">
<polygon fill="#e0e0e0" stroke="#999999" points="316.12,-77.5 202.62,-77.5 202.62,-56.75 316.12,-56.75 316.12,-77.5"/>
<text xml:space="preserve" text-anchor="middle" x="259.38" y="-64" font-family="Helvetica,sans-Serif" font-size="10.00">uchardet/uchardet.h</text>
</a>
</g>
</g>
<!-- Node1&#45;&gt;Node5 -->
<g id="edge4_Node000001_Node000005" class="edge">
<title>Node1&#45;&gt;Node5</title>
<g id="a_edge4_Node000001_Node000005"><a xlink:title=" ">
<path fill="none" stroke="#63b8ff" d="M197.45,-113.19C209.57,-104.37 224.57,-93.45 236.77,-84.57"/>
<polygon fill="#63b8ff" stroke="#63b8ff" points="238.6,-87.57 244.63,-78.86 234.48,-81.91 238.6,-87.57"/>
</a>
</g>
</g>
<!-- Node3 -->
<g id="Node000003" class="node">
<title>Node3</title>
<g id="a_Node000003"><a xlink:title=" ">
<polygon fill="#e0e0e0" stroke="#999999" points="88.5,-20.75 16.25,-20.75 16.25,0 88.5,0 88.5,-20.75"/>
<text xml:space="preserve" text-anchor="middle" x="52.38" y="-7.25" font-family="Helvetica,sans-Serif" font-size="10.00">QByteArray</text>
</a>
</g>
</g>
<!-- Node2&#45;&gt;Node3 -->
<g id="edge2_Node000002_Node000003" class="edge">
<title>Node2&#45;&gt;Node3</title>
<g id="a_edge2_Node000002_Node000003"><a xlink:title=" ">
<path fill="none" stroke="#63b8ff" d="M85.22,-56.34C79.93,-49.1 72.56,-39.01 66.15,-30.22"/>
<polygon fill="#63b8ff" stroke="#63b8ff" points="69.08,-28.31 60.36,-22.3 63.43,-32.44 69.08,-28.31"/>
</a>
</g>
</g>
<!-- Node4 -->
<g id="Node000004" class="node">
<title>Node4</title>
<g id="a_Node000004"><a xlink:title=" ">
<polygon fill="#e0e0e0" stroke="#999999" points="158.38,-20.75 106.38,-20.75 106.38,0 158.38,0 158.38,-20.75"/>
<text xml:space="preserve" text-anchor="middle" x="132.38" y="-7.25" font-family="Helvetica,sans-Serif" font-size="10.00">QString</text>
</a>
</g>
</g>
<!-- Node2&#45;&gt;Node4 -->
<g id="edge3_Node000002_Node000004" class="edge">
<title>Node2&#45;&gt;Node4</title>
<g id="a_edge3_Node000002_Node000004"><a xlink:title=" ">
<path fill="none" stroke="#63b8ff" d="M99.53,-56.34C104.82,-49.1 112.19,-39.01 118.6,-30.22"/>
<polygon fill="#63b8ff" stroke="#63b8ff" points="121.32,-32.44 124.39,-22.3 115.67,-28.31 121.32,-32.44"/>
</a>
</g>
</g>
</g>
</svg>
