<?xml version="1.0" encoding="UTF-8" standalone="no"?>
<!DOCTYPE svg PUBLIC "-//W3C//DTD SVG 1.1//EN"
 "http://www.w3.org/Graphics/SVG/1.1/DTD/svg11.dtd">
<!-- Generated by graphviz version 14.1.2 (0)
 -->
<!-- Title: src/services/src/FileService.cpp Pages: 1 -->
<svg width="647pt" height="142pt"
 viewBox="0.00 0.00 647.00 142.00" xmlns="http://www.w3.org/2000/svg" xmlns:xlink="http://www.w3.org/1999/xlink">
<g id="graph0" class="graph" transform="scale(1 1) rotate(0) translate(4 138.25)">
<title>src/services/src/FileService.cpp</title>
<!-- Node1 -->
<g id="Node000001" class="node">
<title>Node1</title>
<g id="a_Node000001"><a xlink:title=" ">
<polygon fill="#999999" stroke="#666666" points="439,-134.25 271.5,-134.25 271.5,-113.5 439,-113.5 439,-134.25"/>
<text xml:space="preserve" text-anchor="middle" x="355.25" y="-120.75" font-family="Helvetica,sans-Serif" font-size="10.00">src/services/src/FileService.cpp</text>
</a>
</g>
</g>
<!-- Node2 -->
<g id="Node000002" class="node">
<title>Node2</title>
<g id="a_Node000002"><a xlink:href="FileService_8hpp.html" target="_top" xlink:title=" ">
<polygon fill="white" stroke="#666666" points="152.5,-77.5 0,-77.5 0,-56.75 152.5,-56.75 152.5,-77.5"/>
<text xml:space="preserve" text-anchor="middle" x="76.25" y="-64" font-family="Helvetica,sans-Serif" font-size="10.00">mo/services/FileService.hpp</text>
</a>
</g>
</g>
<!-- Node1&#45;&gt;Node2 -->
<g id="edge1_Node000001_Node000002" class="edge">
<title>Node1&#45;&gt;Node2</title>
<g id="a_edge1_Node000001_Node000002"><a xlink:title=" ">
<path fill="none" stroke="#63b8ff" d="M305.05,-113.02C258.08,-103.81 187.82,-90.02 137.56,-80.16"/>
<polygon fill="#63b8ff" stroke="#63b8ff" points="138.49,-76.77 128,-78.28 137.14,-83.64 138.49,-76.77"/>
</a>
</g>
</g>
<!-- Node4 -->
<g id="Node000004" class="node">
<title>Node4</title>
<g id="a_Node000004"><a xlink:href="Logger_8hpp.html" target="_top" xlink:title=" ">
<polygon fill="white" stroke="#666666" points="282.25,-77.5 170.25,-77.5 170.25,-56.75 282.25,-56.75 282.25,-77.5"/>
<text xml:space="preserve" text-anchor="middle" x="226.25" y="-64" font-family="Helvetica,sans-Serif" font-size="10.00">mo/core/Logger.hpp</text>
</a>
</g>
</g>
<!-- Node1&#45;&gt;Node4 -->
<g id="edge3_Node000001_Node000004" class="edge">
<title>Node1&#45;&gt;Node4</title>
<g id="a_edge3_Node000001_Node000004"><a xlink:title=" ">
<path fill="none" stroke="#63b8ff" d="M332.19,-113.09C312.01,-104.52 282.45,-91.98 259.68,-82.31"/>
<polygon fill="#63b8ff" stroke="#63b8ff" points="261.08,-79.1 250.51,-78.42 258.34,-85.55 261.08,-79.1"/>
</a>
</g>
</g>
<!-- Node5 -->
<g id="Node000005" class="node">
<title>Node5</title>
<g id="a_Node000005"><a xlink:title=" ">
<polygon fill="#e0e0e0" stroke="#999999" points="340.62,-77.5 299.88,-77.5 299.88,-56.75 340.62,-56.75 340.62,-77.5"/>
<text xml:space="preserve" text-anchor="middle" x="320.25" y="-64" font-family="Helvetica,sans-Serif" font-size="10.00">QFile</text>
</a>
</g>
</g>
<!-- Node1&#45;&gt;Node5 -->
<g id="edge5_Node000001_Node000005" class="edge">
<title>Node1&#45;&gt;Node5</title>
<g id="a_edge5_Node000001_Node000005"><a xlink:title=" ">
<path fill="none" stroke="#63b8ff" d="M348.99,-113.09C344.41,-105.92 338.05,-95.98 332.48,-87.26"/>
<polygon fill="#63b8ff" stroke="#63b8ff" points="335.6,-85.64 327.27,-79.1 329.71,-89.41 335.6,-85.64"/>
</a>
</g>
</g>
<!-- Node6 -->
<g id="Node000006" class="node">
<title>Node6</title>
<g id="a_Node000006"><a xlink:title=" ">
<polygon fill="#e0e0e0" stroke="#999999" points="423.62,-77.5 358.88,-77.5 358.88,-56.75 423.62,-56.75 423.62,-77.5"/>
<text xml:space="preserve" text-anchor="middle" x="391.25" y="-64" font-family="Helvetica,sans-Serif" font-size="10.00">QSaveFile</text>
</a>
</g>
</g>
<!-- Node1&#45;&gt;Node6 -->
<g id="edge6_Node000001_Node000006" class="edge">
<title>Node1&#45;&gt;Node6</title>
<g id="a_edge6_Node000001_Node000006"><a xlink:title=" ">
<path fill="none" stroke="#63b8ff" d="M361.69,-113.09C366.4,-105.92 372.94,-95.98 378.67,-87.26"/>
<polygon fill="#63b8ff" stroke="#63b8ff" points="381.47,-89.37 384.04,-79.09 375.62,-85.53 381.47,-89.37"/>
</a>
</g>
</g>
<!-- Node7 -->
<g id="Node000007" class="node">
<title>Node7</title>
<g id="a_Node000007"><a xlink:title=" ">
<polygon fill="#e0e0e0" stroke="#999999" points="541.25,-77.5 441.25,-77.5 441.25,-56.75 541.25,-56.75 541.25,-77.5"/>
<text xml:space="preserve" text-anchor="middle" x="491.25" y="-64" font-family="Helvetica,sans-Serif" font-size="10.00">QStringConverter</text>
</a>
</g>
</g>
<!-- Node1&#45;&gt;Node7 -->
<g id="edge7_Node000001_Node000007" class="edge">
<title>Node1&#45;&gt;Node7</title>
<g id="a_edge7_Node000001_Node000007"><a xlink:title=" ">
<path fill="none" stroke="#63b8ff" d="M379.56,-113.09C401.03,-104.44 432.57,-91.75 456.66,-82.05"/>
<polygon fill="#63b8ff" stroke="#63b8ff" points="457.77,-85.38 465.74,-78.39 455.16,-78.88 457.77,-85.38"/>
</a>
</g>
</g>
<!-- Node8 -->
<g id="Node000008" class="node">
<title>Node8</title>
<g id="a_Node000008"><a xlink:title=" ">
<polygon fill="#e0e0e0" stroke="#999999" points="638.75,-77.5 559.75,-77.5 559.75,-56.75 638.75,-56.75 638.75,-77.5"/>
<text xml:space="preserve" text-anchor="middle" x="599.25" y="-64" font-family="Helvetica,sans-Serif" font-size="10.00">QTextStream</text>
</a>
</g>
</g>
<!-- Node1&#45;&gt;Node8 -->
<g id="edge8_Node000001_Node000008" class="edge">
<title>Node1&#45;&gt;Node8</title>
<g id="a_edge8_Node000001_Node000008"><a xlink:title=" ">
<path fill="none" stroke="#63b8ff" d="M399.15,-113.02C441.06,-103.62 504.17,-89.46 548.28,-79.56"/>
<polygon fill="#63b8ff" stroke="#63b8ff" points="548.87,-83.02 557.86,-77.41 547.34,-76.19 548.87,-83.02"/>
</a>
</g>
</g>
<!-- Node3 -->
<g id="Node000003" class="node">
<title>Node3</title>
<g id="a_Node000003"><a xlink:title=" ">
<polygon fill="#e0e0e0" stroke="#999999" points="177.25,-20.75 125.25,-20.75 125.25,0 177.25,0 177.25,-20.75"/>
<text xml:space="preserve" text-anchor="middle" x="151.25" y="-7.25" font-family="Helvetica,sans-Serif" font-size="10.00">QString</text>
</a>
</g>
</g>
<!-- Node2&#45;&gt;Node3 -->
<g id="edge2_Node000002_Node000003" class="edge">
<title>Node2&#45;&gt;Node3</title>
<g id="a_edge2_Node000002_Node000003"><a xlink:title=" ">
<path fill="none" stroke="#63b8ff" d="M89.66,-56.34C100.54,-48.4 116.11,-37.03 128.87,-27.71"/>
<polygon fill="#63b8ff" stroke="#63b8ff" points="130.72,-30.69 136.74,-21.97 126.59,-25.04 130.72,-30.69"/>
</a>
</g>
</g>
<!-- Node4&#45;&gt;Node3 -->
<g id="edge4_Node000004_Node000003" class="edge">
<title>Node4&#45;&gt;Node3</title>
<g id="a_edge4_Node000004_Node000003"><a xlink:title=" ">
<path fill="none" stroke="#63b8ff" d="M212.84,-56.34C201.96,-48.4 186.39,-37.03 173.63,-27.71"/>
<polygon fill="#63b8ff" stroke="#63b8ff" points="175.91,-25.04 165.76,-21.97 171.78,-30.69 175.91,-25.04"/>
</a>
</g>
</g>
</g>
</svg>
