<?xml version="1.0" encoding="UTF-8" standalone="no"?>
<!DOCTYPE svg PUBLIC "-//W3C//DTD SVG 1.1//EN"
 "http://www.w3.org/Graphics/SVG/1.1/DTD/svg11.dtd">
<!-- Generated by graphviz version 14.1.2 (0)
 -->
<!-- Title: src/ui/dialogs/FindReplaceDock.hpp Pages: 1 -->
<svg width="163pt" height="98pt"
 viewBox="0.00 0.00 163.00 98.00" xmlns="http://www.w3.org/2000/svg" xmlns:xlink="http://www.w3.org/1999/xlink">
<g id="graph0" class="graph" transform="scale(1 1) rotate(0) translate(4 94.25)">
<title>src/ui/dialogs/FindReplaceDock.hpp</title>
<!-- Node1 -->
<g id="Node000001" class="node">
<title>Node1</title>
<g id="a_Node000001"><a xlink:title=" ">
<polygon fill="#999999" stroke="#666666" points="154.75,-90.25 12,-90.25 12,-56.75 154.75,-56.75 154.75,-90.25"/>
<text xml:space="preserve" text-anchor="start" x="20" y="-76.75" font-family="Helvetica,sans-Serif" font-size="10.00">src/ui/dialogs/FindReplace</text>
<text xml:space="preserve" text-anchor="middle" x="83.38" y="-64" font-family="Helvetica,sans-Serif" font-size="10.00">Dock.hpp</text>
</a>
</g>
</g>
<!-- Node2 -->
<g id="Node000002" class="node">
<title>Node2</title>
<g id="a_Node000002"><a xlink:title=" ">
<polygon fill="#e0e0e0" stroke="#999999" points="82.75,-20.75 0,-20.75 0,0 82.75,0 82.75,-20.75"/>
<text xml:space="preserve" text-anchor="middle" x="41.38" y="-7.25" font-family="Helvetica,sans-Serif" font-size="10.00">QDockWidget</text>
</a>
</g>
</g>
<!-- Node1&#45;&gt;Node2 -->
<g id="edge1_Node000001_Node000002" class="edge">
<title>Node1&#45;&gt;Node2</title>
<g id="a_edge1_Node000001_Node000002"><a xlink:title=" ">
<path fill="none" stroke="#63b8ff" d="M72.34,-56.44C66.88,-48.49 60.25,-38.84 54.53,-30.52"/>
<polygon fill="#63b8ff" stroke="#63b8ff" points="57.54,-28.72 48.99,-22.46 51.77,-32.69 57.54,-28.72"/>
</a>
</g>
</g>
<!-- Node3 -->
<g id="Node000003" class="node">
<title>Node3</title>
<g id="a_Node000003"><a xlink:title=" ">
<polygon fill="#e0e0e0" stroke="#999999" points="152.38,-20.75 100.38,-20.75 100.38,0 152.38,0 152.38,-20.75"/>
<text xml:space="preserve" text-anchor="middle" x="126.38" y="-7.25" font-family="Helvetica,sans-Serif" font-size="10.00">QString</text>
</a>
</g>
</g>
<!-- Node1&#45;&gt;Node3 -->
<g id="edge2_Node000001_Node000003" class="edge">
<title>Node1&#45;&gt;Node3</title>
<g id="a_edge2_Node000001_Node000003"><a xlink:title=" ">
<path fill="none" stroke="#63b8ff" d="M94.67,-56.44C100.26,-48.49 107.05,-38.84 112.91,-30.52"/>
<polygon fill="#63b8ff" stroke="#63b8ff" points="115.69,-32.65 118.58,-22.45 109.96,-28.62 115.69,-32.65"/>
</a>
</g>
</g>
</g>
</svg>
