<?xml version="1.0" encoding="UTF-8" standalone="no"?>
<!DOCTYPE svg PUBLIC "-//W3C//DTD SVG 1.1//EN"
 "http://www.w3.org/Graphics/SVG/1.1/DTD/svg11.dtd">
<!-- Generated by graphviz version 14.1.2 (0)
 -->
<!-- Title: src/ui/dialogs/FindReplaceDock.cpp Pages: 1 -->
<svg width="987pt" height="168pt"
 viewBox="0.00 0.00 987.00 168.00" xmlns="http://www.w3.org/2000/svg" xmlns:xlink="http://www.w3.org/1999/xlink">
<g id="graph0" class="graph" transform="scale(1 1) rotate(0) translate(4 163.75)">
<title>src/ui/dialogs/FindReplaceDock.cpp</title>
<!-- Node1 -->
<g id="Node000001" class="node">
<title>Node1</title>
<g id="a_Node000001"><a xlink:title=" ">
<polygon fill="#999999" stroke="#666666" points="616.75,-159.75 474,-159.75 474,-126.25 616.75,-126.25 616.75,-159.75"/>
<text xml:space="preserve" text-anchor="start" x="482" y="-146.25" font-family="Helvetica,sans-Serif" font-size="10.00">src/ui/dialogs/FindReplace</text>
<text xml:space="preserve" text-anchor="middle" x="545.38" y="-133.5" font-family="Helvetica,sans-Serif" font-size="10.00">Dock.cpp</text>
</a>
</g>
</g>
<!-- Node2 -->
<g id="Node000002" class="node">
<title>Node2</title>
<g id="a_Node000002"><a xlink:href="FindReplaceDock_8hpp.html" target="_top" xlink:title=" ">
<polygon fill="white" stroke="#666666" points="134.88,-90.25 13.88,-90.25 13.88,-69.5 134.88,-69.5 134.88,-90.25"/>
<text xml:space="preserve" text-anchor="middle" x="74.38" y="-76.75" font-family="Helvetica,sans-Serif" font-size="10.00">FindReplaceDock.hpp</text>
</a>
</g>
</g>
<!-- Node1&#45;&gt;Node2 -->
<g id="edge1_Node000001_Node000002" class="edge">
<title>Node1&#45;&gt;Node2</title>
<g id="a_edge1_Node000001_Node000002"><a xlink:title=" ">
<path fill="none" stroke="#63b8ff" d="M473.65,-132.85C395.84,-122.9 267.61,-106.43 146.41,-90.51"/>
<polygon fill="#63b8ff" stroke="#63b8ff" points="146.95,-87.05 136.58,-89.22 146.04,-93.99 146.95,-87.05"/>
</a>
</g>
</g>
<!-- Node5 -->
<g id="Node000005" class="node">
<title>Node5</title>
<g id="a_Node000005"><a xlink:href="CodeEditor_8hpp.html" target="_top" xlink:title=" ">
<polygon fill="white" stroke="#666666" points="273.88,-90.25 152.88,-90.25 152.88,-69.5 273.88,-69.5 273.88,-90.25"/>
<text xml:space="preserve" text-anchor="middle" x="213.38" y="-76.75" font-family="Helvetica,sans-Serif" font-size="10.00">editor/CodeEditor.hpp</text>
</a>
</g>
</g>
<!-- Node1&#45;&gt;Node5 -->
<g id="edge4_Node000001_Node000005" class="edge">
<title>Node1&#45;&gt;Node5</title>
<g id="a_edge4_Node000001_Node000005"><a xlink:title=" ">
<path fill="none" stroke="#63b8ff" d="M473.74,-128.81C415.61,-118.11 334.34,-103.15 278.14,-92.8"/>
<polygon fill="#63b8ff" stroke="#63b8ff" points="278.85,-89.37 268.38,-91 277.58,-96.25 278.85,-89.37"/>
</a>
</g>
</g>
<!-- Node8 -->
<g id="Node000008" class="node">
<title>Node8</title>
<g id="a_Node000008"><a xlink:title=" ">
<polygon fill="#e0e0e0" stroke="#999999" points="364.5,-90.25 292.25,-90.25 292.25,-69.5 364.5,-69.5 364.5,-90.25"/>
<text xml:space="preserve" text-anchor="middle" x="328.38" y="-76.75" font-family="Helvetica,sans-Serif" font-size="10.00">QCheckBox</text>
</a>
</g>
</g>
<!-- Node1&#45;&gt;Node8 -->
<g id="edge8_Node000001_Node000008" class="edge">
<title>Node1&#45;&gt;Node8</title>
<g id="a_edge8_Node000001_Node000008"><a xlink:title=" ">
<path fill="none" stroke="#63b8ff" d="M487.79,-125.78C452.15,-115.74 407.01,-103.03 373.88,-93.69"/>
<polygon fill="#63b8ff" stroke="#63b8ff" points="375.16,-90.42 364.59,-91.08 373.26,-97.16 375.16,-90.42"/>
</a>
</g>
</g>
<!-- Node9 -->
<g id="Node000009" class="node">
<title>Node9</title>
<g id="a_Node000009"><a xlink:title=" ">
<polygon fill="#e0e0e0" stroke="#999999" points="465.75,-90.25 383,-90.25 383,-69.5 465.75,-69.5 465.75,-90.25"/>
<text xml:space="preserve" text-anchor="middle" x="424.38" y="-76.75" font-family="Helvetica,sans-Serif" font-size="10.00">QHBoxLayout</text>
</a>
</g>
</g>
<!-- Node1&#45;&gt;Node9 -->
<g id="edge9_Node000001_Node000009" class="edge">
<title>Node1&#45;&gt;Node9</title>
<g id="a_edge9_Node000001_Node000009"><a xlink:title=" ">
<path fill="none" stroke="#63b8ff" d="M513.27,-125.78C494.86,-116.48 471.92,-104.89 453.95,-95.81"/>
<polygon fill="#63b8ff" stroke="#63b8ff" points="455.61,-92.73 445.11,-91.35 452.45,-98.98 455.61,-92.73"/>
</a>
</g>
</g>
<!-- Node10 -->
<g id="Node000010" class="node">
<title>Node10</title>
<g id="a_Node000010"><a xlink:title=" ">
<polygon fill="#e0e0e0" stroke="#999999" points="533.25,-90.25 483.5,-90.25 483.5,-69.5 533.25,-69.5 533.25,-90.25"/>
<text xml:space="preserve" text-anchor="middle" x="508.38" y="-76.75" font-family="Helvetica,sans-Serif" font-size="10.00">QLabel</text>
</a>
</g>
</g>
<!-- Node1&#45;&gt;Node10 -->
<g id="edge10_Node000001_Node000010" class="edge">
<title>Node1&#45;&gt;Node10</title>
<g id="a_edge10_Node000001_Node000010"><a xlink:title=" ">
<path fill="none" stroke="#63b8ff" d="M535.65,-125.94C530.9,-118.08 525.13,-108.56 520.13,-100.29"/>
<polygon fill="#63b8ff" stroke="#63b8ff" points="523.29,-98.75 515.12,-92.01 517.3,-102.38 523.29,-98.75"/>
</a>
</g>
</g>
<!-- Node11 -->
<g id="Node000011" class="node">
<title>Node11</title>
<g id="a_Node000011"><a xlink:title=" ">
<polygon fill="#e0e0e0" stroke="#999999" points="613.62,-90.25 551.12,-90.25 551.12,-69.5 613.62,-69.5 613.62,-90.25"/>
<text xml:space="preserve" text-anchor="middle" x="582.38" y="-76.75" font-family="Helvetica,sans-Serif" font-size="10.00">QLineEdit</text>
</a>
</g>
</g>
<!-- Node1&#45;&gt;Node11 -->
<g id="edge11_Node000001_Node000011" class="edge">
<title>Node1&#45;&gt;Node11</title>
<g id="a_edge11_Node000001_Node000011"><a xlink:title=" ">
<path fill="none" stroke="#63b8ff" d="M555.1,-125.94C559.85,-118.08 565.62,-108.56 570.62,-100.29"/>
<polygon fill="#63b8ff" stroke="#63b8ff" points="573.45,-102.38 575.63,-92.01 567.46,-98.75 573.45,-102.38"/>
</a>
</g>
</g>
<!-- Node12 -->
<g id="Node000012" class="node">
<title>Node12</title>
<g id="a_Node000012"><a xlink:title=" ">
<polygon fill="#e0e0e0" stroke="#999999" points="710.88,-90.25 631.88,-90.25 631.88,-69.5 710.88,-69.5 710.88,-90.25"/>
<text xml:space="preserve" text-anchor="middle" x="671.38" y="-76.75" font-family="Helvetica,sans-Serif" font-size="10.00">QPushButton</text>
</a>
</g>
</g>
<!-- Node1&#45;&gt;Node12 -->
<g id="edge12_Node000001_Node000012" class="edge">
<title>Node1&#45;&gt;Node12</title>
<g id="a_edge12_Node000001_Node000012"><a xlink:title=" ">
<path fill="none" stroke="#63b8ff" d="M578.81,-125.78C598.07,-116.44 622.09,-104.78 640.84,-95.69"/>
<polygon fill="#63b8ff" stroke="#63b8ff" points="642.36,-98.84 649.83,-91.33 639.31,-92.54 642.36,-98.84"/>
</a>
</g>
</g>
<!-- Node13 -->
<g id="Node000013" class="node">
<title>Node13</title>
<g id="a_Node000013"><a xlink:title=" ">
<polygon fill="#e0e0e0" stroke="#999999" points="803.62,-90.25 729.12,-90.25 729.12,-69.5 803.62,-69.5 803.62,-90.25"/>
<text xml:space="preserve" text-anchor="middle" x="766.38" y="-76.75" font-family="Helvetica,sans-Serif" font-size="10.00">QTabWidget</text>
</a>
</g>
</g>
<!-- Node1&#45;&gt;Node13 -->
<g id="edge13_Node000001_Node000013" class="edge">
<title>Node1&#45;&gt;Node13</title>
<g id="a_edge13_Node000001_Node000013"><a xlink:title=" ">
<path fill="none" stroke="#63b8ff" d="M604.02,-125.78C640.32,-115.74 686.29,-103.03 720.03,-93.69"/>
<polygon fill="#63b8ff" stroke="#63b8ff" points="720.81,-97.11 729.52,-91.07 718.95,-90.36 720.81,-97.11"/>
</a>
</g>
</g>
<!-- Node14 -->
<g id="Node000014" class="node">
<title>Node14</title>
<g id="a_Node000014"><a xlink:title=" ">
<polygon fill="#e0e0e0" stroke="#999999" points="903.38,-90.25 821.38,-90.25 821.38,-69.5 903.38,-69.5 903.38,-90.25"/>
<text xml:space="preserve" text-anchor="middle" x="862.38" y="-76.75" font-family="Helvetica,sans-Serif" font-size="10.00">QVBoxLayout</text>
</a>
</g>
</g>
<!-- Node1&#45;&gt;Node14 -->
<g id="edge14_Node000001_Node000014" class="edge">
<title>Node1&#45;&gt;Node14</title>
<g id="a_edge14_Node000001_Node000014"><a xlink:title=" ">
<path fill="none" stroke="#63b8ff" d="M616.91,-128.21C675.6,-116.89 757.34,-101.13 810.06,-90.96"/>
<polygon fill="#63b8ff" stroke="#63b8ff" points="810.53,-94.44 819.69,-89.11 809.21,-87.56 810.53,-94.44"/>
</a>
</g>
</g>
<!-- Node15 -->
<g id="Node000015" class="node">
<title>Node15</title>
<g id="a_Node000015"><a xlink:title=" ">
<polygon fill="#e0e0e0" stroke="#999999" points="979.38,-90.25 921.38,-90.25 921.38,-69.5 979.38,-69.5 979.38,-90.25"/>
<text xml:space="preserve" text-anchor="middle" x="950.38" y="-76.75" font-family="Helvetica,sans-Serif" font-size="10.00">QWidget</text>
</a>
</g>
</g>
<!-- Node1&#45;&gt;Node15 -->
<g id="edge15_Node000001_Node000015" class="edge">
<title>Node1&#45;&gt;Node15</title>
<g id="a_edge15_Node000001_Node000015"><a xlink:title=" ">
<path fill="none" stroke="#63b8ff" d="M617.12,-134.07C688.89,-125.65 802.64,-110.96 909.95,-90.56"/>
<polygon fill="#63b8ff" stroke="#63b8ff" points="910.34,-94.05 919.5,-88.73 909.01,-87.18 910.34,-94.05"/>
</a>
</g>
</g>
<!-- Node3 -->
<g id="Node000003" class="node">
<title>Node3</title>
<g id="a_Node000003"><a xlink:title=" ">
<polygon fill="#e0e0e0" stroke="#999999" points="82.75,-27.12 0,-27.12 0,-6.38 82.75,-6.38 82.75,-27.12"/>
<text xml:space="preserve" text-anchor="middle" x="41.38" y="-13.62" font-family="Helvetica,sans-Serif" font-size="10.00">QDockWidget</text>
</a>
</g>
</g>
<!-- Node2&#45;&gt;Node3 -->
<g id="edge2_Node000002_Node000003" class="edge">
<title>Node2&#45;&gt;Node3</title>
<g id="a_edge2_Node000002_Node000003"><a xlink:title=" ">
<path fill="none" stroke="#63b8ff" d="M69.07,-69.05C64.48,-60.54 57.68,-47.95 51.97,-37.38"/>
<polygon fill="#63b8ff" stroke="#63b8ff" points="55.1,-35.81 47.27,-28.68 48.94,-39.14 55.1,-35.81"/>
</a>
</g>
</g>
<!-- Node4 -->
<g id="Node000004" class="node">
<title>Node4</title>
<g id="a_Node000004"><a xlink:title=" ">
<polygon fill="#e0e0e0" stroke="#999999" points="152.38,-27.12 100.38,-27.12 100.38,-6.38 152.38,-6.38 152.38,-27.12"/>
<text xml:space="preserve" text-anchor="middle" x="126.38" y="-13.62" font-family="Helvetica,sans-Serif" font-size="10.00">QString</text>
</a>
</g>
</g>
<!-- Node2&#45;&gt;Node4 -->
<g id="edge3_Node000002_Node000004" class="edge">
<title>Node2&#45;&gt;Node4</title>
<g id="a_edge3_Node000002_Node000004"><a xlink:title=" ">
<path fill="none" stroke="#63b8ff" d="M82.73,-69.05C90.28,-60.18 101.59,-46.89 110.8,-36.06"/>
<polygon fill="#63b8ff" stroke="#63b8ff" points="113.42,-38.38 117.23,-28.5 108.09,-33.85 113.42,-38.38"/>
</a>
</g>
</g>
<!-- Node5&#45;&gt;Node4 -->
<g id="edge6_Node000005_Node000004" class="edge">
<title>Node5&#45;&gt;Node4</title>
<g id="a_edge6_Node000005_Node000004"><a xlink:title=" ">
<path fill="none" stroke="#63b8ff" d="M199.4,-69.05C185.95,-59.61 165.38,-45.16 149.5,-34"/>
<polygon fill="#63b8ff" stroke="#63b8ff" points="151.75,-31.3 141.56,-28.42 147.73,-37.03 151.75,-31.3"/>
</a>
</g>
</g>
<!-- Node6 -->
<g id="Node000006" class="node">
<title>Node6</title>
<g id="a_Node000006"><a xlink:title=" ">
<polygon fill="#e0e0e0" stroke="#999999" points="256.62,-27.12 170.12,-27.12 170.12,-6.38 256.62,-6.38 256.62,-27.12"/>
<text xml:space="preserve" text-anchor="middle" x="213.38" y="-13.62" font-family="Helvetica,sans-Serif" font-size="10.00">QPlainTextEdit</text>
</a>
</g>
</g>
<!-- Node5&#45;&gt;Node6 -->
<g id="edge5_Node000005_Node000006" class="edge">
<title>Node5&#45;&gt;Node6</title>
<g id="a_edge5_Node000005_Node000006"><a xlink:title=" ">
<path fill="none" stroke="#63b8ff" d="M213.38,-69.05C213.38,-60.9 213.38,-49.01 213.38,-38.73"/>
<polygon fill="#63b8ff" stroke="#63b8ff" points="216.88,-38.86 213.38,-28.86 209.88,-38.86 216.88,-38.86"/>
</a>
</g>
</g>
<!-- Node7 -->
<g id="Node000007" class="node">
<title>Node7</title>
<g id="a_Node000007"><a xlink:title=" ">
<polygon fill="#e0e0e0" stroke="#999999" points="390.25,-33.5 274.5,-33.5 274.5,0 390.25,0 390.25,-33.5"/>
<text xml:space="preserve" text-anchor="start" x="282.5" y="-20" font-family="Helvetica,sans-Serif" font-size="10.00">KSyntaxHighlighting</text>
<text xml:space="preserve" text-anchor="middle" x="332.38" y="-7.25" font-family="Helvetica,sans-Serif" font-size="10.00">/Theme</text>
</a>
</g>
</g>
<!-- Node5&#45;&gt;Node7 -->
<g id="edge7_Node000005_Node000007" class="edge">
<title>Node5&#45;&gt;Node7</title>
<g id="a_edge7_Node000005_Node000007"><a xlink:title=" ">
<path fill="none" stroke="#63b8ff" d="M232.49,-69.05C248.16,-61.01 270.9,-49.33 290.72,-39.15"/>
<polygon fill="#63b8ff" stroke="#63b8ff" points="292.13,-42.36 299.42,-34.68 288.93,-36.13 292.13,-42.36"/>
</a>
</g>
</g>
</g>
</svg>
