<?xml version="1.0" encoding="UTF-8" standalone="no"?>
<!DOCTYPE svg PUBLIC "-//W3C//DTD SVG 1.1//EN"
 "http://www.w3.org/Graphics/SVG/1.1/DTD/svg11.dtd">
<!-- Generated by graphviz version 14.1.2 (0)
 -->
<!-- Title: Graphical Class Hierarchy Pages: 1 -->
<svg width="264pt" height="146pt"
 viewBox="0.00 0.00 264.00 146.00" xmlns="http://www.w3.org/2000/svg" xmlns:xlink="http://www.w3.org/1999/xlink">
<g id="graph0" class="graph" transform="scale(1 1) rotate(0) translate(4 141.75)">
<title>Graphical Class Hierarchy</title>
<!-- Node0 -->
<g id="Node000000" class="node">
<title>Node0</title>
<g id="a_Node000000"><a xlink:title=" ">
<polygon fill="#e0e0e0" stroke="#999999" points="55,-78.75 0,-78.75 0,-58 55,-58 55,-78.75"/>
<text xml:space="preserve" text-anchor="middle" x="27.5" y="-65.25" font-family="Helvetica,sans-Serif" font-size="10.00">QObject</text>
</a>
</g>
</g>
<!-- Node1 -->
<g id="Node000001" class="node">
<title>Node1</title>
<g id="a_Node000001"><a xlink:href="classmo_1_1app_1_1SingleInstance.html" target="_top" xlink:title=" ">
<polygon fill="white" stroke="#666666" points="239.75,-137.75 106.75,-137.75 106.75,-117 239.75,-117 239.75,-137.75"/>
<text xml:space="preserve" text-anchor="middle" x="173.25" y="-124.25" font-family="Helvetica,sans-Serif" font-size="10.00">mo::app::SingleInstance</text>
</a>
</g>
</g>
<!-- Node0&#45;&gt;Node1 -->
<g id="edge5_Node000000_Node000001" class="edge">
<title>Node0&#45;&gt;Node1</title>
<g id="a_edge5_Node000000_Node000001"><a xlink:title=" ">
<path fill="none" stroke="#63b8ff" d="M51.86,-85.43C63.21,-93.05 77.33,-101.6 91,-107.38 99.56,-110.99 108.93,-114.05 118.15,-116.6"/>
<polygon fill="#63b8ff" stroke="#63b8ff" points="54.14,-82.74 43.93,-79.92 50.15,-88.5 54.14,-82.74"/>
</a>
</g>
</g>
<!-- Node2 -->
<g id="Node000002" class="node">
<title>Node2</title>
<g id="a_Node000002"><a xlink:href="classmo_1_1core_1_1Settings.html" target="_top" xlink:title=" ">
<polygon fill="white" stroke="#666666" points="225.5,-98.75 121,-98.75 121,-78 225.5,-78 225.5,-98.75"/>
<text xml:space="preserve" text-anchor="middle" x="173.25" y="-85.25" font-family="Helvetica,sans-Serif" font-size="10.00">mo::core::Settings</text>
</a>
</g>
</g>
<!-- Node0&#45;&gt;Node2 -->
<g id="edge6_Node000000_Node000002" class="edge">
<title>Node0&#45;&gt;Node2</title>
<g id="a_edge6_Node000000_Node000002"><a xlink:title=" ">
<path fill="none" stroke="#63b8ff" d="M66.16,-73.61C82.81,-75.93 102.66,-78.69 120.66,-81.2"/>
<polygon fill="#63b8ff" stroke="#63b8ff" points="67.09,-70.21 56.7,-72.3 66.12,-77.14 67.09,-70.21"/>
</a>
</g>
</g>
<!-- Node3 -->
<g id="Node000003" class="node">
<title>Node3</title>
<g id="a_Node000003"><a xlink:href="classmo_1_1models_1_1Document.html" target="_top" xlink:title=" ">
<polygon fill="white" stroke="#666666" points="238.25,-59.75 108.25,-59.75 108.25,-39 238.25,-39 238.25,-59.75"/>
<text xml:space="preserve" text-anchor="middle" x="173.25" y="-46.25" font-family="Helvetica,sans-Serif" font-size="10.00">mo::models::Document</text>
</a>
</g>
</g>
<!-- Node0&#45;&gt;Node3 -->
<g id="edge7_Node000000_Node000003" class="edge">
<title>Node0&#45;&gt;Node3</title>
<g id="a_edge7_Node000000_Node000003"><a xlink:title=" ">
<path fill="none" stroke="#63b8ff" d="M66.3,-63.38C79.02,-61.7 93.59,-59.77 107.78,-57.9"/>
<polygon fill="#63b8ff" stroke="#63b8ff" points="66.16,-59.87 56.7,-64.65 67.07,-66.81 66.16,-59.87"/>
</a>
</g>
</g>
<!-- Node4 -->
<g id="Node000004" class="node">
<title>Node4</title>
<g id="a_Node000004"><a xlink:href="classmo_1_1services_1_1SessionManager.html" target="_top" xlink:title=" ">
<polygon fill="white" stroke="#666666" points="255.5,-20.75 91,-20.75 91,0 255.5,0 255.5,-20.75"/>
<text xml:space="preserve" text-anchor="middle" x="173.25" y="-7.25" font-family="Helvetica,sans-Serif" font-size="10.00">mo::services::SessionManager</text>
</a>
</g>
</g>
<!-- Node0&#45;&gt;Node4 -->
<g id="edge8_Node000000_Node000004" class="edge">
<title>Node0&#45;&gt;Node4</title>
<g id="a_edge8_Node000000_Node000004"><a xlink:title=" ">
<path fill="none" stroke="#63b8ff" d="M52.72,-51.27C63.94,-43.97 77.71,-35.9 91,-30.38 99.59,-26.81 108.96,-23.77 118.18,-21.23"/>
<polygon fill="#63b8ff" stroke="#63b8ff" points="50.83,-48.32 44.48,-56.8 54.73,-54.13 50.83,-48.32"/>
</a>
</g>
</g>
</g>
</svg>
