<?xml version="1.0" encoding="UTF-8" standalone="no"?>
<!DOCTYPE svg PUBLIC "-//W3C//DTD SVG 1.1//EN"
 "http://www.w3.org/Graphics/SVG/1.1/DTD/svg11.dtd">
<!-- Generated by graphviz version 14.1.2 (0)
 -->
<!-- Title: src/core/include/mo/core/Logger.hpp Pages: 1 -->
<svg width="1010pt" height="98pt"
 viewBox="0.00 0.00 1010.00 98.00" xmlns="http://www.w3.org/2000/svg" xmlns:xlink="http://www.w3.org/1999/xlink">
<g id="graph0" class="graph" transform="scale(1 1) rotate(0) translate(4 94.25)">
<title>src/core/include/mo/core/Logger.hpp</title>
<!-- Node1 -->
<g id="Node000001" class="node">
<title>Node1</title>
<g id="a_Node000001"><a xlink:title=" ">
<polygon fill="#999999" stroke="#666666" points="512.25,-90.25 401,-90.25 401,-56.75 512.25,-56.75 512.25,-90.25"/>
<text xml:space="preserve" text-anchor="start" x="409" y="-76.75" font-family="Helvetica,sans-Serif" font-size="10.00">src/core/include/mo</text>
<text xml:space="preserve" text-anchor="middle" x="456.62" y="-64" font-family="Helvetica,sans-Serif" font-size="10.00">/core/Logger.hpp</text>
</a>
</g>
</g>
<!-- Node2 -->
<g id="Node000002" class="node">
<title>Node2</title>
<g id="a_Node000002"><a xlink:href="Application_8cpp.html" target="_top" xlink:title=" ">
<polygon fill="white" stroke="#666666" points="129.25,-20.75 0,-20.75 0,0 129.25,0 129.25,-20.75"/>
<text xml:space="preserve" text-anchor="middle" x="64.62" y="-7.25" font-family="Helvetica,sans-Serif" font-size="10.00">src/app/Application.cpp</text>
</a>
</g>
</g>
<!-- Node1&#45;&gt;Node2 -->
<g id="edge1_Node000001_Node000002" class="edge">
<title>Node1&#45;&gt;Node2</title>
<g id="a_edge1_Node000001_Node000002"><a xlink:title=" ">
<path fill="none" stroke="#63b8ff" d="M389.93,-62.1C316.56,-50.66 199.52,-32.41 127.64,-21.2"/>
<polygon fill="#63b8ff" stroke="#63b8ff" points="388.96,-65.49 399.38,-63.57 390.04,-58.58 388.96,-65.49"/>
</a>
</g>
</g>
<!-- Node3 -->
<g id="Node000003" class="node">
<title>Node3</title>
<g id="a_Node000003"><a xlink:href="SingleInstance_8cpp.html" target="_top" xlink:title=" ">
<polygon fill="white" stroke="#666666" points="293.5,-20.75 147.75,-20.75 147.75,0 293.5,0 293.5,-20.75"/>
<text xml:space="preserve" text-anchor="middle" x="220.62" y="-7.25" font-family="Helvetica,sans-Serif" font-size="10.00">src/app/SingleInstance.cpp</text>
</a>
</g>
</g>
<!-- Node1&#45;&gt;Node3 -->
<g id="edge2_Node000001_Node000003" class="edge">
<title>Node1&#45;&gt;Node3</title>
<g id="a_edge2_Node000001_Node000003"><a xlink:title=" ">
<path fill="none" stroke="#63b8ff" d="M389.59,-55.14C347.12,-44.14 293.75,-30.31 258.48,-21.18"/>
<polygon fill="#63b8ff" stroke="#63b8ff" points="388.67,-58.52 399.23,-57.63 390.43,-51.74 388.67,-58.52"/>
</a>
</g>
</g>
<!-- Node4 -->
<g id="Node000004" class="node">
<title>Node4</title>
<g id="a_Node000004"><a xlink:href="Logger_8cpp.html" target="_top" xlink:title=" ">
<polygon fill="white" stroke="#666666" points="438.12,-20.75 311.12,-20.75 311.12,0 438.12,0 438.12,-20.75"/>
<text xml:space="preserve" text-anchor="middle" x="374.62" y="-7.25" font-family="Helvetica,sans-Serif" font-size="10.00">src/core/src/Logger.cpp</text>
</a>
</g>
</g>
<!-- Node1&#45;&gt;Node4 -->
<g id="edge3_Node000001_Node000004" class="edge">
<title>Node1&#45;&gt;Node4</title>
<g id="a_edge3_Node000001_Node000004"><a xlink:title=" ">
<path fill="none" stroke="#63b8ff" d="M425.86,-49.57C412.72,-39.77 398.08,-28.86 387.83,-21.22"/>
<polygon fill="#63b8ff" stroke="#63b8ff" points="423.76,-52.37 433.87,-55.54 427.94,-46.75 423.76,-52.37"/>
</a>
</g>
</g>
<!-- Node5 -->
<g id="Node000005" class="node">
<title>Node5</title>
<g id="a_Node000005"><a xlink:href="FileService_8cpp.html" target="_top" xlink:title=" ">
<polygon fill="white" stroke="#666666" points="623.38,-20.75 455.88,-20.75 455.88,0 623.38,0 623.38,-20.75"/>
<text xml:space="preserve" text-anchor="middle" x="539.62" y="-7.25" font-family="Helvetica,sans-Serif" font-size="10.00">src/services/src/FileService.cpp</text>
</a>
</g>
</g>
<!-- Node1&#45;&gt;Node5 -->
<g id="edge4_Node000001_Node000005" class="edge">
<title>Node1&#45;&gt;Node5</title>
<g id="a_edge4_Node000001_Node000005"><a xlink:title=" ">
<path fill="none" stroke="#63b8ff" d="M487.38,-49.85C500.78,-39.99 515.78,-28.94 526.26,-21.22"/>
<polygon fill="#63b8ff" stroke="#63b8ff" points="485.63,-46.79 479.65,-55.54 489.78,-52.43 485.63,-46.79"/>
</a>
</g>
</g>
<!-- Node6 -->
<g id="Node000006" class="node">
<title>Node6</title>
<g id="a_Node000006"><a xlink:href="CodeEditor_8cpp.html" target="_top" xlink:title=" ">
<polygon fill="white" stroke="#666666" points="791.38,-20.75 641.88,-20.75 641.88,0 791.38,0 791.38,-20.75"/>
<text xml:space="preserve" text-anchor="middle" x="716.62" y="-7.25" font-family="Helvetica,sans-Serif" font-size="10.00">src/ui/editor/CodeEditor.cpp</text>
</a>
</g>
</g>
<!-- Node1&#45;&gt;Node6 -->
<g id="edge5_Node000001_Node000006" class="edge">
<title>Node1&#45;&gt;Node6</title>
<g id="a_edge5_Node000001_Node000006"><a xlink:title=" ">
<path fill="none" stroke="#63b8ff" d="M523.88,-56.69C571.54,-45.48 634.01,-30.8 674.72,-21.23"/>
<polygon fill="#63b8ff" stroke="#63b8ff" points="523.13,-53.27 514.19,-58.97 524.73,-60.08 523.13,-53.27"/>
</a>
</g>
</g>
<!-- Node7 -->
<g id="Node000007" class="node">
<title>Node7</title>
<g id="a_Node000007"><a xlink:href="MainWindow_8cpp.html" target="_top" xlink:title=" ">
<polygon fill="white" stroke="#666666" points="1002.12,-20.75 809.12,-20.75 809.12,0 1002.12,0 1002.12,-20.75"/>
<text xml:space="preserve" text-anchor="middle" x="905.62" y="-7.25" font-family="Helvetica,sans-Serif" font-size="10.00">src/ui/mainwindow/MainWindow.cpp</text>
</a>
</g>
</g>
<!-- Node1&#45;&gt;Node7 -->
<g id="edge6_Node000001_Node000007" class="edge">
<title>Node1&#45;&gt;Node7</title>
<g id="a_edge6_Node000001_Node000007"><a xlink:title=" ">
<path fill="none" stroke="#63b8ff" d="M523.92,-63.34C607.06,-52.02 747.96,-32.84 833.34,-21.22"/>
<polygon fill="#63b8ff" stroke="#63b8ff" points="523.52,-59.86 514.08,-64.68 524.46,-66.8 523.52,-59.86"/>
</a>
</g>
</g>
</g>
</svg>
