<?xml version="1.0" encoding="UTF-8" standalone="no"?>
<!DOCTYPE svg PUBLIC "-//W3C//DTD SVG 1.1//EN"
 "http://www.w3.org/Graphics/SVG/1.1/DTD/svg11.dtd">
<!-- Generated by graphviz version 14.1.2 (0)
 -->
<!-- Title: src/ui/mainwindow/MainWindow.cpp Pages: 1 -->
<svg width="2469pt" height="155pt"
 viewBox="0.00 0.00 2469.00 155.00" xmlns="http://www.w3.org/2000/svg" xmlns:xlink="http://www.w3.org/1999/xlink">
<g id="graph0" class="graph" transform="scale(1 1) rotate(0) translate(4 151)">
<title>src/ui/mainwindow/MainWindow.cpp</title>
<!-- Node1 -->
<g id="Node000001" class="node">
<title>Node1</title>
<g id="a_Node000001"><a xlink:title=" ">
<polygon fill="#999999" stroke="#666666" points="1586.75,-147 1393.75,-147 1393.75,-126.25 1586.75,-126.25 1586.75,-147"/>
<text xml:space="preserve" text-anchor="middle" x="1490.25" y="-133.5" font-family="Helvetica,sans-Serif" font-size="10.00">src/ui/mainwindow/MainWindow.cpp</text>
</a>
</g>
</g>
<!-- Node2 -->
<g id="Node000002" class="node">
<title>Node2</title>
<g id="a_Node000002"><a xlink:href="MainWindow_8hpp.html" target="_top" xlink:title=" ">
<polygon fill="white" stroke="#666666" points="134.88,-90.25 35.62,-90.25 35.62,-69.5 134.88,-69.5 134.88,-90.25"/>
<text xml:space="preserve" text-anchor="middle" x="85.25" y="-76.75" font-family="Helvetica,sans-Serif" font-size="10.00">MainWindow.hpp</text>
</a>
</g>
</g>
<!-- Node1&#45;&gt;Node2 -->
<g id="edge1_Node000001_Node000002" class="edge">
<title>Node1&#45;&gt;Node2</title>
<g id="a_edge1_Node000001_Node000002"><a xlink:title=" ">
<path fill="none" stroke="#63b8ff" d="M1393.41,-133.96C1130.76,-129.18 407.64,-114.31 146.52,-90.43"/>
<polygon fill="#63b8ff" stroke="#63b8ff" points="146.98,-86.96 136.69,-89.5 146.32,-93.93 146.98,-86.96"/>
</a>
</g>
</g>
<!-- Node6 -->
<g id="Node000006" class="node">
<title>Node6</title>
<g id="a_Node000006"><a xlink:href="FindReplaceDock_8hpp.html" target="_top" xlink:title=" ">
<polygon fill="white" stroke="#666666" points="775.88,-90.25 616.62,-90.25 616.62,-69.5 775.88,-69.5 775.88,-90.25"/>
<text xml:space="preserve" text-anchor="middle" x="696.25" y="-76.75" font-family="Helvetica,sans-Serif" font-size="10.00">dialogs/FindReplaceDock.hpp</text>
</a>
</g>
</g>
<!-- Node1&#45;&gt;Node6 -->
<g id="edge5_Node000001_Node000006" class="edge">
<title>Node1&#45;&gt;Node6</title>
<g id="a_edge5_Node000001_Node000006"><a xlink:title=" ">
<path fill="none" stroke="#63b8ff" d="M1393.51,-130.65C1259.83,-123.49 1010.77,-109.15 787.57,-90.41"/>
<polygon fill="#63b8ff" stroke="#63b8ff" points="788.06,-86.94 777.8,-89.59 787.47,-93.92 788.06,-86.94"/>
</a>
</g>
</g>
<!-- Node9 -->
<g id="Node000009" class="node">
<title>Node9</title>
<g id="a_Node000009"><a xlink:href="SettingsDialog_8hpp.html" target="_top" xlink:title=" ">
<polygon fill="white" stroke="#666666" points="1079.5,-90.25 933,-90.25 933,-69.5 1079.5,-69.5 1079.5,-90.25"/>
<text xml:space="preserve" text-anchor="middle" x="1006.25" y="-76.75" font-family="Helvetica,sans-Serif" font-size="10.00">dialogs/SettingsDialog.hpp</text>
</a>
</g>
</g>
<!-- Node1&#45;&gt;Node9 -->
<g id="edge8_Node000001_Node000009" class="edge">
<title>Node1&#45;&gt;Node9</title>
<g id="a_edge8_Node000001_Node000009"><a xlink:title=" ">
<path fill="none" stroke="#63b8ff" d="M1403.16,-125.77C1314.77,-115.78 1178.82,-100.4 1091.21,-90.49"/>
<polygon fill="#63b8ff" stroke="#63b8ff" points="1091.81,-87.03 1081.48,-89.38 1091.02,-93.99 1091.81,-87.03"/>
</a>
</g>
</g>
<!-- Node11 -->
<g id="Node000011" class="node">
<title>Node11</title>
<g id="a_Node000011"><a xlink:href="CodeEditor_8hpp.html" target="_top" xlink:title=" ">
<polygon fill="white" stroke="#666666" points="914.75,-90.25 793.75,-90.25 793.75,-69.5 914.75,-69.5 914.75,-90.25"/>
<text xml:space="preserve" text-anchor="middle" x="854.25" y="-76.75" font-family="Helvetica,sans-Serif" font-size="10.00">editor/CodeEditor.hpp</text>
</a>
</g>
</g>
<!-- Node1&#45;&gt;Node11 -->
<g id="edge10_Node000001_Node000011" class="edge">
<title>Node1&#45;&gt;Node11</title>
<g id="a_edge10_Node000001_Node000011"><a xlink:title=" ">
<path fill="none" stroke="#63b8ff" d="M1393.46,-129.44C1283.07,-122.02 1096.89,-108.44 926.16,-90.4"/>
<polygon fill="#63b8ff" stroke="#63b8ff" points="926.75,-86.94 916.44,-89.36 926.01,-93.9 926.75,-86.94"/>
</a>
</g>
</g>
<!-- Node14 -->
<g id="Node000014" class="node">
<title>Node14</title>
<g id="a_Node000014"><a xlink:href="Constants_8hpp.html" target="_top" xlink:title=" ">
<polygon fill="white" stroke="#666666" points="1226.5,-90.25 1098,-90.25 1098,-69.5 1226.5,-69.5 1226.5,-90.25"/>
<text xml:space="preserve" text-anchor="middle" x="1162.25" y="-76.75" font-family="Helvetica,sans-Serif" font-size="10.00">mo/core/Constants.hpp</text>
</a>
</g>
</g>
<!-- Node1&#45;&gt;Node14 -->
<g id="edge14_Node000001_Node000014" class="edge">
<title>Node1&#45;&gt;Node14</title>
<g id="a_edge14_Node000001_Node000014"><a xlink:title=" ">
<path fill="none" stroke="#63b8ff" d="M1431.23,-125.77C1375.44,-116.46 1291.68,-102.48 1232.47,-92.6"/>
<polygon fill="#63b8ff" stroke="#63b8ff" points="1233.28,-89.18 1222.84,-90.99 1232.13,-96.09 1233.28,-89.18"/>
</a>
</g>
</g>
<!-- Node15 -->
<g id="Node000015" class="node">
<title>Node15</title>
<g id="a_Node000015"><a xlink:href="Logger_8hpp.html" target="_top" xlink:title=" ">
<polygon fill="white" stroke="#666666" points="598.25,-90.25 486.25,-90.25 486.25,-69.5 598.25,-69.5 598.25,-90.25"/>
<text xml:space="preserve" text-anchor="middle" x="542.25" y="-76.75" font-family="Helvetica,sans-Serif" font-size="10.00">mo/core/Logger.hpp</text>
</a>
</g>
</g>
<!-- Node1&#45;&gt;Node15 -->
<g id="edge15_Node000001_Node000015" class="edge">
<title>Node1&#45;&gt;Node15</title>
<g id="a_edge15_Node000001_Node000015"><a xlink:title=" ">
<path fill="none" stroke="#63b8ff" d="M1393.35,-133.56C1232.66,-129.48 900.74,-118.35 609.78,-90.41"/>
<polygon fill="#63b8ff" stroke="#63b8ff" points="610.38,-86.95 600.09,-89.47 609.7,-93.92 610.38,-86.95"/>
</a>
</g>
</g>
<!-- Node16 -->
<g id="Node000016" class="node">
<title>Node16</title>
<g id="a_Node000016"><a xlink:href="Settings_8hpp.html" target="_top" xlink:title=" ">
<polygon fill="white" stroke="#666666" points="272,-90.25 152.5,-90.25 152.5,-69.5 272,-69.5 272,-90.25"/>
<text xml:space="preserve" text-anchor="middle" x="212.25" y="-76.75" font-family="Helvetica,sans-Serif" font-size="10.00">mo/core/Settings.hpp</text>
</a>
</g>
</g>
<!-- Node1&#45;&gt;Node16 -->
<g id="edge17_Node000001_Node000016" class="edge">
<title>Node1&#45;&gt;Node16</title>
<g id="a_edge17_Node000001_Node000016"><a xlink:title=" ">
<path fill="none" stroke="#63b8ff" d="M1393.28,-135.19C1189.7,-133.58 702.66,-126.07 283.86,-90.39"/>
<polygon fill="#63b8ff" stroke="#63b8ff" points="284.19,-86.9 273.93,-89.53 283.59,-93.88 284.19,-86.9"/>
</a>
</g>
</g>
<!-- Node18 -->
<g id="Node000018" class="node">
<title>Node18</title>
<g id="a_Node000018"><a xlink:href="SessionManager_8hpp.html" target="_top" xlink:title=" ">
<polygon fill="white" stroke="#666666" points="468.62,-90.25 289.88,-90.25 289.88,-69.5 468.62,-69.5 468.62,-90.25"/>
<text xml:space="preserve" text-anchor="middle" x="379.25" y="-76.75" font-family="Helvetica,sans-Serif" font-size="10.00">mo/services/SessionManager.hpp</text>
</a>
</g>
</g>
<!-- Node1&#45;&gt;Node18 -->
<g id="edge22_Node000001_Node000018" class="edge">
<title>Node1&#45;&gt;Node18</title>
<g id="a_edge22_Node000001_Node000018"><a xlink:title=" ">
<path fill="none" stroke="#63b8ff" d="M1393.43,-132.92C1215.02,-127.58 822.08,-114.14 480.33,-90.43"/>
<polygon fill="#63b8ff" stroke="#63b8ff" points="480.69,-86.95 470.47,-89.75 480.2,-93.93 480.69,-86.95"/>
</a>
</g>
</g>
<!-- Node21 -->
<g id="Node000021" class="node">
<title>Node21</title>
<g id="a_Node000021"><a xlink:title=" ">
<polygon fill="#e0e0e0" stroke="#999999" points="1298.38,-90.25 1244.12,-90.25 1244.12,-69.5 1298.38,-69.5 1298.38,-90.25"/>
<text xml:space="preserve" text-anchor="middle" x="1271.25" y="-76.75" font-family="Helvetica,sans-Serif" font-size="10.00">QAction</text>
</a>
</g>
</g>
<!-- Node1&#45;&gt;Node21 -->
<g id="edge28_Node000001_Node000021" class="edge">
<title>Node1&#45;&gt;Node21</title>
<g id="a_edge28_Node000001_Node000021"><a xlink:title=" ">
<path fill="none" stroke="#63b8ff" d="M1449.87,-125.76C1415.16,-117.24 1363.47,-104.49 1309.86,-90.89"/>
<polygon fill="#63b8ff" stroke="#63b8ff" points="1310.78,-87.52 1300.23,-88.45 1309.06,-94.3 1310.78,-87.52"/>
</a>
</g>
</g>
<!-- Node22 -->
<g id="Node000022" class="node">
<title>Node22</title>
<g id="a_Node000022"><a xlink:title=" ">
<polygon fill="#e0e0e0" stroke="#999999" points="1394.38,-90.25 1316.12,-90.25 1316.12,-69.5 1394.38,-69.5 1394.38,-90.25"/>
<text xml:space="preserve" text-anchor="middle" x="1355.25" y="-76.75" font-family="Helvetica,sans-Serif" font-size="10.00">QApplication</text>
</a>
</g>
</g>
<!-- Node1&#45;&gt;Node22 -->
<g id="edge29_Node000001_Node000022" class="edge">
<title>Node1&#45;&gt;Node22</title>
<g id="a_edge29_Node000001_Node000022"><a xlink:title=" ">
<path fill="none" stroke="#63b8ff" d="M1466.11,-125.84C1444.81,-117.19 1413.5,-104.5 1389.58,-94.8"/>
<polygon fill="#63b8ff" stroke="#63b8ff" points="1391.16,-91.66 1380.58,-91.15 1388.53,-98.15 1391.16,-91.66"/>
</a>
</g>
</g>
<!-- Node23 -->
<g id="Node000023" class="node">
<title>Node23</title>
<g id="a_Node000023"><a xlink:title=" ">
<polygon fill="#e0e0e0" stroke="#999999" points="1490.38,-90.25 1412.12,-90.25 1412.12,-69.5 1490.38,-69.5 1490.38,-90.25"/>
<text xml:space="preserve" text-anchor="middle" x="1451.25" y="-76.75" font-family="Helvetica,sans-Serif" font-size="10.00">QCloseEvent</text>
</a>
</g>
</g>
<!-- Node1&#45;&gt;Node23 -->
<g id="edge30_Node000001_Node000023" class="edge">
<title>Node1&#45;&gt;Node23</title>
<g id="a_edge30_Node000001_Node000023"><a xlink:title=" ">
<path fill="none" stroke="#63b8ff" d="M1483.28,-125.84C1478.12,-118.6 1470.93,-108.51 1464.68,-99.72"/>
<polygon fill="#63b8ff" stroke="#63b8ff" points="1467.69,-97.93 1459.04,-91.81 1461.99,-101.99 1467.69,-97.93"/>
</a>
</g>
</g>
<!-- Node24 -->
<g id="Node000024" class="node">
<title>Node24</title>
<g id="a_Node000024"><a xlink:title=" ">
<polygon fill="#e0e0e0" stroke="#999999" points="1549.62,-90.25 1508.88,-90.25 1508.88,-69.5 1549.62,-69.5 1549.62,-90.25"/>
<text xml:space="preserve" text-anchor="middle" x="1529.25" y="-76.75" font-family="Helvetica,sans-Serif" font-size="10.00">QFile</text>
</a>
</g>
</g>
<!-- Node1&#45;&gt;Node24 -->
<g id="edge31_Node000001_Node000024" class="edge">
<title>Node1&#45;&gt;Node24</title>
<g id="a_edge31_Node000001_Node000024"><a xlink:title=" ">
<path fill="none" stroke="#63b8ff" d="M1497.22,-125.84C1502.38,-118.6 1509.57,-108.51 1515.82,-99.72"/>
<polygon fill="#63b8ff" stroke="#63b8ff" points="1518.51,-101.99 1521.46,-91.81 1512.81,-97.93 1518.51,-101.99"/>
</a>
</g>
</g>
<!-- Node25 -->
<g id="Node000025" class="node">
<title>Node25</title>
<g id="a_Node000025"><a xlink:title=" ">
<polygon fill="#e0e0e0" stroke="#999999" points="1640.38,-90.25 1568.12,-90.25 1568.12,-69.5 1640.38,-69.5 1640.38,-90.25"/>
<text xml:space="preserve" text-anchor="middle" x="1604.25" y="-76.75" font-family="Helvetica,sans-Serif" font-size="10.00">QFileDialog</text>
</a>
</g>
</g>
<!-- Node1&#45;&gt;Node25 -->
<g id="edge32_Node000001_Node000025" class="edge">
<title>Node1&#45;&gt;Node25</title>
<g id="a_edge32_Node000001_Node000025"><a xlink:title=" ">
<path fill="none" stroke="#63b8ff" d="M1510.63,-125.84C1528.22,-117.39 1553.88,-105.07 1573.88,-95.46"/>
<polygon fill="#63b8ff" stroke="#63b8ff" points="1575.18,-98.72 1582.68,-91.23 1572.15,-92.41 1575.18,-98.72"/>
</a>
</g>
</g>
<!-- Node26 -->
<g id="Node000026" class="node">
<title>Node26</title>
<g id="a_Node000026"><a xlink:title=" ">
<polygon fill="#e0e0e0" stroke="#999999" points="1718,-90.25 1658.5,-90.25 1658.5,-69.5 1718,-69.5 1718,-90.25"/>
<text xml:space="preserve" text-anchor="middle" x="1688.25" y="-76.75" font-family="Helvetica,sans-Serif" font-size="10.00">QFileInfo</text>
</a>
</g>
</g>
<!-- Node1&#45;&gt;Node26 -->
<g id="edge33_Node000001_Node000026" class="edge">
<title>Node1&#45;&gt;Node26</title>
<g id="a_edge33_Node000001_Node000026"><a xlink:title=" ">
<path fill="none" stroke="#63b8ff" d="M1525.65,-125.84C1559.67,-116.43 1611.08,-102.21 1646.96,-92.29"/>
<polygon fill="#63b8ff" stroke="#63b8ff" points="1647.85,-95.68 1656.56,-89.64 1645.99,-88.93 1647.85,-95.68"/>
</a>
</g>
</g>
<!-- Node27 -->
<g id="Node000027" class="node">
<title>Node27</title>
<g id="a_Node000027"><a xlink:title=" ">
<polygon fill="#e0e0e0" stroke="#999999" points="1852.88,-90.25 1735.62,-90.25 1735.62,-69.5 1852.88,-69.5 1852.88,-90.25"/>
<text xml:space="preserve" text-anchor="middle" x="1794.25" y="-76.75" font-family="Helvetica,sans-Serif" font-size="10.00">QFileSystemWatcher</text>
</a>
</g>
</g>
<!-- Node1&#45;&gt;Node27 -->
<g id="edge34_Node000001_Node000027" class="edge">
<title>Node1&#45;&gt;Node27</title>
<g id="a_edge34_Node000001_Node000027"><a xlink:title=" ">
<path fill="none" stroke="#63b8ff" d="M1544.95,-125.77C1596.45,-116.5 1673.65,-102.6 1728.48,-92.72"/>
<polygon fill="#63b8ff" stroke="#63b8ff" points="1728.77,-96.22 1737.99,-91.01 1727.53,-89.34 1728.77,-96.22"/>
</a>
</g>
</g>
<!-- Node28 -->
<g id="Node000028" class="node">
<title>Node28</title>
<g id="a_Node000028"><a xlink:title=" ">
<polygon fill="#e0e0e0" stroke="#999999" points="1915.12,-90.25 1871.38,-90.25 1871.38,-69.5 1915.12,-69.5 1915.12,-90.25"/>
<text xml:space="preserve" text-anchor="middle" x="1893.25" y="-76.75" font-family="Helvetica,sans-Serif" font-size="10.00">QIcon</text>
</a>
</g>
</g>
<!-- Node1&#45;&gt;Node28 -->
<g id="edge35_Node000001_Node000028" class="edge">
<title>Node1&#45;&gt;Node28</title>
<g id="a_edge35_Node000001_Node000028"><a xlink:title=" ">
<path fill="none" stroke="#63b8ff" d="M1586.96,-128.43C1659.75,-121.95 1762.06,-110.58 1860.02,-90.41"/>
<polygon fill="#63b8ff" stroke="#63b8ff" points="1860.47,-93.89 1869.54,-88.41 1859.03,-87.04 1860.47,-93.89"/>
</a>
</g>
</g>
<!-- Node29 -->
<g id="Node000029" class="node">
<title>Node29</title>
<g id="a_Node000029"><a xlink:title=" ">
<polygon fill="#e0e0e0" stroke="#999999" points="2021.62,-90.25 1932.88,-90.25 1932.88,-69.5 2021.62,-69.5 2021.62,-90.25"/>
<text xml:space="preserve" text-anchor="middle" x="1977.25" y="-76.75" font-family="Helvetica,sans-Serif" font-size="10.00">QKeySequence</text>
</a>
</g>
</g>
<!-- Node1&#45;&gt;Node29 -->
<g id="edge36_Node000001_Node000029" class="edge">
<title>Node1&#45;&gt;Node29</title>
<g id="a_edge36_Node000001_Node000029"><a xlink:title=" ">
<path fill="none" stroke="#63b8ff" d="M1587.02,-127.49C1672.46,-119.85 1800.67,-107.28 1921.2,-90.6"/>
<polygon fill="#63b8ff" stroke="#63b8ff" points="1921.55,-94.09 1930.97,-89.24 1920.58,-87.15 1921.55,-94.09"/>
</a>
</g>
</g>
<!-- Node30 -->
<g id="Node000030" class="node">
<title>Node30</title>
<g id="a_Node000030"><a xlink:title=" ">
<polygon fill="#e0e0e0" stroke="#999999" points="2106.75,-90.25 2039.75,-90.25 2039.75,-69.5 2106.75,-69.5 2106.75,-90.25"/>
<text xml:space="preserve" text-anchor="middle" x="2073.25" y="-76.75" font-family="Helvetica,sans-Serif" font-size="10.00">QMenuBar</text>
</a>
</g>
</g>
<!-- Node1&#45;&gt;Node30 -->
<g id="edge37_Node000001_Node000030" class="edge">
<title>Node1&#45;&gt;Node30</title>
<g id="a_edge37_Node000001_Node000030"><a xlink:title=" ">
<path fill="none" stroke="#63b8ff" d="M1586.77,-131.33C1692.72,-125.75 1867.96,-113.98 2028.49,-90.31"/>
<polygon fill="#63b8ff" stroke="#63b8ff" points="2028.66,-93.83 2038.03,-88.89 2027.62,-86.9 2028.66,-93.83"/>
</a>
</g>
</g>
<!-- Node31 -->
<g id="Node000031" class="node">
<title>Node31</title>
<g id="a_Node000031"><a xlink:title=" ">
<polygon fill="#e0e0e0" stroke="#999999" points="2210.12,-90.25 2124.38,-90.25 2124.38,-69.5 2210.12,-69.5 2210.12,-90.25"/>
<text xml:space="preserve" text-anchor="middle" x="2167.25" y="-76.75" font-family="Helvetica,sans-Serif" font-size="10.00">QMessageBox</text>
</a>
</g>
</g>
<!-- Node1&#45;&gt;Node31 -->
<g id="edge38_Node000001_Node000031" class="edge">
<title>Node1&#45;&gt;Node31</title>
<g id="a_edge38_Node000001_Node000031"><a xlink:title=" ">
<path fill="none" stroke="#63b8ff" d="M1587.09,-131.9C1707.98,-126.5 1921.27,-114.55 2112.5,-90.62"/>
<polygon fill="#63b8ff" stroke="#63b8ff" points="2112.91,-94.1 2122.4,-89.37 2112.03,-87.15 2112.91,-94.1"/>
</a>
</g>
</g>
<!-- Node32 -->
<g id="Node000032" class="node">
<title>Node32</title>
<g id="a_Node000032"><a xlink:title=" ">
<polygon fill="#e0e0e0" stroke="#999999" points="2302.5,-90.25 2228,-90.25 2228,-69.5 2302.5,-69.5 2302.5,-90.25"/>
<text xml:space="preserve" text-anchor="middle" x="2265.25" y="-76.75" font-family="Helvetica,sans-Serif" font-size="10.00">QTabWidget</text>
</a>
</g>
</g>
<!-- Node1&#45;&gt;Node32 -->
<g id="edge39_Node000001_Node000032" class="edge">
<title>Node1&#45;&gt;Node32</title>
<g id="a_edge39_Node000001_Node000032"><a xlink:title=" ">
<path fill="none" stroke="#63b8ff" d="M1587.07,-133.87C1724.84,-130.42 1985.5,-120.39 2216.35,-90.46"/>
<polygon fill="#63b8ff" stroke="#63b8ff" points="2216.71,-93.95 2226.17,-89.17 2215.8,-87.01 2216.71,-93.95"/>
</a>
</g>
</g>
<!-- Node33 -->
<g id="Node000033" class="node">
<title>Node33</title>
<g id="a_Node000033"><a xlink:title=" ">
<polygon fill="#e0e0e0" stroke="#999999" points="2380,-90.25 2320.5,-90.25 2320.5,-69.5 2380,-69.5 2380,-90.25"/>
<text xml:space="preserve" text-anchor="middle" x="2350.25" y="-76.75" font-family="Helvetica,sans-Serif" font-size="10.00">QToolBar</text>
</a>
</g>
</g>
<!-- Node1&#45;&gt;Node33 -->
<g id="edge40_Node000001_Node000033" class="edge">
<title>Node1&#45;&gt;Node33</title>
<g id="a_edge40_Node000001_Node000033"><a xlink:title=" ">
<path fill="none" stroke="#63b8ff" d="M1587.19,-135.92C1739.25,-135.12 2043.09,-128.51 2309.08,-90.29"/>
<polygon fill="#63b8ff" stroke="#63b8ff" points="2309.23,-93.81 2318.62,-88.9 2308.22,-86.88 2309.23,-93.81"/>
</a>
</g>
</g>
<!-- Node34 -->
<g id="Node000034" class="node">
<title>Node34</title>
<g id="a_Node000034"><a xlink:title=" ">
<polygon fill="#e0e0e0" stroke="#999999" points="2460.88,-90.25 2397.62,-90.25 2397.62,-69.5 2460.88,-69.5 2460.88,-90.25"/>
<text xml:space="preserve" text-anchor="middle" x="2429.25" y="-76.75" font-family="Helvetica,sans-Serif" font-size="10.00">algorithm</text>
</a>
</g>
</g>
<!-- Node1&#45;&gt;Node34 -->
<g id="edge41_Node000001_Node000034" class="edge">
<title>Node1&#45;&gt;Node34</title>
<g id="a_edge41_Node000001_Node000034"><a xlink:title=" ">
<path fill="none" stroke="#63b8ff" d="M1587.25,-136.42C1750.55,-136.51 2090.72,-131.31 2386.1,-90.46"/>
<polygon fill="#63b8ff" stroke="#63b8ff" points="2386.55,-93.93 2395.97,-89.08 2385.58,-87 2386.55,-93.93"/>
</a>
</g>
</g>
<!-- Node3 -->
<g id="Node000003" class="node">
<title>Node3</title>
<g id="a_Node000003"><a xlink:title=" ">
<polygon fill="#e0e0e0" stroke="#999999" points="86.5,-27.12 0,-27.12 0,-6.38 86.5,-6.38 86.5,-27.12"/>
<text xml:space="preserve" text-anchor="middle" x="43.25" y="-13.62" font-family="Helvetica,sans-Serif" font-size="10.00">QMainWindow</text>
</a>
</g>
</g>
<!-- Node2&#45;&gt;Node3 -->
<g id="edge2_Node000002_Node000003" class="edge">
<title>Node2&#45;&gt;Node3</title>
<g id="a_edge2_Node000002_Node000003"><a xlink:title=" ">
<path fill="none" stroke="#63b8ff" d="M78.5,-69.05C72.53,-60.36 63.64,-47.42 56.28,-36.72"/>
<polygon fill="#63b8ff" stroke="#63b8ff" points="59.25,-34.85 50.7,-28.59 53.48,-38.82 59.25,-34.85"/>
</a>
</g>
</g>
<!-- Node4 -->
<g id="Node000004" class="node">
<title>Node4</title>
<g id="a_Node000004"><a xlink:title=" ">
<polygon fill="#e0e0e0" stroke="#999999" points="248.88,-27.12 179.62,-27.12 179.62,-6.38 248.88,-6.38 248.88,-27.12"/>
<text xml:space="preserve" text-anchor="middle" x="214.25" y="-13.62" font-family="Helvetica,sans-Serif" font-size="10.00">QStringList</text>
</a>
</g>
</g>
<!-- Node2&#45;&gt;Node4 -->
<g id="edge3_Node000002_Node000004" class="edge">
<title>Node2&#45;&gt;Node4</title>
<g id="a_edge3_Node000002_Node000004"><a xlink:title=" ">
<path fill="none" stroke="#63b8ff" d="M105.98,-69.05C126.85,-59.16 159.31,-43.78 183.25,-32.44"/>
<polygon fill="#63b8ff" stroke="#63b8ff" points="184.67,-35.64 192.21,-28.19 181.67,-29.31 184.67,-35.64"/>
</a>
</g>
</g>
<!-- Node5 -->
<g id="Node000005" class="node">
<title>Node5</title>
<g id="a_Node000005"><a xlink:title=" ">
<polygon fill="#e0e0e0" stroke="#999999" points="161.88,-27.12 104.62,-27.12 104.62,-6.38 161.88,-6.38 161.88,-27.12"/>
<text xml:space="preserve" text-anchor="middle" x="133.25" y="-13.62" font-family="Helvetica,sans-Serif" font-size="10.00">memory</text>
</a>
</g>
</g>
<!-- Node2&#45;&gt;Node5 -->
<g id="edge4_Node000002_Node000005" class="edge">
<title>Node2&#45;&gt;Node5</title>
<g id="a_edge4_Node000002_Node000005"><a xlink:title=" ">
<path fill="none" stroke="#63b8ff" d="M92.96,-69.05C99.86,-60.27 110.16,-47.16 118.62,-36.39"/>
<polygon fill="#63b8ff" stroke="#63b8ff" points="121.36,-38.56 124.78,-28.54 115.85,-34.24 121.36,-38.56"/>
</a>
</g>
</g>
<!-- Node7 -->
<g id="Node000007" class="node">
<title>Node7</title>
<g id="a_Node000007"><a xlink:title=" ">
<polygon fill="#e0e0e0" stroke="#999999" points="729.62,-27.12 646.88,-27.12 646.88,-6.38 729.62,-6.38 729.62,-27.12"/>
<text xml:space="preserve" text-anchor="middle" x="688.25" y="-13.62" font-family="Helvetica,sans-Serif" font-size="10.00">QDockWidget</text>
</a>
</g>
</g>
<!-- Node6&#45;&gt;Node7 -->
<g id="edge6_Node000006_Node000007" class="edge">
<title>Node6&#45;&gt;Node7</title>
<g id="a_edge6_Node000006_Node000007"><a xlink:title=" ">
<path fill="none" stroke="#63b8ff" d="M694.96,-69.05C693.9,-60.9 692.34,-49.01 691,-38.73"/>
<polygon fill="#63b8ff" stroke="#63b8ff" points="694.47,-38.31 689.7,-28.85 687.53,-39.22 694.47,-38.31"/>
</a>
</g>
</g>
<!-- Node8 -->
<g id="Node000008" class="node">
<title>Node8</title>
<g id="a_Node000008"><a xlink:title=" ">
<polygon fill="#e0e0e0" stroke="#999999" points="568.25,-27.12 516.25,-27.12 516.25,-6.38 568.25,-6.38 568.25,-27.12"/>
<text xml:space="preserve" text-anchor="middle" x="542.25" y="-13.62" font-family="Helvetica,sans-Serif" font-size="10.00">QString</text>
</a>
</g>
</g>
<!-- Node6&#45;&gt;Node8 -->
<g id="edge7_Node000006_Node000008" class="edge">
<title>Node6&#45;&gt;Node8</title>
<g id="a_edge7_Node000006_Node000008"><a xlink:title=" ">
<path fill="none" stroke="#63b8ff" d="M671.51,-69.05C646.02,-58.94 606.08,-43.09 577.34,-31.68"/>
<polygon fill="#63b8ff" stroke="#63b8ff" points="578.92,-28.54 568.34,-28.1 576.34,-35.05 578.92,-28.54"/>
</a>
</g>
</g>
<!-- Node10 -->
<g id="Node000010" class="node">
<title>Node10</title>
<g id="a_Node000010"><a xlink:title=" ">
<polygon fill="#e0e0e0" stroke="#999999" points="1040.75,-27.12 985.75,-27.12 985.75,-6.38 1040.75,-6.38 1040.75,-27.12"/>
<text xml:space="preserve" text-anchor="middle" x="1013.25" y="-13.62" font-family="Helvetica,sans-Serif" font-size="10.00">QDialog</text>
</a>
</g>
</g>
<!-- Node9&#45;&gt;Node10 -->
<g id="edge9_Node000009_Node000010" class="edge">
<title>Node9&#45;&gt;Node10</title>
<g id="a_edge9_Node000009_Node000010"><a xlink:title=" ">
<path fill="none" stroke="#63b8ff" d="M1007.37,-69.05C1008.31,-60.9 1009.67,-49.01 1010.85,-38.73"/>
<polygon fill="#63b8ff" stroke="#63b8ff" points="1014.32,-39.18 1011.98,-28.85 1007.36,-38.39 1014.32,-39.18"/>
</a>
</g>
</g>
<!-- Node11&#45;&gt;Node8 -->
<g id="edge12_Node000011_Node000008" class="edge">
<title>Node11&#45;&gt;Node8</title>
<g id="a_edge12_Node000011_Node000008"><a xlink:title=" ">
<path fill="none" stroke="#63b8ff" d="M804.12,-69.05C741.56,-56.8 636,-36.12 579.91,-25.13"/>
<polygon fill="#63b8ff" stroke="#63b8ff" points="580.7,-21.72 570.21,-23.23 579.35,-28.59 580.7,-21.72"/>
</a>
</g>
</g>
<!-- Node12 -->
<g id="Node000012" class="node">
<title>Node12</title>
<g id="a_Node000012"><a xlink:title=" ">
<polygon fill="#e0e0e0" stroke="#999999" points="967.5,-27.12 881,-27.12 881,-6.38 967.5,-6.38 967.5,-27.12"/>
<text xml:space="preserve" text-anchor="middle" x="924.25" y="-13.62" font-family="Helvetica,sans-Serif" font-size="10.00">QPlainTextEdit</text>
</a>
</g>
</g>
<!-- Node11&#45;&gt;Node12 -->
<g id="edge11_Node000011_Node000012" class="edge">
<title>Node11&#45;&gt;Node12</title>
<g id="a_edge11_Node000011_Node000012"><a xlink:title=" ">
<path fill="none" stroke="#63b8ff" d="M865.5,-69.05C876.07,-59.82 892.12,-45.81 904.77,-34.76"/>
<polygon fill="#63b8ff" stroke="#63b8ff" points="906.89,-37.55 912.12,-28.34 902.29,-32.28 906.89,-37.55"/>
</a>
</g>
</g>
<!-- Node13 -->
<g id="Node000013" class="node">
<title>Node13</title>
<g id="a_Node000013"><a xlink:title=" ">
<polygon fill="#e0e0e0" stroke="#999999" points="863.12,-33.5 747.38,-33.5 747.38,0 863.12,0 863.12,-33.5"/>
<text xml:space="preserve" text-anchor="start" x="755.38" y="-20" font-family="Helvetica,sans-Serif" font-size="10.00">KSyntaxHighlighting</text>
<text xml:space="preserve" text-anchor="middle" x="805.25" y="-7.25" font-family="Helvetica,sans-Serif" font-size="10.00">/Theme</text>
</a>
</g>
</g>
<!-- Node11&#45;&gt;Node13 -->
<g id="edge13_Node000011_Node000013" class="edge">
<title>Node11&#45;&gt;Node13</title>
<g id="a_edge13_Node000011_Node000013"><a xlink:title=" ">
<path fill="none" stroke="#63b8ff" d="M846.38,-69.05C840.7,-61.97 832.76,-52.06 825.37,-42.84"/>
<polygon fill="#63b8ff" stroke="#63b8ff" points="828.2,-40.78 819.21,-35.17 822.74,-45.16 828.2,-40.78"/>
</a>
</g>
</g>
<!-- Node15&#45;&gt;Node8 -->
<g id="edge16_Node000015_Node000008" class="edge">
<title>Node15&#45;&gt;Node8</title>
<g id="a_edge16_Node000015_Node000008"><a xlink:title=" ">
<path fill="none" stroke="#63b8ff" d="M542.25,-69.05C542.25,-60.9 542.25,-49.01 542.25,-38.73"/>
<polygon fill="#63b8ff" stroke="#63b8ff" points="545.75,-38.86 542.25,-28.86 538.75,-38.86 545.75,-38.86"/>
</a>
</g>
</g>
<!-- Node16&#45;&gt;Node4 -->
<g id="edge20_Node000016_Node000004" class="edge">
<title>Node16&#45;&gt;Node4</title>
<g id="a_edge20_Node000016_Node000004"><a xlink:title=" ">
<path fill="none" stroke="#63b8ff" d="M212.57,-69.05C212.84,-60.9 213.23,-49.01 213.56,-38.73"/>
<polygon fill="#63b8ff" stroke="#63b8ff" points="217.06,-38.97 213.89,-28.86 210.06,-38.74 217.06,-38.97"/>
</a>
</g>
</g>
<!-- Node16&#45;&gt;Node5 -->
<g id="edge21_Node000016_Node000005" class="edge">
<title>Node16&#45;&gt;Node5</title>
<g id="a_edge21_Node000016_Node000005"><a xlink:title=" ">
<path fill="none" stroke="#63b8ff" d="M199.56,-69.05C187.46,-59.7 169.02,-45.43 154.66,-34.31"/>
<polygon fill="#63b8ff" stroke="#63b8ff" points="157.16,-31.82 147.11,-28.47 152.88,-37.36 157.16,-31.82"/>
</a>
</g>
</g>
<!-- Node16&#45;&gt;Node8 -->
<g id="edge19_Node000016_Node000008" class="edge">
<title>Node16&#45;&gt;Node8</title>
<g id="a_edge19_Node000016_Node000008"><a xlink:title=" ">
<path fill="none" stroke="#63b8ff" d="M272.26,-70.33C351.17,-58.98 482.39,-39.63 504.25,-33.5 506.36,-32.91 508.52,-32.23 510.67,-31.5"/>
<polygon fill="#63b8ff" stroke="#63b8ff" points="511.73,-34.84 519.85,-28.03 509.26,-28.29 511.73,-34.84"/>
</a>
</g>
</g>
<!-- Node17 -->
<g id="Node000017" class="node">
<title>Node17</title>
<g id="a_Node000017"><a xlink:title=" ">
<polygon fill="#e0e0e0" stroke="#999999" points="328.75,-27.12 273.75,-27.12 273.75,-6.38 328.75,-6.38 328.75,-27.12"/>
<text xml:space="preserve" text-anchor="middle" x="301.25" y="-13.62" font-family="Helvetica,sans-Serif" font-size="10.00">QObject</text>
</a>
</g>
</g>
<!-- Node16&#45;&gt;Node17 -->
<g id="edge18_Node000016_Node000017" class="edge">
<title>Node16&#45;&gt;Node17</title>
<g id="a_edge18_Node000016_Node000017"><a xlink:title=" ">
<path fill="none" stroke="#63b8ff" d="M226.55,-69.05C240.3,-59.61 261.34,-45.16 277.6,-34"/>
<polygon fill="#63b8ff" stroke="#63b8ff" points="279.48,-36.95 285.74,-28.4 275.51,-31.18 279.48,-36.95"/>
</a>
</g>
</g>
<!-- Node18&#45;&gt;Node4 -->
<g id="edge26_Node000018_Node000004" class="edge">
<title>Node18&#45;&gt;Node4</title>
<g id="a_edge26_Node000018_Node000004"><a xlink:title=" ">
<path fill="none" stroke="#63b8ff" d="M352.74,-69.05C325.32,-58.9 282.27,-42.95 251.44,-31.53"/>
<polygon fill="#63b8ff" stroke="#63b8ff" points="252.71,-28.26 242.11,-28.07 250.27,-34.83 252.71,-28.26"/>
</a>
</g>
</g>
<!-- Node18&#45;&gt;Node8 -->
<g id="edge25_Node000018_Node000008" class="edge">
<title>Node18&#45;&gt;Node8</title>
<g id="a_edge25_Node000018_Node000008"><a xlink:title=" ">
<path fill="none" stroke="#63b8ff" d="M407.19,-69.14C432.61,-60.18 471.11,-46.38 504.25,-33.5 505.6,-32.98 506.97,-32.44 508.36,-31.89"/>
<polygon fill="#63b8ff" stroke="#63b8ff" points="509.65,-35.14 517.6,-28.15 507.02,-28.65 509.65,-35.14"/>
</a>
</g>
</g>
<!-- Node18&#45;&gt;Node17 -->
<g id="edge24_Node000018_Node000017" class="edge">
<title>Node18&#45;&gt;Node17</title>
<g id="a_edge24_Node000018_Node000017"><a xlink:title=" ">
<path fill="none" stroke="#63b8ff" d="M366.72,-69.05C354.89,-59.79 336.92,-45.7 322.79,-34.63"/>
<polygon fill="#63b8ff" stroke="#63b8ff" points="324.97,-31.89 314.94,-28.48 320.65,-37.4 324.97,-31.89"/>
</a>
</g>
</g>
<!-- Node19 -->
<g id="Node000019" class="node">
<title>Node19</title>
<g id="a_Node000019"><a xlink:title=" ">
<polygon fill="#e0e0e0" stroke="#999999" points="495.38,-27.12 423.12,-27.12 423.12,-6.38 495.38,-6.38 495.38,-27.12"/>
<text xml:space="preserve" text-anchor="middle" x="459.25" y="-13.62" font-family="Helvetica,sans-Serif" font-size="10.00">QByteArray</text>
</a>
</g>
</g>
<!-- Node18&#45;&gt;Node19 -->
<g id="edge23_Node000018_Node000019" class="edge">
<title>Node18&#45;&gt;Node19</title>
<g id="a_edge23_Node000018_Node000019"><a xlink:title=" ">
<path fill="none" stroke="#63b8ff" d="M392.1,-69.05C404.35,-59.7 423.02,-45.43 437.57,-34.31"/>
<polygon fill="#63b8ff" stroke="#63b8ff" points="439.4,-37.32 445.23,-28.47 435.15,-31.76 439.4,-37.32"/>
</a>
</g>
</g>
<!-- Node20 -->
<g id="Node000020" class="node">
<title>Node20</title>
<g id="a_Node000020"><a xlink:title=" ">
<polygon fill="#e0e0e0" stroke="#999999" points="405.12,-27.12 349.38,-27.12 349.38,-6.38 405.12,-6.38 405.12,-27.12"/>
<text xml:space="preserve" text-anchor="middle" x="377.25" y="-13.62" font-family="Helvetica,sans-Serif" font-size="10.00">optional</text>
</a>
</g>
</g>
<!-- Node18&#45;&gt;Node20 -->
<g id="edge27_Node000018_Node000020" class="edge">
<title>Node18&#45;&gt;Node20</title>
<g id="a_edge27_Node000018_Node000020"><a xlink:title=" ">
<path fill="none" stroke="#63b8ff" d="M378.93,-69.05C378.66,-60.9 378.27,-49.01 377.94,-38.73"/>
<polygon fill="#63b8ff" stroke="#63b8ff" points="381.44,-38.74 377.61,-28.86 374.44,-38.97 381.44,-38.74"/>
</a>
</g>
</g>
</g>
</svg>
