<?xml version="1.0" encoding="UTF-8" standalone="no"?>
<!DOCTYPE svg PUBLIC "-//W3C//DTD SVG 1.1//EN"
 "http://www.w3.org/Graphics/SVG/1.1/DTD/svg11.dtd">
<!-- Generated by graphviz version 14.1.2 (0)
 -->
<!-- Title: src/ui/mainwindow/MainWindow.hpp Pages: 1 -->
<svg width="257pt" height="86pt"
 viewBox="0.00 0.00 257.00 86.00" xmlns="http://www.w3.org/2000/svg" xmlns:xlink="http://www.w3.org/1999/xlink">
<g id="graph0" class="graph" transform="scale(1 1) rotate(0) translate(4 81.5)">
<title>src/ui/mainwindow/MainWindow.hpp</title>
<!-- Node1 -->
<g id="Node000001" class="node">
<title>Node1</title>
<g id="a_Node000001"><a xlink:title=" ">
<polygon fill="#999999" stroke="#666666" points="236.12,-77.5 42.38,-77.5 42.38,-56.75 236.12,-56.75 236.12,-77.5"/>
<text xml:space="preserve" text-anchor="middle" x="139.25" y="-64" font-family="Helvetica,sans-Serif" font-size="10.00">src/ui/mainwindow/MainWindow.hpp</text>
</a>
</g>
</g>
<!-- Node2 -->
<g id="Node000002" class="node">
<title>Node2</title>
<g id="a_Node000002"><a xlink:title=" ">
<polygon fill="#e0e0e0" stroke="#999999" points="86.5,-20.75 0,-20.75 0,0 86.5,0 86.5,-20.75"/>
<text xml:space="preserve" text-anchor="middle" x="43.25" y="-7.25" font-family="Helvetica,sans-Serif" font-size="10.00">QMainWindow</text>
</a>
</g>
</g>
<!-- Node1&#45;&gt;Node2 -->
<g id="edge1_Node000001_Node000002" class="edge">
<title>Node1&#45;&gt;Node2</title>
<g id="a_edge1_Node000001_Node000002"><a xlink:title=" ">
<path fill="none" stroke="#63b8ff" d="M122.09,-56.34C107.62,-48.08 86.66,-36.13 69.99,-26.63"/>
<polygon fill="#63b8ff" stroke="#63b8ff" points="72,-23.74 61.58,-21.83 68.53,-29.82 72,-23.74"/>
</a>
</g>
</g>
<!-- Node3 -->
<g id="Node000003" class="node">
<title>Node3</title>
<g id="a_Node000003"><a xlink:title=" ">
<polygon fill="#e0e0e0" stroke="#999999" points="173.88,-20.75 104.62,-20.75 104.62,0 173.88,0 173.88,-20.75"/>
<text xml:space="preserve" text-anchor="middle" x="139.25" y="-7.25" font-family="Helvetica,sans-Serif" font-size="10.00">QStringList</text>
</a>
</g>
</g>
<!-- Node1&#45;&gt;Node3 -->
<g id="edge2_Node000001_Node000003" class="edge">
<title>Node1&#45;&gt;Node3</title>
<g id="a_edge2_Node000001_Node000003"><a xlink:title=" ">
<path fill="none" stroke="#63b8ff" d="M139.25,-56.34C139.25,-49.72 139.25,-40.72 139.25,-32.52"/>
<polygon fill="#63b8ff" stroke="#63b8ff" points="142.75,-32.59 139.25,-22.59 135.75,-32.59 142.75,-32.59"/>
</a>
</g>
</g>
<!-- Node4 -->
<g id="Node000004" class="node">
<title>Node4</title>
<g id="a_Node000004"><a xlink:title=" ">
<polygon fill="#e0e0e0" stroke="#999999" points="248.88,-20.75 191.62,-20.75 191.62,0 248.88,0 248.88,-20.75"/>
<text xml:space="preserve" text-anchor="middle" x="220.25" y="-7.25" font-family="Helvetica,sans-Serif" font-size="10.00">memory</text>
</a>
</g>
</g>
<!-- Node1&#45;&gt;Node4 -->
<g id="edge3_Node000001_Node000004" class="edge">
<title>Node1&#45;&gt;Node4</title>
<g id="a_edge3_Node000001_Node000004"><a xlink:title=" ">
<path fill="none" stroke="#63b8ff" d="M153.73,-56.34C165.6,-48.32 182.62,-36.81 196.48,-27.44"/>
<polygon fill="#63b8ff" stroke="#63b8ff" points="198.32,-30.43 204.64,-21.93 194.4,-24.63 198.32,-30.43"/>
</a>
</g>
</g>
</g>
</svg>
