<?xml version="1.0" encoding="UTF-8" standalone="no"?>
<!DOCTYPE svg PUBLIC "-//W3C//DTD SVG 1.1//EN"
 "http://www.w3.org/Graphics/SVG/1.1/DTD/svg11.dtd">
<!-- Generated by graphviz version 14.1.2 (0)
 -->
<!-- Title: src/services/include/mo/services/SessionManager.hpp Pages: 1 -->
<svg width="386pt" height="98pt"
 viewBox="0.00 0.00 386.00 98.00" xmlns="http://www.w3.org/2000/svg" xmlns:xlink="http://www.w3.org/1999/xlink">

<svg id="main" version="1.1" xmlns="http://www.w3.org/2000/svg" xmlns:xlink="http://www.w3.org/1999/xlink" xml:space="preserve">

<style type="text/css"><![CDATA[
.node, .edge {opacity: 0.7;}
.node.selected, .edge.selected {opacity: 1;}
.edge:hover path { stroke: red; }
.edge:hover polygon { stroke: red; fill: red; }
]]></style>
<script type="application/ecmascript" xlink:href="svg.min.js"/>
<svg id="graph" class="graph">
<g id="graph0" class="graph" transform="scale(1 1) rotate(0) translate(4 94.25)">
<title>src/services/include/mo/services/SessionManager.hpp</title>
<!-- Node1 -->
<g id="Node000001" class="node">
<title>Node1</title>
<g id="a_Node000001"><a xlink:title=" ">
<polygon fill="#999999" stroke="#666666" points="281,-90.25 99.25,-90.25 99.25,-56.75 281,-56.75 281,-90.25"/>
<text xml:space="preserve" text-anchor="start" x="107.25" y="-76.75" font-family="Helvetica,sans-Serif" font-size="10.00">src/services/include</text>
<text xml:space="preserve" text-anchor="middle" x="190.12" y="-64" font-family="Helvetica,sans-Serif" font-size="10.00">/mo/services/SessionManager.hpp</text>
</a>
</g>
</g>
<!-- Node2 -->
<g id="Node000002" class="node">
<title>Node2</title>
<g id="a_Node000002"><a xlink:title=" ">
<polygon fill="#e0e0e0" stroke="#999999" points="72.25,-20.75 0,-20.75 0,0 72.25,0 72.25,-20.75"/>
<text xml:space="preserve" text-anchor="middle" x="36.12" y="-7.25" font-family="Helvetica,sans-Serif" font-size="10.00">QByteArray</text>
</a>
</g>
</g>
<!-- Node1&#45;&gt;Node2 -->
<g id="edge1_Node000001_Node000002" class="edge">
<title>Node1&#45;&gt;Node2</title>
<g id="a_edge1_Node000001_Node000002"><a xlink:title=" ">
<path fill="none" stroke="#63b8ff" d="M149.26,-56.28C124.95,-46.63 94.43,-34.52 71.22,-25.3"/>
<polygon fill="#63b8ff" stroke="#63b8ff" points="72.78,-22.16 62.2,-21.72 70.2,-28.67 72.78,-22.16"/>
</a>
</g>
</g>
<!-- Node3 -->
<g id="Node000003" class="node">
<title>Node3</title>
<g id="a_Node000003"><a xlink:title=" ">
<polygon fill="#e0e0e0" stroke="#999999" points="145.62,-20.75 90.62,-20.75 90.62,0 145.62,0 145.62,-20.75"/>
<text xml:space="preserve" text-anchor="middle" x="118.12" y="-7.25" font-family="Helvetica,sans-Serif" font-size="10.00">QObject</text>
</a>
</g>
</g>
<!-- Node1&#45;&gt;Node3 -->
<g id="edge2_Node000001_Node000003" class="edge">
<title>Node1&#45;&gt;Node3</title>
<g id="a_edge2_Node000001_Node000003"><a xlink:title=" ">
<path fill="none" stroke="#63b8ff" d="M171.21,-56.44C161.13,-47.88 148.72,-37.35 138.44,-28.62"/>
<polygon fill="#63b8ff" stroke="#63b8ff" points="140.76,-26 130.87,-22.2 136.23,-31.34 140.76,-26"/>
</a>
</g>
</g>
<!-- Node4 -->
<g id="Node000004" class="node">
<title>Node4</title>
<g id="a_Node000004"><a xlink:title=" ">
<polygon fill="#e0e0e0" stroke="#999999" points="216.12,-20.75 164.12,-20.75 164.12,0 216.12,0 216.12,-20.75"/>
<text xml:space="preserve" text-anchor="middle" x="190.12" y="-7.25" font-family="Helvetica,sans-Serif" font-size="10.00">QString</text>
</a>
</g>
</g>
<!-- Node1&#45;&gt;Node4 -->
<g id="edge3_Node000001_Node000004" class="edge">
<title>Node1&#45;&gt;Node4</title>
<g id="a_edge3_Node000001_Node000004"><a xlink:title=" ">
<path fill="none" stroke="#63b8ff" d="M190.12,-56.44C190.12,-49.1 190.12,-40.32 190.12,-32.46"/>
<polygon fill="#63b8ff" stroke="#63b8ff" points="193.63,-32.73 190.13,-22.73 186.63,-32.73 193.63,-32.73"/>
</a>
</g>
</g>
<!-- Node5 -->
<g id="Node000005" class="node">
<title>Node5</title>
<g id="a_Node000005"><a xlink:title=" ">
<polygon fill="#e0e0e0" stroke="#999999" points="303.75,-20.75 234.5,-20.75 234.5,0 303.75,0 303.75,-20.75"/>
<text xml:space="preserve" text-anchor="middle" x="269.12" y="-7.25" font-family="Helvetica,sans-Serif" font-size="10.00">QStringList</text>
</a>
</g>
</g>
<!-- Node1&#45;&gt;Node5 -->
<g id="edge4_Node000001_Node000005" class="edge">
<title>Node1&#45;&gt;Node5</title>
<g id="a_edge4_Node000001_Node000005"><a xlink:title=" ">
<path fill="none" stroke="#63b8ff" d="M210.88,-56.44C222.17,-47.71 236.11,-36.92 247.53,-28.09"/>
<polygon fill="#63b8ff" stroke="#63b8ff" points="249.44,-31.03 255.21,-22.14 245.16,-25.49 249.44,-31.03"/>
</a>
</g>
</g>
<!-- Node6 -->
<g id="Node000006" class="node">
<title>Node6</title>
<g id="a_Node000006"><a xlink:title=" ">
<polygon fill="#e0e0e0" stroke="#999999" points="378,-20.75 322.25,-20.75 322.25,0 378,0 378,-20.75"/>
<text xml:space="preserve" text-anchor="middle" x="350.12" y="-7.25" font-family="Helvetica,sans-Serif" font-size="10.00">optional</text>
</a>
</g>
</g>
<!-- Node1&#45;&gt;Node6 -->
<g id="edge5_Node000001_Node000006" class="edge">
<title>Node1&#45;&gt;Node6</title>
<g id="a_edge5_Node000001_Node000006"><a xlink:title=" ">
<path fill="none" stroke="#63b8ff" d="M232.58,-56.28C257.95,-46.59 289.84,-34.41 313.99,-25.18"/>
<polygon fill="#63b8ff" stroke="#63b8ff" points="314.99,-28.54 323.08,-21.71 312.49,-22 314.99,-28.54"/>
</a>
</g>
</g>
</g>
</svg>
</svg>

<style type='text/css'>
<![CDATA[
[data-mouse-over-selected='false'] { opacity: 0.7; }
[data-mouse-over-selected='true']  { opacity: 1.0; }
]]>
</style>
<script type="application/ecmascript"><![CDATA[
document.addEventListener('DOMContentLoaded', (event) => {
  highlightEdges();
  highlightAdjacentNodes();
});
]]></script>
</svg>
