<?xml version="1.0" encoding="UTF-8" standalone="no"?>
<!DOCTYPE svg PUBLIC "-//W3C//DTD SVG 1.1//EN"
 "http://www.w3.org/Graphics/SVG/1.1/DTD/svg11.dtd">
<!-- Generated by graphviz version 14.1.2 (0)
 -->
<!-- Title: src/services/src/SessionManager.cpp Pages: 1 -->
<svg width="683pt" height="155pt"
 viewBox="0.00 0.00 683.00 155.00" xmlns="http://www.w3.org/2000/svg" xmlns:xlink="http://www.w3.org/1999/xlink">
<g id="graph0" class="graph" transform="scale(1 1) rotate(0) translate(4 151)">
<title>src/services/src/SessionManager.cpp</title>
<!-- Node1 -->
<g id="Node000001" class="node">
<title>Node1</title>
<g id="a_Node000001"><a xlink:title=" ">
<polygon fill="#999999" stroke="#666666" points="528.88,-147 397.38,-147 397.38,-113.5 528.88,-113.5 528.88,-147"/>
<text xml:space="preserve" text-anchor="start" x="405.38" y="-133.5" font-family="Helvetica,sans-Serif" font-size="10.00">src/services/src/Session</text>
<text xml:space="preserve" text-anchor="middle" x="463.12" y="-120.75" font-family="Helvetica,sans-Serif" font-size="10.00">Manager.cpp</text>
</a>
</g>
</g>
<!-- Node2 -->
<g id="Node000002" class="node">
<title>Node2</title>
<g id="a_Node000002"><a xlink:href="SessionManager_8hpp.html" target="_top" xlink:title=" ">
<polygon fill="white" stroke="#666666" points="279.5,-77.5 100.75,-77.5 100.75,-56.75 279.5,-56.75 279.5,-77.5"/>
<text xml:space="preserve" text-anchor="middle" x="190.12" y="-64" font-family="Helvetica,sans-Serif" font-size="10.00">mo/services/SessionManager.hpp</text>
</a>
</g>
</g>
<!-- Node1&#45;&gt;Node2 -->
<g id="edge1_Node000001_Node000002" class="edge">
<title>Node1&#45;&gt;Node2</title>
<g id="a_edge1_Node000001_Node000002"><a xlink:title=" ">
<path fill="none" stroke="#63b8ff" d="M397.04,-114.45C350.44,-104.02 288.77,-90.21 244.91,-80.39"/>
<polygon fill="#63b8ff" stroke="#63b8ff" points="245.88,-77.02 235.36,-78.25 244.35,-83.85 245.88,-77.02"/>
</a>
</g>
</g>
<!-- Node8 -->
<g id="Node000008" class="node">
<title>Node8</title>
<g id="a_Node000008"><a xlink:href="Constants_8hpp.html" target="_top" xlink:title=" ">
<polygon fill="white" stroke="#666666" points="426.38,-77.5 297.88,-77.5 297.88,-56.75 426.38,-56.75 426.38,-77.5"/>
<text xml:space="preserve" text-anchor="middle" x="362.12" y="-64" font-family="Helvetica,sans-Serif" font-size="10.00">mo/core/Constants.hpp</text>
</a>
</g>
</g>
<!-- Node1&#45;&gt;Node8 -->
<g id="edge7_Node000001_Node000008" class="edge">
<title>Node1&#45;&gt;Node8</title>
<g id="a_edge7_Node000001_Node000008"><a xlink:title=" ">
<path fill="none" stroke="#63b8ff" d="M436.32,-113.03C421.32,-103.95 402.7,-92.68 387.87,-83.71"/>
<polygon fill="#63b8ff" stroke="#63b8ff" points="389.96,-80.88 379.6,-78.7 386.34,-86.87 389.96,-80.88"/>
</a>
</g>
</g>
<!-- Node9 -->
<g id="Node000009" class="node">
<title>Node9</title>
<g id="a_Node000009"><a xlink:title=" ">
<polygon fill="#e0e0e0" stroke="#999999" points="482,-77.5 444.25,-77.5 444.25,-56.75 482,-56.75 482,-77.5"/>
<text xml:space="preserve" text-anchor="middle" x="463.12" y="-64" font-family="Helvetica,sans-Serif" font-size="10.00">QDir</text>
</a>
</g>
</g>
<!-- Node1&#45;&gt;Node9 -->
<g id="edge8_Node000001_Node000009" class="edge">
<title>Node1&#45;&gt;Node9</title>
<g id="a_edge8_Node000001_Node000009"><a xlink:title=" ">
<path fill="none" stroke="#63b8ff" d="M463.12,-113.19C463.12,-105.85 463.12,-97.07 463.12,-89.21"/>
<polygon fill="#63b8ff" stroke="#63b8ff" points="466.63,-89.48 463.13,-79.48 459.63,-89.48 466.63,-89.48"/>
</a>
</g>
</g>
<!-- Node10 -->
<g id="Node000010" class="node">
<title>Node10</title>
<g id="a_Node000010"><a xlink:title=" ">
<polygon fill="#e0e0e0" stroke="#999999" points="563.75,-77.5 500.5,-77.5 500.5,-56.75 563.75,-56.75 563.75,-77.5"/>
<text xml:space="preserve" text-anchor="middle" x="532.12" y="-64" font-family="Helvetica,sans-Serif" font-size="10.00">QSettings</text>
</a>
</g>
</g>
<!-- Node1&#45;&gt;Node10 -->
<g id="edge9_Node000001_Node000010" class="edge">
<title>Node1&#45;&gt;Node10</title>
<g id="a_edge9_Node000001_Node000010"><a xlink:title=" ">
<path fill="none" stroke="#63b8ff" d="M481.25,-113.19C490.91,-104.63 502.8,-94.1 512.66,-85.37"/>
<polygon fill="#63b8ff" stroke="#63b8ff" points="514.72,-88.22 519.88,-78.97 510.08,-82.98 514.72,-88.22"/>
</a>
</g>
</g>
<!-- Node11 -->
<g id="Node000011" class="node">
<title>Node11</title>
<g id="a_Node000011"><a xlink:title=" ">
<polygon fill="#e0e0e0" stroke="#999999" points="674.75,-77.5 581.5,-77.5 581.5,-56.75 674.75,-56.75 674.75,-77.5"/>
<text xml:space="preserve" text-anchor="middle" x="628.12" y="-64" font-family="Helvetica,sans-Serif" font-size="10.00">QStandardPaths</text>
</a>
</g>
</g>
<!-- Node1&#45;&gt;Node11 -->
<g id="edge10_Node000001_Node000011" class="edge">
<title>Node1&#45;&gt;Node11</title>
<g id="a_edge10_Node000001_Node000011"><a xlink:title=" ">
<path fill="none" stroke="#63b8ff" d="M506.91,-113.03C533.19,-103.29 566.25,-91.05 591.2,-81.8"/>
<polygon fill="#63b8ff" stroke="#63b8ff" points="592.12,-85.2 600.28,-78.44 589.69,-78.63 592.12,-85.2"/>
</a>
</g>
</g>
<!-- Node3 -->
<g id="Node000003" class="node">
<title>Node3</title>
<g id="a_Node000003"><a xlink:title=" ">
<polygon fill="#e0e0e0" stroke="#999999" points="72.25,-20.75 0,-20.75 0,0 72.25,0 72.25,-20.75"/>
<text xml:space="preserve" text-anchor="middle" x="36.12" y="-7.25" font-family="Helvetica,sans-Serif" font-size="10.00">QByteArray</text>
</a>
</g>
</g>
<!-- Node2&#45;&gt;Node3 -->
<g id="edge2_Node000002_Node000003" class="edge">
<title>Node2&#45;&gt;Node3</title>
<g id="a_edge2_Node000002_Node000003"><a xlink:title=" ">
<path fill="none" stroke="#63b8ff" d="M162.59,-56.34C138.03,-47.61 101.83,-34.73 74.44,-25"/>
<polygon fill="#63b8ff" stroke="#63b8ff" points="75.7,-21.73 65.1,-21.68 73.35,-28.33 75.7,-21.73"/>
</a>
</g>
</g>
<!-- Node4 -->
<g id="Node000004" class="node">
<title>Node4</title>
<g id="a_Node000004"><a xlink:title=" ">
<polygon fill="#e0e0e0" stroke="#999999" points="145.62,-20.75 90.62,-20.75 90.62,0 145.62,0 145.62,-20.75"/>
<text xml:space="preserve" text-anchor="middle" x="118.12" y="-7.25" font-family="Helvetica,sans-Serif" font-size="10.00">QObject</text>
</a>
</g>
</g>
<!-- Node2&#45;&gt;Node4 -->
<g id="edge3_Node000002_Node000004" class="edge">
<title>Node2&#45;&gt;Node4</title>
<g id="a_edge3_Node000002_Node000004"><a xlink:title=" ">
<path fill="none" stroke="#63b8ff" d="M177.25,-56.34C166.91,-48.47 152.16,-37.25 139.97,-27.99"/>
<polygon fill="#63b8ff" stroke="#63b8ff" points="142.17,-25.26 132.09,-21.99 137.93,-30.83 142.17,-25.26"/>
</a>
</g>
</g>
<!-- Node5 -->
<g id="Node000005" class="node">
<title>Node5</title>
<g id="a_Node000005"><a xlink:title=" ">
<polygon fill="#e0e0e0" stroke="#999999" points="216.12,-20.75 164.12,-20.75 164.12,0 216.12,0 216.12,-20.75"/>
<text xml:space="preserve" text-anchor="middle" x="190.12" y="-7.25" font-family="Helvetica,sans-Serif" font-size="10.00">QString</text>
</a>
</g>
</g>
<!-- Node2&#45;&gt;Node5 -->
<g id="edge4_Node000002_Node000005" class="edge">
<title>Node2&#45;&gt;Node5</title>
<g id="a_edge4_Node000002_Node000005"><a xlink:title=" ">
<path fill="none" stroke="#63b8ff" d="M190.12,-56.34C190.12,-49.72 190.12,-40.72 190.12,-32.52"/>
<polygon fill="#63b8ff" stroke="#63b8ff" points="193.63,-32.59 190.13,-22.59 186.63,-32.59 193.63,-32.59"/>
</a>
</g>
</g>
<!-- Node6 -->
<g id="Node000006" class="node">
<title>Node6</title>
<g id="a_Node000006"><a xlink:title=" ">
<polygon fill="#e0e0e0" stroke="#999999" points="303.75,-20.75 234.5,-20.75 234.5,0 303.75,0 303.75,-20.75"/>
<text xml:space="preserve" text-anchor="middle" x="269.12" y="-7.25" font-family="Helvetica,sans-Serif" font-size="10.00">QStringList</text>
</a>
</g>
</g>
<!-- Node2&#45;&gt;Node6 -->
<g id="edge5_Node000002_Node000006" class="edge">
<title>Node2&#45;&gt;Node6</title>
<g id="a_edge5_Node000002_Node000006"><a xlink:title=" ">
<path fill="none" stroke="#63b8ff" d="M204.25,-56.34C215.82,-48.32 232.43,-36.81 245.94,-27.44"/>
<polygon fill="#63b8ff" stroke="#63b8ff" points="247.65,-30.51 253.88,-21.94 243.67,-24.76 247.65,-30.51"/>
</a>
</g>
</g>
<!-- Node7 -->
<g id="Node000007" class="node">
<title>Node7</title>
<g id="a_Node000007"><a xlink:title=" ">
<polygon fill="#e0e0e0" stroke="#999999" points="378,-20.75 322.25,-20.75 322.25,0 378,0 378,-20.75"/>
<text xml:space="preserve" text-anchor="middle" x="350.12" y="-7.25" font-family="Helvetica,sans-Serif" font-size="10.00">optional</text>
</a>
</g>
</g>
<!-- Node2&#45;&gt;Node7 -->
<g id="edge6_Node000002_Node000007" class="edge">
<title>Node2&#45;&gt;Node7</title>
<g id="a_edge6_Node000002_Node000007"><a xlink:title=" ">
<path fill="none" stroke="#63b8ff" d="M218.73,-56.34C244.44,-47.54 282.43,-34.54 310.96,-24.78"/>
<polygon fill="#63b8ff" stroke="#63b8ff" points="312.01,-28.12 320.34,-21.57 309.74,-21.49 312.01,-28.12"/>
</a>
</g>
</g>
</g>
</svg>
