<?xml version="1.0" encoding="UTF-8" standalone="no"?>
<!DOCTYPE svg PUBLIC "-//W3C//DTD SVG 1.1//EN"
 "http://www.w3.org/Graphics/SVG/1.1/DTD/svg11.dtd">
<!-- Generated by graphviz version 14.1.2 (0)
 -->
<!-- Title: src/core/include/mo/core/Settings.hpp Pages: 1 -->
<svg width="861pt" height="98pt"
 viewBox="0.00 0.00 861.00 98.00" xmlns="http://www.w3.org/2000/svg" xmlns:xlink="http://www.w3.org/1999/xlink">
<g id="graph0" class="graph" transform="scale(1 1) rotate(0) translate(4 94.25)">
<title>src/core/include/mo/core/Settings.hpp</title>
<!-- Node1 -->
<g id="Node000001" class="node">
<title>Node1</title>
<g id="a_Node000001"><a xlink:title=" ">
<polygon fill="#999999" stroke="#666666" points="443.25,-90.25 332,-90.25 332,-56.75 443.25,-56.75 443.25,-90.25"/>
<text xml:space="preserve" text-anchor="start" x="340" y="-76.75" font-family="Helvetica,sans-Serif" font-size="10.00">src/core/include/mo</text>
<text xml:space="preserve" text-anchor="middle" x="387.62" y="-64" font-family="Helvetica,sans-Serif" font-size="10.00">/core/Settings.hpp</text>
</a>
</g>
</g>
<!-- Node2 -->
<g id="Node000002" class="node">
<title>Node2</title>
<g id="a_Node000002"><a xlink:href="Application_8cpp.html" target="_top" xlink:title=" ">
<polygon fill="white" stroke="#666666" points="129.25,-20.75 0,-20.75 0,0 129.25,0 129.25,-20.75"/>
<text xml:space="preserve" text-anchor="middle" x="64.62" y="-7.25" font-family="Helvetica,sans-Serif" font-size="10.00">src/app/Application.cpp</text>
</a>
</g>
</g>
<!-- Node1&#45;&gt;Node2 -->
<g id="edge1_Node000001_Node000002" class="edge">
<title>Node1&#45;&gt;Node2</title>
<g id="a_edge1_Node000001_Node000002"><a xlink:title=" ">
<path fill="none" stroke="#63b8ff" d="M320.75,-59.84C260.16,-48.38 172.11,-31.72 116.63,-21.22"/>
<polygon fill="#63b8ff" stroke="#63b8ff" points="319.77,-63.22 330.24,-61.64 321.07,-56.34 319.77,-63.22"/>
</a>
</g>
</g>
<!-- Node3 -->
<g id="Node000003" class="node">
<title>Node3</title>
<g id="a_Node000003"><a xlink:href="Settings_8cpp.html" target="_top" xlink:title=" ">
<polygon fill="white" stroke="#666666" points="281.88,-20.75 147.38,-20.75 147.38,0 281.88,0 281.88,-20.75"/>
<text xml:space="preserve" text-anchor="middle" x="214.62" y="-7.25" font-family="Helvetica,sans-Serif" font-size="10.00">src/core/src/Settings.cpp</text>
</a>
</g>
</g>
<!-- Node1&#45;&gt;Node3 -->
<g id="edge2_Node000001_Node000003" class="edge">
<title>Node1&#45;&gt;Node3</title>
<g id="a_edge2_Node000001_Node000003"><a xlink:title=" ">
<path fill="none" stroke="#63b8ff" d="M331.03,-52.5C301.29,-42 266.16,-29.58 242.33,-21.17"/>
<polygon fill="#63b8ff" stroke="#63b8ff" points="329.7,-55.74 340.29,-55.78 332.03,-49.14 329.7,-55.74"/>
</a>
</g>
</g>
<!-- Node4 -->
<g id="Node000004" class="node">
<title>Node4</title>
<g id="a_Node000004"><a xlink:href="SettingsDialog_8cpp.html" target="_top" xlink:title=" ">
<polygon fill="white" stroke="#666666" points="475.12,-20.75 300.12,-20.75 300.12,0 475.12,0 475.12,-20.75"/>
<text xml:space="preserve" text-anchor="middle" x="387.62" y="-7.25" font-family="Helvetica,sans-Serif" font-size="10.00">src/ui/dialogs/SettingsDialog.cpp</text>
</a>
</g>
</g>
<!-- Node1&#45;&gt;Node4 -->
<g id="edge3_Node000001_Node000004" class="edge">
<title>Node1&#45;&gt;Node4</title>
<g id="a_edge3_Node000001_Node000004"><a xlink:title=" ">
<path fill="none" stroke="#63b8ff" d="M387.62,-44.94C387.62,-36.46 387.62,-27.67 387.62,-21.22"/>
<polygon fill="#63b8ff" stroke="#63b8ff" points="384.13,-44.93 387.63,-54.93 391.13,-44.93 384.13,-44.93"/>
</a>
</g>
</g>
<!-- Node5 -->
<g id="Node000005" class="node">
<title>Node5</title>
<g id="a_Node000005"><a xlink:href="CodeEditor_8cpp.html" target="_top" xlink:title=" ">
<polygon fill="white" stroke="#666666" points="642.38,-20.75 492.88,-20.75 492.88,0 642.38,0 642.38,-20.75"/>
<text xml:space="preserve" text-anchor="middle" x="567.62" y="-7.25" font-family="Helvetica,sans-Serif" font-size="10.00">src/ui/editor/CodeEditor.cpp</text>
</a>
</g>
</g>
<!-- Node1&#45;&gt;Node5 -->
<g id="edge4_Node000001_Node000005" class="edge">
<title>Node1&#45;&gt;Node5</title>
<g id="a_edge4_Node000001_Node000005"><a xlink:title=" ">
<path fill="none" stroke="#63b8ff" d="M446.1,-52.64C477.13,-42.1 513.89,-29.62 538.8,-21.17"/>
<polygon fill="#63b8ff" stroke="#63b8ff" points="445.17,-49.26 436.82,-55.79 447.42,-55.89 445.17,-49.26"/>
</a>
</g>
</g>
<!-- Node6 -->
<g id="Node000006" class="node">
<title>Node6</title>
<g id="a_Node000006"><a xlink:href="MainWindow_8cpp.html" target="_top" xlink:title=" ">
<polygon fill="white" stroke="#666666" points="853.12,-20.75 660.12,-20.75 660.12,0 853.12,0 853.12,-20.75"/>
<text xml:space="preserve" text-anchor="middle" x="756.62" y="-7.25" font-family="Helvetica,sans-Serif" font-size="10.00">src/ui/mainwindow/MainWindow.cpp</text>
</a>
</g>
</g>
<!-- Node1&#45;&gt;Node6 -->
<g id="edge5_Node000001_Node000006" class="edge">
<title>Node1&#45;&gt;Node6</title>
<g id="a_edge5_Node000001_Node000006"><a xlink:title=" ">
<path fill="none" stroke="#63b8ff" d="M454.87,-61.36C524.15,-49.88 631.08,-32.17 697.3,-21.2"/>
<polygon fill="#63b8ff" stroke="#63b8ff" points="454.45,-57.88 445.16,-62.97 455.6,-64.79 454.45,-57.88"/>
</a>
</g>
</g>
</g>
</svg>
