<?xml version="1.0" encoding="UTF-8" standalone="no"?>
<!DOCTYPE svg PUBLIC "-//W3C//DTD SVG 1.1//EN"
 "http://www.w3.org/Graphics/SVG/1.1/DTD/svg11.dtd">
<!-- Generated by graphviz version 14.1.2 (0)
 -->
<!-- Title: src/core/src/Settings.cpp Pages: 1 -->
<svg width="601pt" height="142pt"
 viewBox="0.00 0.00 601.00 142.00" xmlns="http://www.w3.org/2000/svg" xmlns:xlink="http://www.w3.org/1999/xlink">
<g id="graph0" class="graph" transform="scale(1 1) rotate(0) translate(4 138.25)">
<title>src/core/src/Settings.cpp</title>
<!-- Node1 -->
<g id="Node000001" class="node">
<title>Node1</title>
<g id="a_Node000001"><a xlink:title=" ">
<polygon fill="#999999" stroke="#666666" points="448.75,-134.25 314.25,-134.25 314.25,-113.5 448.75,-113.5 448.75,-134.25"/>
<text xml:space="preserve" text-anchor="middle" x="381.5" y="-120.75" font-family="Helvetica,sans-Serif" font-size="10.00">src/core/src/Settings.cpp</text>
</a>
</g>
</g>
<!-- Node2 -->
<g id="Node000002" class="node">
<title>Node2</title>
<g id="a_Node000002"><a xlink:href="Settings_8hpp.html" target="_top" xlink:title=" ">
<polygon fill="white" stroke="#666666" points="198.25,-77.5 78.75,-77.5 78.75,-56.75 198.25,-56.75 198.25,-77.5"/>
<text xml:space="preserve" text-anchor="middle" x="138.5" y="-64" font-family="Helvetica,sans-Serif" font-size="10.00">mo/core/Settings.hpp</text>
</a>
</g>
</g>
<!-- Node1&#45;&gt;Node2 -->
<g id="edge1_Node000001_Node000002" class="edge">
<title>Node1&#45;&gt;Node2</title>
<g id="a_edge1_Node000001_Node000002"><a xlink:title=" ">
<path fill="none" stroke="#63b8ff" d="M337.78,-113.02C297.3,-103.9 236.96,-90.31 193.28,-80.47"/>
<polygon fill="#63b8ff" stroke="#63b8ff" points="194.28,-77.11 183.76,-78.32 192.75,-83.93 194.28,-77.11"/>
</a>
</g>
</g>
<!-- Node7 -->
<g id="Node000007" class="node">
<title>Node7</title>
<g id="a_Node000007"><a xlink:href="Constants_8hpp.html" target="_top" xlink:title=" ">
<polygon fill="white" stroke="#666666" points="344.75,-77.5 216.25,-77.5 216.25,-56.75 344.75,-56.75 344.75,-77.5"/>
<text xml:space="preserve" text-anchor="middle" x="280.5" y="-64" font-family="Helvetica,sans-Serif" font-size="10.00">mo/core/Constants.hpp</text>
</a>
</g>
</g>
<!-- Node1&#45;&gt;Node7 -->
<g id="edge6_Node000001_Node000007" class="edge">
<title>Node1&#45;&gt;Node7</title>
<g id="a_edge6_Node000001_Node000007"><a xlink:title=" ">
<path fill="none" stroke="#63b8ff" d="M363.44,-113.09C348.08,-104.76 325.76,-92.66 308.14,-83.11"/>
<polygon fill="#63b8ff" stroke="#63b8ff" points="310.19,-80.24 299.73,-78.55 306.85,-86.39 310.19,-80.24"/>
</a>
</g>
</g>
<!-- Node8 -->
<g id="Node000008" class="node">
<title>Node8</title>
<g id="a_Node000008"><a xlink:title=" ">
<polygon fill="#e0e0e0" stroke="#999999" points="400.38,-77.5 362.62,-77.5 362.62,-56.75 400.38,-56.75 400.38,-77.5"/>
<text xml:space="preserve" text-anchor="middle" x="381.5" y="-64" font-family="Helvetica,sans-Serif" font-size="10.00">QDir</text>
</a>
</g>
</g>
<!-- Node1&#45;&gt;Node8 -->
<g id="edge7_Node000001_Node000008" class="edge">
<title>Node1&#45;&gt;Node8</title>
<g id="a_edge7_Node000001_Node000008"><a xlink:title=" ">
<path fill="none" stroke="#63b8ff" d="M381.5,-113.09C381.5,-106.47 381.5,-97.47 381.5,-89.27"/>
<polygon fill="#63b8ff" stroke="#63b8ff" points="385,-89.34 381.5,-79.34 378,-89.34 385,-89.34"/>
</a>
</g>
</g>
<!-- Node9 -->
<g id="Node000009" class="node">
<title>Node9</title>
<g id="a_Node000009"><a xlink:title=" ">
<polygon fill="#e0e0e0" stroke="#999999" points="482.12,-77.5 418.88,-77.5 418.88,-56.75 482.12,-56.75 482.12,-77.5"/>
<text xml:space="preserve" text-anchor="middle" x="450.5" y="-64" font-family="Helvetica,sans-Serif" font-size="10.00">QSettings</text>
</a>
</g>
</g>
<!-- Node1&#45;&gt;Node9 -->
<g id="edge8_Node000001_Node000009" class="edge">
<title>Node1&#45;&gt;Node9</title>
<g id="a_edge8_Node000001_Node000009"><a xlink:title=" ">
<path fill="none" stroke="#63b8ff" d="M393.84,-113.09C403.75,-105.22 417.89,-94 429.56,-84.74"/>
<polygon fill="#63b8ff" stroke="#63b8ff" points="431.43,-87.73 437.09,-78.77 427.08,-82.24 431.43,-87.73"/>
</a>
</g>
</g>
<!-- Node10 -->
<g id="Node000010" class="node">
<title>Node10</title>
<g id="a_Node000010"><a xlink:title=" ">
<polygon fill="#e0e0e0" stroke="#999999" points="593.12,-77.5 499.88,-77.5 499.88,-56.75 593.12,-56.75 593.12,-77.5"/>
<text xml:space="preserve" text-anchor="middle" x="546.5" y="-64" font-family="Helvetica,sans-Serif" font-size="10.00">QStandardPaths</text>
</a>
</g>
</g>
<!-- Node1&#45;&gt;Node10 -->
<g id="edge9_Node000001_Node000010" class="edge">
<title>Node1&#45;&gt;Node10</title>
<g id="a_edge9_Node000001_Node000010"><a xlink:title=" ">
<path fill="none" stroke="#63b8ff" d="M411,-113.09C437.55,-104.28 476.8,-91.25 506.23,-81.49"/>
<polygon fill="#63b8ff" stroke="#63b8ff" points="507.15,-84.87 515.54,-78.4 504.95,-78.22 507.15,-84.87"/>
</a>
</g>
</g>
<!-- Node3 -->
<g id="Node000003" class="node">
<title>Node3</title>
<g id="a_Node000003"><a xlink:title=" ">
<polygon fill="#e0e0e0" stroke="#999999" points="55,-20.75 0,-20.75 0,0 55,0 55,-20.75"/>
<text xml:space="preserve" text-anchor="middle" x="27.5" y="-7.25" font-family="Helvetica,sans-Serif" font-size="10.00">QObject</text>
</a>
</g>
</g>
<!-- Node2&#45;&gt;Node3 -->
<g id="edge2_Node000002_Node000003" class="edge">
<title>Node2&#45;&gt;Node3</title>
<g id="a_edge2_Node000002_Node000003"><a xlink:title=" ">
<path fill="none" stroke="#63b8ff" d="M118.66,-56.34C101.61,-47.93 76.78,-35.68 57.34,-26.09"/>
<polygon fill="#63b8ff" stroke="#63b8ff" points="59.05,-23.03 48.53,-21.75 55.95,-29.31 59.05,-23.03"/>
</a>
</g>
</g>
<!-- Node4 -->
<g id="Node000004" class="node">
<title>Node4</title>
<g id="a_Node000004"><a xlink:title=" ">
<polygon fill="#e0e0e0" stroke="#999999" points="125.5,-20.75 73.5,-20.75 73.5,0 125.5,0 125.5,-20.75"/>
<text xml:space="preserve" text-anchor="middle" x="99.5" y="-7.25" font-family="Helvetica,sans-Serif" font-size="10.00">QString</text>
</a>
</g>
</g>
<!-- Node2&#45;&gt;Node4 -->
<g id="edge3_Node000002_Node000004" class="edge">
<title>Node2&#45;&gt;Node4</title>
<g id="a_edge3_Node000002_Node000004"><a xlink:title=" ">
<path fill="none" stroke="#63b8ff" d="M131.53,-56.34C126.37,-49.1 119.18,-39.01 112.93,-30.22"/>
<polygon fill="#63b8ff" stroke="#63b8ff" points="115.94,-28.43 107.29,-22.31 110.24,-32.49 115.94,-28.43"/>
</a>
</g>
</g>
<!-- Node5 -->
<g id="Node000005" class="node">
<title>Node5</title>
<g id="a_Node000005"><a xlink:title=" ">
<polygon fill="#e0e0e0" stroke="#999999" points="213.12,-20.75 143.88,-20.75 143.88,0 213.12,0 213.12,-20.75"/>
<text xml:space="preserve" text-anchor="middle" x="178.5" y="-7.25" font-family="Helvetica,sans-Serif" font-size="10.00">QStringList</text>
</a>
</g>
</g>
<!-- Node2&#45;&gt;Node5 -->
<g id="edge4_Node000002_Node000005" class="edge">
<title>Node2&#45;&gt;Node5</title>
<g id="a_edge4_Node000002_Node000005"><a xlink:title=" ">
<path fill="none" stroke="#63b8ff" d="M145.65,-56.34C150.94,-49.1 158.31,-39.01 164.73,-30.22"/>
<polygon fill="#63b8ff" stroke="#63b8ff" points="167.44,-32.44 170.52,-22.3 161.79,-28.31 167.44,-32.44"/>
</a>
</g>
</g>
<!-- Node6 -->
<g id="Node000006" class="node">
<title>Node6</title>
<g id="a_Node000006"><a xlink:title=" ">
<polygon fill="#e0e0e0" stroke="#999999" points="288.12,-20.75 230.88,-20.75 230.88,0 288.12,0 288.12,-20.75"/>
<text xml:space="preserve" text-anchor="middle" x="259.5" y="-7.25" font-family="Helvetica,sans-Serif" font-size="10.00">memory</text>
</a>
</g>
</g>
<!-- Node2&#45;&gt;Node6 -->
<g id="edge5_Node000002_Node000006" class="edge">
<title>Node2&#45;&gt;Node6</title>
<g id="a_edge5_Node000002_Node000006"><a xlink:title=" ">
<path fill="none" stroke="#63b8ff" d="M160.13,-56.34C178.97,-47.81 206.54,-35.34 227.86,-25.69"/>
<polygon fill="#63b8ff" stroke="#63b8ff" points="229.01,-29.01 236.68,-21.7 226.12,-22.64 229.01,-29.01"/>
</a>
</g>
</g>
</g>
</svg>
