<?xml version="1.0" encoding="UTF-8" standalone="no"?>
<!DOCTYPE svg PUBLIC "-//W3C//DTD SVG 1.1//EN"
 "http://www.w3.org/Graphics/SVG/1.1/DTD/svg11.dtd">
<!-- Generated by graphviz version 14.1.2 (0)
 -->
<!-- Title: src/ui/dialogs/SettingsDialog.cpp Pages: 1 -->
<svg width="1423pt" height="142pt"
 viewBox="0.00 0.00 1423.00 142.00" xmlns="http://www.w3.org/2000/svg" xmlns:xlink="http://www.w3.org/1999/xlink">
<g id="graph0" class="graph" transform="scale(1 1) rotate(0) translate(4 138.25)">
<title>src/ui/dialogs/SettingsDialog.cpp</title>
<!-- Node1 -->
<g id="Node000001" class="node">
<title>Node1</title>
<g id="a_Node000001"><a xlink:title=" ">
<polygon fill="#999999" stroke="#666666" points="844.62,-134.25 669.62,-134.25 669.62,-113.5 844.62,-113.5 844.62,-134.25"/>
<text xml:space="preserve" text-anchor="middle" x="757.12" y="-120.75" font-family="Helvetica,sans-Serif" font-size="10.00">src/ui/dialogs/SettingsDialog.cpp</text>
</a>
</g>
</g>
<!-- Node2 -->
<g id="Node000002" class="node">
<title>Node2</title>
<g id="a_Node000002"><a xlink:href="SettingsDialog_8hpp.html" target="_top" xlink:title=" ">
<polygon fill="white" stroke="#666666" points="108.25,-77.5 0,-77.5 0,-56.75 108.25,-56.75 108.25,-77.5"/>
<text xml:space="preserve" text-anchor="middle" x="54.12" y="-64" font-family="Helvetica,sans-Serif" font-size="10.00">SettingsDialog.hpp</text>
</a>
</g>
</g>
<!-- Node1&#45;&gt;Node2 -->
<g id="edge1_Node000001_Node000002" class="edge">
<title>Node1&#45;&gt;Node2</title>
<g id="a_edge1_Node000001_Node000002"><a xlink:title=" ">
<path fill="none" stroke="#63b8ff" d="M669.28,-118.36C546.76,-111.65 317.68,-97.66 123.12,-77.5 122.1,-77.39 121.07,-77.28 120.02,-77.17"/>
<polygon fill="#63b8ff" stroke="#63b8ff" points="120.54,-73.71 110.2,-76.04 119.74,-80.66 120.54,-73.71"/>
</a>
</g>
</g>
<!-- Node4 -->
<g id="Node000004" class="node">
<title>Node4</title>
<g id="a_Node000004"><a xlink:href="Settings_8hpp.html" target="_top" xlink:title=" ">
<polygon fill="white" stroke="#666666" points="251.88,-77.5 132.38,-77.5 132.38,-56.75 251.88,-56.75 251.88,-77.5"/>
<text xml:space="preserve" text-anchor="middle" x="192.12" y="-64" font-family="Helvetica,sans-Serif" font-size="10.00">mo/core/Settings.hpp</text>
</a>
</g>
</g>
<!-- Node1&#45;&gt;Node4 -->
<g id="edge3_Node000001_Node000004" class="edge">
<title>Node1&#45;&gt;Node4</title>
<g id="a_edge3_Node000001_Node000004"><a xlink:title=" ">
<path fill="none" stroke="#63b8ff" d="M669.2,-116C572.38,-108.17 411.82,-94.4 263.43,-77.72"/>
<polygon fill="#63b8ff" stroke="#63b8ff" points="264.15,-74.28 253.82,-76.63 263.36,-81.23 264.15,-74.28"/>
</a>
</g>
</g>
<!-- Node9 -->
<g id="Node000009" class="node">
<title>Node9</title>
<g id="a_Node000009"><a xlink:title=" ">
<polygon fill="#e0e0e0" stroke="#999999" points="342.25,-77.5 270,-77.5 270,-56.75 342.25,-56.75 342.25,-77.5"/>
<text xml:space="preserve" text-anchor="middle" x="306.12" y="-64" font-family="Helvetica,sans-Serif" font-size="10.00">QCheckBox</text>
</a>
</g>
</g>
<!-- Node1&#45;&gt;Node9 -->
<g id="edge8_Node000001_Node000009" class="edge">
<title>Node1&#45;&gt;Node9</title>
<g id="a_edge8_Node000001_Node000009"><a xlink:title=" ">
<path fill="none" stroke="#63b8ff" d="M669.13,-115.31C589.45,-107.93 468.64,-95.44 353.82,-77.63"/>
<polygon fill="#63b8ff" stroke="#63b8ff" points="354.65,-74.22 344.22,-76.13 353.56,-81.13 354.65,-74.22"/>
</a>
</g>
</g>
<!-- Node10 -->
<g id="Node000010" class="node">
<title>Node10</title>
<g id="a_Node000010"><a xlink:title=" ">
<polygon fill="#e0e0e0" stroke="#999999" points="437.5,-77.5 360.75,-77.5 360.75,-56.75 437.5,-56.75 437.5,-77.5"/>
<text xml:space="preserve" text-anchor="middle" x="399.12" y="-64" font-family="Helvetica,sans-Serif" font-size="10.00">QComboBox</text>
</a>
</g>
</g>
<!-- Node1&#45;&gt;Node10 -->
<g id="edge9_Node000001_Node000010" class="edge">
<title>Node1&#45;&gt;Node10</title>
<g id="a_edge9_Node000001_Node000010"><a xlink:title=" ">
<path fill="none" stroke="#63b8ff" d="M681.86,-113.01C621.41,-104.83 534.08,-92.44 449,-77.93"/>
<polygon fill="#63b8ff" stroke="#63b8ff" points="449.76,-74.51 439.32,-76.27 448.58,-81.41 449.76,-74.51"/>
</a>
</g>
</g>
<!-- Node11 -->
<g id="Node000011" class="node">
<title>Node11</title>
<g id="a_Node000011"><a xlink:title=" ">
<polygon fill="#e0e0e0" stroke="#999999" points="561.12,-77.5 455.12,-77.5 455.12,-56.75 561.12,-56.75 561.12,-77.5"/>
<text xml:space="preserve" text-anchor="middle" x="508.12" y="-64" font-family="Helvetica,sans-Serif" font-size="10.00">QDialogButtonBox</text>
</a>
</g>
</g>
<!-- Node1&#45;&gt;Node11 -->
<g id="edge10_Node000001_Node000011" class="edge">
<title>Node1&#45;&gt;Node11</title>
<g id="a_edge10_Node000001_Node000011"><a xlink:title=" ">
<path fill="none" stroke="#63b8ff" d="M712.32,-113.02C670.76,-103.88 608.75,-90.25 563.98,-80.41"/>
<polygon fill="#63b8ff" stroke="#63b8ff" points="564.98,-77.04 554.47,-78.31 563.48,-83.88 564.98,-77.04"/>
</a>
</g>
</g>
<!-- Node12 -->
<g id="Node000012" class="node">
<title>Node12</title>
<g id="a_Node000012"><a xlink:title=" ">
<polygon fill="#e0e0e0" stroke="#999999" points="617,-77.5 579.25,-77.5 579.25,-56.75 617,-56.75 617,-77.5"/>
<text xml:space="preserve" text-anchor="middle" x="598.12" y="-64" font-family="Helvetica,sans-Serif" font-size="10.00">QDir</text>
</a>
</g>
</g>
<!-- Node1&#45;&gt;Node12 -->
<g id="edge11_Node000001_Node000012" class="edge">
<title>Node1&#45;&gt;Node12</title>
<g id="a_edge11_Node000001_Node000012"><a xlink:title=" ">
<path fill="none" stroke="#63b8ff" d="M728.7,-113.09C700.31,-103.31 656.85,-88.35 627.97,-78.4"/>
<polygon fill="#63b8ff" stroke="#63b8ff" points="629.34,-75.17 618.75,-75.23 627.06,-81.79 629.34,-75.17"/>
</a>
</g>
</g>
<!-- Node13 -->
<g id="Node000013" class="node">
<title>Node13</title>
<g id="a_Node000013"><a xlink:title=" ">
<polygon fill="#e0e0e0" stroke="#999999" points="709,-77.5 635.25,-77.5 635.25,-56.75 709,-56.75 709,-77.5"/>
<text xml:space="preserve" text-anchor="middle" x="672.12" y="-64" font-family="Helvetica,sans-Serif" font-size="10.00">QDirIterator</text>
</a>
</g>
</g>
<!-- Node1&#45;&gt;Node13 -->
<g id="edge12_Node000001_Node000013" class="edge">
<title>Node1&#45;&gt;Node13</title>
<g id="a_edge12_Node000001_Node000013"><a xlink:title=" ">
<path fill="none" stroke="#63b8ff" d="M741.93,-113.09C729.36,-104.99 711.26,-93.33 696.64,-83.92"/>
<polygon fill="#63b8ff" stroke="#63b8ff" points="698.76,-81.12 688.46,-78.65 694.97,-87.01 698.76,-81.12"/>
</a>
</g>
</g>
<!-- Node14 -->
<g id="Node000014" class="node">
<title>Node14</title>
<g id="a_Node000014"><a xlink:title=" ">
<polygon fill="#e0e0e0" stroke="#999999" points="786.88,-77.5 727.38,-77.5 727.38,-56.75 786.88,-56.75 786.88,-77.5"/>
<text xml:space="preserve" text-anchor="middle" x="757.12" y="-64" font-family="Helvetica,sans-Serif" font-size="10.00">QFileInfo</text>
</a>
</g>
</g>
<!-- Node1&#45;&gt;Node14 -->
<g id="edge13_Node000001_Node000014" class="edge">
<title>Node1&#45;&gt;Node14</title>
<g id="a_edge13_Node000001_Node000014"><a xlink:title=" ">
<path fill="none" stroke="#63b8ff" d="M757.12,-113.09C757.12,-106.47 757.12,-97.47 757.12,-89.27"/>
<polygon fill="#63b8ff" stroke="#63b8ff" points="760.63,-89.34 757.13,-79.34 753.63,-89.34 760.63,-89.34"/>
</a>
</g>
</g>
<!-- Node15 -->
<g id="Node000015" class="node">
<title>Node15</title>
<g id="a_Node000015"><a xlink:title=" ">
<polygon fill="#e0e0e0" stroke="#999999" points="903,-77.5 805.25,-77.5 805.25,-56.75 903,-56.75 903,-77.5"/>
<text xml:space="preserve" text-anchor="middle" x="854.12" y="-64" font-family="Helvetica,sans-Serif" font-size="10.00">QFontComboBox</text>
</a>
</g>
</g>
<!-- Node1&#45;&gt;Node15 -->
<g id="edge14_Node000001_Node000015" class="edge">
<title>Node1&#45;&gt;Node15</title>
<g id="a_edge14_Node000001_Node000015"><a xlink:title=" ">
<path fill="none" stroke="#63b8ff" d="M774.47,-113.09C789.09,-104.83 810.26,-92.88 827.1,-83.38"/>
<polygon fill="#63b8ff" stroke="#63b8ff" points="828.63,-86.54 835.62,-78.57 825.19,-80.44 828.63,-86.54"/>
</a>
</g>
</g>
<!-- Node16 -->
<g id="Node000016" class="node">
<title>Node16</title>
<g id="a_Node000016"><a xlink:title=" ">
<polygon fill="#e0e0e0" stroke="#999999" points="1002.75,-77.5 921.5,-77.5 921.5,-56.75 1002.75,-56.75 1002.75,-77.5"/>
<text xml:space="preserve" text-anchor="middle" x="962.12" y="-64" font-family="Helvetica,sans-Serif" font-size="10.00">QFormLayout</text>
</a>
</g>
</g>
<!-- Node1&#45;&gt;Node16 -->
<g id="edge15_Node000001_Node000016" class="edge">
<title>Node1&#45;&gt;Node16</title>
<g id="a_edge15_Node000001_Node000016"><a xlink:title=" ">
<path fill="none" stroke="#63b8ff" d="M793.77,-113.09C827.49,-104.08 877.68,-90.68 914.49,-80.85"/>
<polygon fill="#63b8ff" stroke="#63b8ff" points="915.23,-84.27 923.99,-78.31 913.42,-77.51 915.23,-84.27"/>
</a>
</g>
</g>
<!-- Node17 -->
<g id="Node000017" class="node">
<title>Node17</title>
<g id="a_Node000017"><a xlink:title=" ">
<polygon fill="#e0e0e0" stroke="#999999" points="1065,-77.5 1021.25,-77.5 1021.25,-56.75 1065,-56.75 1065,-77.5"/>
<text xml:space="preserve" text-anchor="middle" x="1043.12" y="-64" font-family="Helvetica,sans-Serif" font-size="10.00">QIcon</text>
</a>
</g>
</g>
<!-- Node1&#45;&gt;Node17 -->
<g id="edge16_Node000001_Node000017" class="edge">
<title>Node1&#45;&gt;Node17</title>
<g id="a_edge16_Node000001_Node000017"><a xlink:title=" ">
<path fill="none" stroke="#63b8ff" d="M824.95,-113.03C873.97,-105.41 941.93,-93.8 1009.95,-77.8"/>
<polygon fill="#63b8ff" stroke="#63b8ff" points="1010.47,-81.28 1019.39,-75.55 1008.85,-74.47 1010.47,-81.28"/>
</a>
</g>
</g>
<!-- Node18 -->
<g id="Node000018" class="node">
<title>Node18</title>
<g id="a_Node000018"><a xlink:title=" ">
<polygon fill="#e0e0e0" stroke="#999999" points="1122.75,-77.5 1083.5,-77.5 1083.5,-56.75 1122.75,-56.75 1122.75,-77.5"/>
<text xml:space="preserve" text-anchor="middle" x="1103.12" y="-64" font-family="Helvetica,sans-Serif" font-size="10.00">QSet</text>
</a>
</g>
</g>
<!-- Node1&#45;&gt;Node18 -->
<g id="edge17_Node000001_Node000018" class="edge">
<title>Node1&#45;&gt;Node18</title>
<g id="a_edge17_Node000001_Node000018"><a xlink:title=" ">
<path fill="none" stroke="#63b8ff" d="M844.99,-114.37C906.28,-107.5 990.05,-96.23 1072.23,-77.59"/>
<polygon fill="#63b8ff" stroke="#63b8ff" points="1072.85,-81.04 1081.81,-75.37 1071.28,-74.22 1072.85,-81.04"/>
</a>
</g>
</g>
<!-- Node19 -->
<g id="Node000019" class="node">
<title>Node19</title>
<g id="a_Node000019"><a xlink:title=" ">
<polygon fill="#e0e0e0" stroke="#999999" points="1203.75,-77.5 1140.5,-77.5 1140.5,-56.75 1203.75,-56.75 1203.75,-77.5"/>
<text xml:space="preserve" text-anchor="middle" x="1172.12" y="-64" font-family="Helvetica,sans-Serif" font-size="10.00">QSpinBox</text>
</a>
</g>
</g>
<!-- Node1&#45;&gt;Node19 -->
<g id="edge18_Node000001_Node000019" class="edge">
<title>Node1&#45;&gt;Node19</title>
<g id="a_edge18_Node000001_Node000019"><a xlink:title=" ">
<path fill="none" stroke="#63b8ff" d="M845.04,-114.99C918.62,-107.76 1026.55,-95.69 1129.12,-77.88"/>
<polygon fill="#63b8ff" stroke="#63b8ff" points="1129.58,-81.36 1138.82,-76.18 1128.37,-74.46 1129.58,-81.36"/>
</a>
</g>
</g>
<!-- Node20 -->
<g id="Node000020" class="node">
<title>Node20</title>
<g id="a_Node000020"><a xlink:title=" ">
<polygon fill="#e0e0e0" stroke="#999999" points="1314.75,-77.5 1221.5,-77.5 1221.5,-56.75 1314.75,-56.75 1314.75,-77.5"/>
<text xml:space="preserve" text-anchor="middle" x="1268.12" y="-64" font-family="Helvetica,sans-Serif" font-size="10.00">QStandardPaths</text>
</a>
</g>
</g>
<!-- Node1&#45;&gt;Node20 -->
<g id="edge19_Node000001_Node000020" class="edge">
<title>Node1&#45;&gt;Node20</title>
<g id="a_edge19_Node000001_Node000020"><a xlink:title=" ">
<path fill="none" stroke="#63b8ff" d="M844.75,-115.98C934.2,-108.53 1077.31,-95.46 1209.9,-77.86"/>
<polygon fill="#63b8ff" stroke="#63b8ff" points="1210.11,-81.37 1219.55,-76.57 1209.18,-74.43 1210.11,-81.37"/>
</a>
</g>
</g>
<!-- Node21 -->
<g id="Node000021" class="node">
<title>Node21</title>
<g id="a_Node000021"><a xlink:title=" ">
<polygon fill="#e0e0e0" stroke="#999999" points="1415.12,-77.5 1333.12,-77.5 1333.12,-56.75 1415.12,-56.75 1415.12,-77.5"/>
<text xml:space="preserve" text-anchor="middle" x="1374.12" y="-64" font-family="Helvetica,sans-Serif" font-size="10.00">QVBoxLayout</text>
</a>
</g>
</g>
<!-- Node1&#45;&gt;Node21 -->
<g id="edge20_Node000001_Node000021" class="edge">
<title>Node1&#45;&gt;Node21</title>
<g id="a_edge20_Node000001_Node000021"><a xlink:title=" ">
<path fill="none" stroke="#63b8ff" d="M844.85,-118.73C954.19,-112.92 1146.97,-100.56 1321.5,-77.72"/>
<polygon fill="#63b8ff" stroke="#63b8ff" points="1321.75,-81.22 1331.21,-76.44 1320.83,-74.28 1321.75,-81.22"/>
</a>
</g>
</g>
<!-- Node3 -->
<g id="Node000003" class="node">
<title>Node3</title>
<g id="a_Node000003"><a xlink:title=" ">
<polygon fill="#e0e0e0" stroke="#999999" points="74.62,-20.75 19.62,-20.75 19.62,0 74.62,0 74.62,-20.75"/>
<text xml:space="preserve" text-anchor="middle" x="47.12" y="-7.25" font-family="Helvetica,sans-Serif" font-size="10.00">QDialog</text>
</a>
</g>
</g>
<!-- Node2&#45;&gt;Node3 -->
<g id="edge2_Node000002_Node000003" class="edge">
<title>Node2&#45;&gt;Node3</title>
<g id="a_edge2_Node000002_Node000003"><a xlink:title=" ">
<path fill="none" stroke="#63b8ff" d="M52.87,-56.34C52.02,-49.64 50.85,-40.51 49.79,-32.23"/>
<polygon fill="#63b8ff" stroke="#63b8ff" points="53.3,-32.06 48.56,-22.58 46.35,-32.94 53.3,-32.06"/>
</a>
</g>
</g>
<!-- Node5 -->
<g id="Node000005" class="node">
<title>Node5</title>
<g id="a_Node000005"><a xlink:title=" ">
<polygon fill="#e0e0e0" stroke="#999999" points="147.62,-20.75 92.62,-20.75 92.62,0 147.62,0 147.62,-20.75"/>
<text xml:space="preserve" text-anchor="middle" x="120.12" y="-7.25" font-family="Helvetica,sans-Serif" font-size="10.00">QObject</text>
</a>
</g>
</g>
<!-- Node4&#45;&gt;Node5 -->
<g id="edge4_Node000004_Node000005" class="edge">
<title>Node4&#45;&gt;Node5</title>
<g id="a_edge4_Node000004_Node000005"><a xlink:title=" ">
<path fill="none" stroke="#63b8ff" d="M179.25,-56.34C168.91,-48.47 154.16,-37.25 141.97,-27.99"/>
<polygon fill="#63b8ff" stroke="#63b8ff" points="144.17,-25.26 134.09,-21.99 139.93,-30.83 144.17,-25.26"/>
</a>
</g>
</g>
<!-- Node6 -->
<g id="Node000006" class="node">
<title>Node6</title>
<g id="a_Node000006"><a xlink:title=" ">
<polygon fill="#e0e0e0" stroke="#999999" points="218.12,-20.75 166.12,-20.75 166.12,0 218.12,0 218.12,-20.75"/>
<text xml:space="preserve" text-anchor="middle" x="192.12" y="-7.25" font-family="Helvetica,sans-Serif" font-size="10.00">QString</text>
</a>
</g>
</g>
<!-- Node4&#45;&gt;Node6 -->
<g id="edge5_Node000004_Node000006" class="edge">
<title>Node4&#45;&gt;Node6</title>
<g id="a_edge5_Node000004_Node000006"><a xlink:title=" ">
<path fill="none" stroke="#63b8ff" d="M192.12,-56.34C192.12,-49.72 192.12,-40.72 192.12,-32.52"/>
<polygon fill="#63b8ff" stroke="#63b8ff" points="195.63,-32.59 192.13,-22.59 188.63,-32.59 195.63,-32.59"/>
</a>
</g>
</g>
<!-- Node7 -->
<g id="Node000007" class="node">
<title>Node7</title>
<g id="a_Node000007"><a xlink:title=" ">
<polygon fill="#e0e0e0" stroke="#999999" points="305.75,-20.75 236.5,-20.75 236.5,0 305.75,0 305.75,-20.75"/>
<text xml:space="preserve" text-anchor="middle" x="271.12" y="-7.25" font-family="Helvetica,sans-Serif" font-size="10.00">QStringList</text>
</a>
</g>
</g>
<!-- Node4&#45;&gt;Node7 -->
<g id="edge6_Node000004_Node000007" class="edge">
<title>Node4&#45;&gt;Node7</title>
<g id="a_edge6_Node000004_Node000007"><a xlink:title=" ">
<path fill="none" stroke="#63b8ff" d="M206.25,-56.34C217.82,-48.32 234.43,-36.81 247.94,-27.44"/>
<polygon fill="#63b8ff" stroke="#63b8ff" points="249.65,-30.51 255.88,-21.94 245.67,-24.76 249.65,-30.51"/>
</a>
</g>
</g>
<!-- Node8 -->
<g id="Node000008" class="node">
<title>Node8</title>
<g id="a_Node000008"><a xlink:title=" ">
<polygon fill="#e0e0e0" stroke="#999999" points="380.75,-20.75 323.5,-20.75 323.5,0 380.75,0 380.75,-20.75"/>
<text xml:space="preserve" text-anchor="middle" x="352.12" y="-7.25" font-family="Helvetica,sans-Serif" font-size="10.00">memory</text>
</a>
</g>
</g>
<!-- Node4&#45;&gt;Node8 -->
<g id="edge7_Node000004_Node000008" class="edge">
<title>Node4&#45;&gt;Node8</title>
<g id="a_edge7_Node000004_Node000008"><a xlink:title=" ">
<path fill="none" stroke="#63b8ff" d="M220.73,-56.34C246.36,-47.57 284.2,-34.62 312.69,-24.87"/>
<polygon fill="#63b8ff" stroke="#63b8ff" points="313.74,-28.21 322.07,-21.66 311.47,-21.59 313.74,-28.21"/>
</a>
</g>
</g>
</g>
</svg>
