<?xml version="1.0" encoding="UTF-8" standalone="no"?>
<!DOCTYPE svg PUBLIC "-//W3C//DTD SVG 1.1//EN"
 "http://www.w3.org/Graphics/SVG/1.1/DTD/svg11.dtd">
<!-- Generated by graphviz version 14.1.2 (0)
 -->
<!-- Title: src/app/SingleInstance.cpp Pages: 1 -->
<svg width="700pt" height="142pt"
 viewBox="0.00 0.00 700.00 142.00" xmlns="http://www.w3.org/2000/svg" xmlns:xlink="http://www.w3.org/1999/xlink">
<g id="graph0" class="graph" transform="scale(1 1) rotate(0) translate(4 138.25)">
<title>src/app/SingleInstance.cpp</title>
<!-- Node1 -->
<g id="Node000001" class="node">
<title>Node1</title>
<g id="a_Node000001"><a xlink:title=" ">
<polygon fill="#999999" stroke="#666666" points="421.38,-134.25 275.62,-134.25 275.62,-113.5 421.38,-113.5 421.38,-134.25"/>
<text xml:space="preserve" text-anchor="middle" x="348.5" y="-120.75" font-family="Helvetica,sans-Serif" font-size="10.00">src/app/SingleInstance.cpp</text>
</a>
</g>
</g>
<!-- Node2 -->
<g id="Node000002" class="node">
<title>Node2</title>
<g id="a_Node000002"><a xlink:href="SingleInstance_8hpp.html" target="_top" xlink:title=" ">
<polygon fill="white" stroke="#666666" points="128.62,-77.5 20.38,-77.5 20.38,-56.75 128.62,-56.75 128.62,-77.5"/>
<text xml:space="preserve" text-anchor="middle" x="74.5" y="-64" font-family="Helvetica,sans-Serif" font-size="10.00">SingleInstance.hpp</text>
</a>
</g>
</g>
<!-- Node1&#45;&gt;Node2 -->
<g id="edge1_Node000001_Node000002" class="edge">
<title>Node1&#45;&gt;Node2</title>
<g id="a_edge1_Node000001_Node000002"><a xlink:title=" ">
<path fill="none" stroke="#63b8ff" d="M299.2,-113.02C253.17,-103.83 184.36,-90.08 135.02,-80.22"/>
<polygon fill="#63b8ff" stroke="#63b8ff" points="135.84,-76.81 125.35,-78.29 134.47,-83.68 135.84,-76.81"/>
</a>
</g>
</g>
<!-- Node5 -->
<g id="Node000005" class="node">
<title>Node5</title>
<g id="a_Node000005"><a xlink:href="Constants_8hpp.html" target="_top" xlink:title=" ">
<polygon fill="white" stroke="#666666" points="274.75,-77.5 146.25,-77.5 146.25,-56.75 274.75,-56.75 274.75,-77.5"/>
<text xml:space="preserve" text-anchor="middle" x="210.5" y="-64" font-family="Helvetica,sans-Serif" font-size="10.00">mo/core/Constants.hpp</text>
</a>
</g>
</g>
<!-- Node1&#45;&gt;Node5 -->
<g id="edge4_Node000001_Node000005" class="edge">
<title>Node1&#45;&gt;Node5</title>
<g id="a_edge4_Node000001_Node000005"><a xlink:title=" ">
<path fill="none" stroke="#63b8ff" d="M323.83,-113.09C302.05,-104.44 270.04,-91.75 245.59,-82.05"/>
<polygon fill="#63b8ff" stroke="#63b8ff" points="246.95,-78.82 236.36,-78.39 244.37,-85.33 246.95,-78.82"/>
</a>
</g>
</g>
<!-- Node6 -->
<g id="Node000006" class="node">
<title>Node6</title>
<g id="a_Node000006"><a xlink:href="Logger_8hpp.html" target="_top" xlink:title=" ">
<polygon fill="white" stroke="#666666" points="404.5,-77.5 292.5,-77.5 292.5,-56.75 404.5,-56.75 404.5,-77.5"/>
<text xml:space="preserve" text-anchor="middle" x="348.5" y="-64" font-family="Helvetica,sans-Serif" font-size="10.00">mo/core/Logger.hpp</text>
</a>
</g>
</g>
<!-- Node1&#45;&gt;Node6 -->
<g id="edge5_Node000001_Node000006" class="edge">
<title>Node1&#45;&gt;Node6</title>
<g id="a_edge5_Node000001_Node000006"><a xlink:title=" ">
<path fill="none" stroke="#63b8ff" d="M348.5,-113.09C348.5,-106.47 348.5,-97.47 348.5,-89.27"/>
<polygon fill="#63b8ff" stroke="#63b8ff" points="352,-89.34 348.5,-79.34 345,-89.34 352,-89.34"/>
</a>
</g>
</g>
<!-- Node8 -->
<g id="Node000008" class="node">
<title>Node8</title>
<g id="a_Node000008"><a xlink:title=" ">
<polygon fill="#e0e0e0" stroke="#999999" points="526.38,-77.5 422.62,-77.5 422.62,-56.75 526.38,-56.75 526.38,-77.5"/>
<text xml:space="preserve" text-anchor="middle" x="474.5" y="-64" font-family="Helvetica,sans-Serif" font-size="10.00">QDBusConnection</text>
</a>
</g>
</g>
<!-- Node1&#45;&gt;Node8 -->
<g id="edge7_Node000001_Node000008" class="edge">
<title>Node1&#45;&gt;Node8</title>
<g id="a_edge7_Node000001_Node000008"><a xlink:title=" ">
<path fill="none" stroke="#63b8ff" d="M371.03,-113.09C390.74,-104.52 419.61,-91.98 441.85,-82.31"/>
<polygon fill="#63b8ff" stroke="#63b8ff" points="443,-85.63 450.78,-78.43 440.21,-79.21 443,-85.63"/>
</a>
</g>
</g>
<!-- Node9 -->
<g id="Node000009" class="node">
<title>Node9</title>
<g id="a_Node000009"><a xlink:title=" ">
<polygon fill="#e0e0e0" stroke="#999999" points="692.12,-77.5 544.88,-77.5 544.88,-56.75 692.12,-56.75 692.12,-77.5"/>
<text xml:space="preserve" text-anchor="middle" x="618.5" y="-64" font-family="Helvetica,sans-Serif" font-size="10.00">QDBusConnectionInterface</text>
</a>
</g>
</g>
<!-- Node1&#45;&gt;Node9 -->
<g id="edge8_Node000001_Node000009" class="edge">
<title>Node1&#45;&gt;Node9</title>
<g id="a_edge8_Node000001_Node000009"><a xlink:title=" ">
<path fill="none" stroke="#63b8ff" d="M397.08,-113.02C442.44,-103.83 510.24,-90.08 558.86,-80.22"/>
<polygon fill="#63b8ff" stroke="#63b8ff" points="559.26,-83.71 568.37,-78.29 557.87,-76.85 559.26,-83.71"/>
</a>
</g>
</g>
<!-- Node3 -->
<g id="Node000003" class="node">
<title>Node3</title>
<g id="a_Node000003"><a xlink:title=" ">
<polygon fill="#e0e0e0" stroke="#999999" points="55,-20.75 0,-20.75 0,0 55,0 55,-20.75"/>
<text xml:space="preserve" text-anchor="middle" x="27.5" y="-7.25" font-family="Helvetica,sans-Serif" font-size="10.00">QObject</text>
</a>
</g>
</g>
<!-- Node2&#45;&gt;Node3 -->
<g id="edge2_Node000002_Node000003" class="edge">
<title>Node2&#45;&gt;Node3</title>
<g id="a_edge2_Node000002_Node000003"><a xlink:title=" ">
<path fill="none" stroke="#63b8ff" d="M66.1,-56.34C59.75,-48.94 50.85,-38.57 43.2,-29.66"/>
<polygon fill="#63b8ff" stroke="#63b8ff" points="45.99,-27.53 36.82,-22.23 40.67,-32.09 45.99,-27.53"/>
</a>
</g>
</g>
<!-- Node4 -->
<g id="Node000004" class="node">
<title>Node4</title>
<g id="a_Node000004"><a xlink:title=" ">
<polygon fill="#e0e0e0" stroke="#999999" points="170.38,-20.75 72.62,-20.75 72.62,0 170.38,0 170.38,-20.75"/>
<text xml:space="preserve" text-anchor="middle" x="121.5" y="-7.25" font-family="Helvetica,sans-Serif" font-size="10.00">QSharedMemory</text>
</a>
</g>
</g>
<!-- Node2&#45;&gt;Node4 -->
<g id="edge3_Node000002_Node000004" class="edge">
<title>Node2&#45;&gt;Node4</title>
<g id="a_edge3_Node000002_Node000004"><a xlink:title=" ">
<path fill="none" stroke="#63b8ff" d="M82.9,-56.34C89.25,-48.94 98.15,-38.57 105.8,-29.66"/>
<polygon fill="#63b8ff" stroke="#63b8ff" points="108.33,-32.09 112.18,-22.23 103.01,-27.53 108.33,-32.09"/>
</a>
</g>
</g>
<!-- Node7 -->
<g id="Node000007" class="node">
<title>Node7</title>
<g id="a_Node000007"><a xlink:title=" ">
<polygon fill="#e0e0e0" stroke="#999999" points="374.5,-20.75 322.5,-20.75 322.5,0 374.5,0 374.5,-20.75"/>
<text xml:space="preserve" text-anchor="middle" x="348.5" y="-7.25" font-family="Helvetica,sans-Serif" font-size="10.00">QString</text>
</a>
</g>
</g>
<!-- Node6&#45;&gt;Node7 -->
<g id="edge6_Node000006_Node000007" class="edge">
<title>Node6&#45;&gt;Node7</title>
<g id="a_edge6_Node000006_Node000007"><a xlink:title=" ">
<path fill="none" stroke="#63b8ff" d="M348.5,-56.34C348.5,-49.72 348.5,-40.72 348.5,-32.52"/>
<polygon fill="#63b8ff" stroke="#63b8ff" points="352,-32.59 348.5,-22.59 345,-32.59 352,-32.59"/>
</a>
</g>
</g>
</g>
</svg>
